<svg width="36" height="36" viewBox="0 0 36 36" fill="none" xmlns="http://www.w3.org/2000/svg">
<rect width="36" height="36" rx="10" fill="white"/>
<g clip-path="url(#clip0_11001_103)">
<path d="M9 18C9 19.1819 9.23279 20.3522 9.68508 21.4442C10.1374 22.5361 10.8003 23.5282 11.636 24.364C12.4718 25.1997 13.4639 25.8626 14.5558 26.3149C15.6478 26.7672 16.8181 27 18 27C19.1819 27 20.3522 26.7672 21.4442 26.3149C22.5361 25.8626 23.5282 25.1997 24.364 24.364C25.1997 23.5282 25.8626 22.5361 26.3149 21.4442C26.7672 20.3522 27 19.1819 27 18C27 16.8181 26.7672 15.6478 26.3149 14.5558C25.8626 13.4639 25.1997 12.4718 24.364 11.636C23.5282 10.8003 22.5361 10.1374 21.4442 9.68508C20.3522 9.23279 19.1819 9 18 9C16.8181 9 15.6478 9.23279 14.5558 9.68508C13.4639 10.1374 12.4718 10.8003 11.636 11.636C10.8003 12.4718 10.1374 13.4639 9.68508 14.5558C9.23279 15.6478 9 16.8181 9 18Z" stroke="black" stroke-width="2" stroke-linecap="round" stroke-linejoin="round"/>
<path d="M19.867 15.7499C19.621 15.2699 19.159 14.9809 18.667 14.9999H17.333C16.597 14.9999 16 15.6699 16 16.4999C16 17.3269 16.597 17.9989 17.333 17.9989H18.667C19.403 17.9989 20 18.6699 20 19.4989C20 20.3269 19.403 20.9979 18.667 20.9979H17.333C16.841 21.0169 16.379 20.7279 16.133 20.2479" stroke="black" stroke-width="2" stroke-linecap="round" stroke-linejoin="round"/>
<path d="M18 13V15" stroke="black" stroke-width="2" stroke-linecap="round" stroke-linejoin="round"/>
<path d="M18 21V23" stroke="black" stroke-width="2" stroke-linecap="round" stroke-linejoin="round"/>
</g>
<defs>
<clipPath id="clip0_11001_103">
<rect width="24" height="24" fill="white" transform="translate(6 6)"/>
</clipPath>
</defs>
</svg>
