<svg width="26" height="26" viewBox="0 0 26 26" fill="none" xmlns="http://www.w3.org/2000/svg">
<g clip-path="url(#clip0_870_2394)">
<path d="M14.0833 22.75V15.1667L8.66667 9.75L3.25 15.1667V22.75H8.66667M14.0833 22.75H8.66667M14.0833 22.75H22.75V4.33333C22.75 4.04602 22.6359 3.77047 22.4327 3.5673C22.2295 3.36414 21.954 3.25 21.6667 3.25H10.8333C10.546 3.25 10.2705 3.36414 10.0673 3.5673C9.86414 3.77047 9.75 4.04602 9.75 4.33333V10.8333M8.66667 22.75V18.4167" stroke="white" stroke-width="2.75" stroke-linecap="round" stroke-linejoin="round"/>
<path d="M14.082 7.58325V7.59409" stroke="white" stroke-width="2.75" stroke-linecap="round" stroke-linejoin="round"/>
<path d="M18.418 7.58325V7.59409" stroke="white" stroke-width="2.75" stroke-linecap="round" stroke-linejoin="round"/>
<path d="M18.418 11.9167V11.9276" stroke="white" stroke-width="2.75" stroke-linecap="round" stroke-linejoin="round"/>
<path d="M18.418 16.25V16.2608" stroke="white" stroke-width="2.75" stroke-linecap="round" stroke-linejoin="round"/>
</g>
<defs>
<clipPath id="clip0_870_2394">
<rect width="26" height="26" fill="white"/>
</clipPath>
</defs>
</svg>
