<svg width="104" height="104" viewBox="0 0 104 104" fill="none" xmlns="http://www.w3.org/2000/svg">
<g clip-path="url(#clip0_2417_474)">
<path d="M43.332 56.3334C43.332 58.632 44.2451 60.8364 45.8704 62.4617C47.4958 64.087 49.7002 65.0001 51.9987 65.0001C54.2972 65.0001 56.5016 64.087 58.127 62.4617C59.7523 60.8364 60.6654 58.632 60.6654 56.3334C60.6654 54.0349 59.7523 51.8305 58.127 50.2052C56.5016 48.5798 54.2972 47.6667 51.9987 47.6667C49.7002 47.6667 47.4958 48.5798 45.8704 50.2052C44.2451 51.8305 43.332 54.0349 43.332 56.3334Z" stroke="white" stroke-width="5" stroke-linecap="round" stroke-linejoin="round"/>
<path d="M34.668 91V86.6667C34.668 84.3681 35.5811 82.1637 37.2064 80.5384C38.8317 78.9131 41.0361 78 43.3346 78H60.668C62.9665 78 65.1709 78.9131 66.7962 80.5384C68.4215 82.1637 69.3346 84.3681 69.3346 86.6667V91" stroke="white" stroke-width="5" stroke-linecap="round" stroke-linejoin="round"/>
<path d="M65 21.6667C65 23.9652 65.9131 26.1696 67.5384 27.7949C69.1637 29.4202 71.3681 30.3333 73.6667 30.3333C75.9652 30.3333 78.1696 29.4202 79.7949 27.7949C81.4202 26.1696 82.3333 23.9652 82.3333 21.6667C82.3333 19.3681 81.4202 17.1637 79.7949 15.5384C78.1696 13.9131 75.9652 13 73.6667 13C71.3681 13 69.1637 13.9131 67.5384 15.5384C65.9131 17.1637 65 19.3681 65 21.6667Z" stroke="white" stroke-width="5" stroke-linecap="round" stroke-linejoin="round"/>
<path d="M73.668 43.3333H82.3346C84.6332 43.3333 86.8376 44.2463 88.4629 45.8717C90.0882 47.497 91.0013 49.7014 91.0013 51.9999V56.3333" stroke="white" stroke-width="5" stroke-linecap="round" stroke-linejoin="round"/>
<path d="M21.668 21.6667C21.668 23.9652 22.5811 26.1696 24.2064 27.7949C25.8317 29.4202 28.0361 30.3333 30.3346 30.3333C32.6332 30.3333 34.8376 29.4202 36.4629 27.7949C38.0882 26.1696 39.0013 23.9652 39.0013 21.6667C39.0013 19.3681 38.0882 17.1637 36.4629 15.5384C34.8376 13.9131 32.6332 13 30.3346 13C28.0361 13 25.8317 13.9131 24.2064 15.5384C22.5811 17.1637 21.668 19.3681 21.668 21.6667Z" stroke="white" stroke-width="5" stroke-linecap="round" stroke-linejoin="round"/>
<path d="M13 56.3333V51.9999C13 49.7014 13.9131 47.497 15.5384 45.8717C17.1637 44.2463 19.3681 43.3333 21.6667 43.3333H30.3333" stroke="white" stroke-width="5" stroke-linecap="round" stroke-linejoin="round"/>
</g>
<defs>
<clipPath id="clip0_2417_474">
<rect width="104" height="104" fill="white"/>
</clipPath>
</defs>
</svg>
