<svg width="32" height="32" viewBox="0 0 32 32" fill="none" xmlns="http://www.w3.org/2000/svg">
<g clip-path="url(#clip0_6531_275)">
<path d="M12.0001 6.66699H9.33341C8.62617 6.66699 7.94789 6.94794 7.4478 7.44804C6.9477 7.94814 6.66675 8.62641 6.66675 9.33366V25.3337C6.66675 26.0409 6.9477 26.7192 7.4478 27.2193C7.94789 27.7194 8.62617 28.0003 9.33341 28.0003H22.6667C23.374 28.0003 24.0523 27.7194 24.5524 27.2193C25.0525 26.7192 25.3334 26.0409 25.3334 25.3337V9.33366C25.3334 8.62641 25.0525 7.94814 24.5524 7.44804C24.0523 6.94794 23.374 6.66699 22.6667 6.66699H20.0001" stroke="white" stroke-width="2.75" stroke-linecap="round" stroke-linejoin="round"/>
<path d="M12 6.66667C12 5.95942 12.281 5.28115 12.781 4.78105C13.2811 4.28095 13.9594 4 14.6667 4H17.3333C18.0406 4 18.7189 4.28095 19.219 4.78105C19.719 5.28115 20 5.95942 20 6.66667C20 7.37391 19.719 8.05219 19.219 8.55229C18.7189 9.05238 18.0406 9.33333 17.3333 9.33333H14.6667C13.9594 9.33333 13.2811 9.05238 12.781 8.55229C12.281 8.05219 12 7.37391 12 6.66667Z" stroke="white" stroke-width="2.75" stroke-linecap="round" stroke-linejoin="round"/>
<path d="M15.9907 22.3338L19.6533 18.5805C20.1064 18.1087 20.3594 17.4799 20.3594 16.8258C20.3594 16.1717 20.1064 15.5429 19.6533 15.0711C19.4325 14.8413 19.1675 14.6584 18.8742 14.5334C18.5809 14.4085 18.2654 14.3441 17.9467 14.3441C17.6279 14.3441 17.3124 14.4085 17.0191 14.5334C16.7258 14.6584 16.4608 14.8413 16.24 15.0711L15.996 15.3218L15.752 15.0698C15.5311 14.8399 15.2661 14.657 14.9729 14.5321C14.6796 14.4072 14.3641 14.3428 14.0453 14.3428C13.7266 14.3428 13.4111 14.4072 13.1178 14.5321C12.8245 14.657 12.5595 14.8399 12.3387 15.0698C11.8853 15.5415 11.6321 16.1703 11.6321 16.8245C11.6321 17.4787 11.8853 18.1075 12.3387 18.5791L15.9893 22.3458L15.9907 22.3338Z" stroke="white" stroke-width="2.75" stroke-linecap="round" stroke-linejoin="round"/>
</g>
<defs>
<clipPath id="clip0_6531_275">
<rect width="32" height="32" fill="white"/>
</clipPath>
</defs>
</svg>
