<svg width="32" height="32" viewBox="0 0 32 32" fill="none" xmlns="http://www.w3.org/2000/svg">
<g clip-path="url(#clip0_9550_6565)">
<path d="M12 20L20 12" stroke="white" stroke-width="2.75" stroke-linecap="round" stroke-linejoin="round"/>
<path d="M12.6667 13.3333C13.0349 13.3333 13.3333 13.0349 13.3333 12.6667C13.3333 12.2985 13.0349 12 12.6667 12C12.2985 12 12 12.2985 12 12.6667C12 13.0349 12.2985 13.3333 12.6667 13.3333Z" fill="white" stroke="white" stroke-width="2.75" stroke-linecap="round" stroke-linejoin="round"/>
<path d="M19.3307 19.9998C19.6989 19.9998 19.9974 19.7014 19.9974 19.3332C19.9974 18.965 19.6989 18.6665 19.3307 18.6665C18.9625 18.6665 18.6641 18.965 18.6641 19.3332C18.6641 19.7014 18.9625 19.9998 19.3307 19.9998Z" fill="white" stroke="white" stroke-width="2.75" stroke-linecap="round" stroke-linejoin="round"/>
<path d="M4 16C4 17.5759 4.31039 19.1363 4.91345 20.5922C5.5165 22.0481 6.40042 23.371 7.51472 24.4853C8.62902 25.5996 9.95189 26.4835 11.4078 27.0866C12.8637 27.6896 14.4241 28 16 28C17.5759 28 19.1363 27.6896 20.5922 27.0866C22.0481 26.4835 23.371 25.5996 24.4853 24.4853C25.5996 23.371 26.4835 22.0481 27.0866 20.5922C27.6896 19.1363 28 17.5759 28 16C28 14.4241 27.6896 12.8637 27.0866 11.4078C26.4835 9.95189 25.5996 8.62902 24.4853 7.51472C23.371 6.40042 22.0481 5.5165 20.5922 4.91345C19.1363 4.31039 17.5759 4 16 4C14.4241 4 12.8637 4.31039 11.4078 4.91345C9.95189 5.5165 8.62902 6.40042 7.51472 7.51472C6.40042 8.62902 5.5165 9.95189 4.91345 11.4078C4.31039 12.8637 4 14.4241 4 16Z" stroke="white" stroke-width="2.75" stroke-linecap="round" stroke-linejoin="round"/>
</g>
<defs>
<clipPath id="clip0_9550_6565">
<rect width="32" height="32" fill="white"/>
</clipPath>
</defs>
</svg>
