<svg width="32" height="32" viewBox="0 0 32 32" fill="none" xmlns="http://www.w3.org/2000/svg">
<g clip-path="url(#clip0_9550_27943)">
<path d="M11.9974 6.66699H9.33073C8.62349 6.66699 7.94521 6.94794 7.44511 7.44804C6.94501 7.94814 6.66406 8.62641 6.66406 9.33366V25.3337C6.66406 26.0409 6.94501 26.7192 7.44511 27.2193C7.94521 27.7194 8.62349 28.0003 9.33073 28.0003H22.6641C23.3713 28.0003 24.0496 27.7194 24.5497 27.2193C25.0498 26.7192 25.3307 26.0409 25.3307 25.3337V9.33366C25.3307 8.62641 25.0498 7.94814 24.5497 7.44804C24.0496 6.94794 23.3713 6.66699 22.6641 6.66699H19.9974" stroke="white" stroke-width="2.75" stroke-linecap="round" stroke-linejoin="round"/>
<path d="M12 6.66667C12 5.95942 12.281 5.28115 12.781 4.78105C13.2811 4.28095 13.9594 4 14.6667 4H17.3333C18.0406 4 18.7189 4.28095 19.219 4.78105C19.719 5.28115 20 5.95942 20 6.66667C20 7.37391 19.719 8.05219 19.219 8.55229C18.7189 9.05238 18.0406 9.33333 17.3333 9.33333H14.6667C13.9594 9.33333 13.2811 9.05238 12.781 8.55229C12.281 8.05219 12 7.37391 12 6.66667Z" stroke="white" stroke-width="2.75" stroke-linecap="round" stroke-linejoin="round"/>
<path d="M12 22.6667V16" stroke="white" stroke-width="2.75" stroke-linecap="round" stroke-linejoin="round"/>
<path d="M16 22.6663V21.333" stroke="white" stroke-width="2.75" stroke-linecap="round" stroke-linejoin="round"/>
<path d="M20 22.667V18.667" stroke="white" stroke-width="2.75" stroke-linecap="round" stroke-linejoin="round"/>
</g>
<defs>
<clipPath id="clip0_9550_27943">
<rect width="32" height="32" fill="white"/>
</clipPath>
</defs>
</svg>
