<svg width="32" height="32" viewBox="0 0 32 32" fill="none" xmlns="http://www.w3.org/2000/svg">
<g clip-path="url(#clip0_25_1691)">
<path d="M12.0013 14.6667C14.9468 14.6667 17.3346 12.2789 17.3346 9.33333C17.3346 6.38781 14.9468 4 12.0013 4C9.05578 4 6.66797 6.38781 6.66797 9.33333C6.66797 12.2789 9.05578 14.6667 12.0013 14.6667Z" stroke="white" stroke-width="2.75" stroke-linecap="round" stroke-linejoin="round"/>
<path d="M4 28V25.3333C4 23.9188 4.5619 22.5623 5.5621 21.5621C6.56229 20.5619 7.91885 20 9.33333 20H14.6667C16.0812 20 17.4377 20.5619 18.4379 21.5621C19.4381 22.5623 20 23.9188 20 25.3333V28" stroke="white" stroke-width="2.75" stroke-linecap="round" stroke-linejoin="round"/>
<path d="M21.332 4.17334C22.4793 4.46707 23.4961 5.13427 24.2222 6.06975C24.9484 7.00523 25.3425 8.15578 25.3425 9.34001C25.3425 10.5242 24.9484 11.6748 24.2222 12.6103C23.4961 13.5457 22.4793 14.2129 21.332 14.5067" stroke="white" stroke-width="2.75" stroke-linecap="round" stroke-linejoin="round"/>
<path d="M28 28V25.3333C27.9932 24.1562 27.5972 23.0144 26.8737 22.0859C26.1502 21.1574 25.1398 20.4943 24 20.2" stroke="white" stroke-width="2.75" stroke-linecap="round" stroke-linejoin="round"/>
</g>
<defs>
<clipPath id="clip0_25_1691">
<rect width="32" height="32" fill="white"/>
</clipPath>
</defs>
</svg>
