<svg width="20" height="20" viewBox="0 0 20 20" fill="none" xmlns="http://www.w3.org/2000/svg">
<g clip-path="url(#clip0_2417_609)">
<path d="M12.5012 5.83339L7.08455 11.2501C6.75303 11.5816 6.56678 12.0312 6.56678 12.5001C6.56678 12.9689 6.75303 13.4185 7.08455 13.7501C7.41607 14.0816 7.86571 14.2678 8.33455 14.2678C8.80339 14.2678 9.25303 14.0816 9.58455 13.7501L15.0012 8.33339C15.6643 7.67034 16.0368 6.77107 16.0368 5.83339C16.0368 4.8957 15.6643 3.99643 15.0012 3.33339C14.3382 2.67034 13.4389 2.29785 12.5012 2.29785C11.5635 2.29785 10.6643 2.67034 10.0012 3.33339L4.58455 8.75005C3.58999 9.74461 3.03125 11.0935 3.03125 12.5001C3.03125 13.9066 3.58999 15.2555 4.58455 16.2501C5.57911 17.2446 6.92803 17.8034 8.33455 17.8034C9.74107 17.8034 11.09 17.2446 12.0846 16.2501L17.5012 10.8334" stroke="#333333" stroke-width="2" stroke-linecap="round" stroke-linejoin="round"/>
</g>
<defs>
<clipPath id="clip0_2417_609">
<rect width="20" height="20" fill="white"/>
</clipPath>
</defs>
</svg>
