<svg width="104" height="104" viewBox="0 0 104 104" fill="none" xmlns="http://www.w3.org/2000/svg">
<g clip-path="url(#clip0_2417_467)">
<path d="M39 17.3333C39 16.1841 39.4565 15.0819 40.2692 14.2692C41.0819 13.4565 42.1841 13 43.3333 13H60.6667C61.8159 13 62.9181 13.4565 63.7308 14.2692C64.5435 15.0819 65 16.1841 65 17.3333V21.6667C65 22.8159 64.5435 23.9181 63.7308 24.7308C62.9181 25.5435 61.8159 26 60.6667 26H43.3333C42.1841 26 41.0819 25.5435 40.2692 24.7308C39.4565 23.9181 39 22.8159 39 21.6667V17.3333Z" stroke="white" stroke-width="5" stroke-linecap="round" stroke-linejoin="round"/>
<path d="M43.332 26V30.2467C43.332 34.047 40.5847 37.2927 36.832 37.9167C33.0794 38.5407 30.332 41.7863 30.332 45.5867V82.3333C30.332 84.6319 31.2451 86.8363 32.8704 88.4616C34.4958 90.0869 36.7002 91 38.9987 91H64.9987C67.2972 91 69.5016 90.0869 71.127 88.4616C72.7523 86.8363 73.6654 84.6319 73.6654 82.3333V45.5867C73.6654 41.7863 70.918 38.5407 67.1654 37.9167C65.3495 37.6141 63.6998 36.6774 62.5096 35.273C61.3195 33.8686 60.666 32.0876 60.6654 30.2467V26" stroke="white" stroke-width="5" stroke-linecap="round" stroke-linejoin="round"/>
<path d="M30.332 52H73.6654" stroke="white" stroke-width="5" stroke-linecap="round" stroke-linejoin="round"/>
<path d="M30.332 78H73.6654" stroke="white" stroke-width="5" stroke-linecap="round" stroke-linejoin="round"/>
<path d="M47.668 65H56.3346" stroke="white" stroke-width="5" stroke-linecap="round" stroke-linejoin="round"/>
</g>
<defs>
<clipPath id="clip0_2417_467">
<rect width="104" height="104" fill="white"/>
</clipPath>
</defs>
</svg>
