<svg width="104" height="104" viewBox="0 0 104 104" fill="none" xmlns="http://www.w3.org/2000/svg">
<g clip-path="url(#clip0_2417_482)">
<path d="M34.668 30.3333C34.668 34.9304 36.4942 39.3392 39.7448 42.5899C42.9954 45.8405 47.4042 47.6667 52.0013 47.6667C56.5984 47.6667 61.0072 45.8405 64.2578 42.5899C67.5085 39.3392 69.3346 34.9304 69.3346 30.3333C69.3346 25.7362 67.5085 21.3274 64.2578 18.0768C61.0072 14.8262 56.5984 13 52.0013 13C47.4042 13 42.9954 14.8262 39.7448 18.0768C36.4942 21.3274 34.668 25.7362 34.668 30.3333Z" stroke="white" stroke-width="5" stroke-linecap="round" stroke-linejoin="round"/>
<path d="M26 91V82.3333C26 77.7362 27.8262 73.3274 31.0768 70.0768C34.3274 66.8262 38.7362 65 43.3333 65H60.6667C65.2638 65 69.6726 66.8262 72.9232 70.0768C76.1738 73.3274 78 77.7362 78 82.3333V91" stroke="white" stroke-width="5" stroke-linecap="round" stroke-linejoin="round"/>
</g>
<defs>
<clipPath id="clip0_2417_482">
<rect width="104" height="104" fill="white"/>
</clipPath>
</defs>
</svg>
