<svg width="32" height="37" viewBox="0 0 32 37" fill="none" xmlns="http://www.w3.org/2000/svg">
<path d="M27.314 27.314L18.828 35.8C18.078 36.5493 17.0612 36.9701 16.001 36.9701C14.9408 36.9701 13.924 36.5493 13.174 35.8L4.68601 27.314C2.44845 25.0763 0.924679 22.2254 0.307382 19.1217C-0.309914 16.018 0.00698721 12.801 1.21801 9.87745C2.42904 6.95389 4.4798 4.45507 7.11097 2.69701C9.74214 0.938942 12.8355 0.000579834 16 0.000579834C19.1645 0.000579834 22.2579 0.938942 24.889 2.69701C27.5202 4.45507 29.571 6.95389 30.782 9.87745C31.993 12.801 32.3099 16.018 31.6926 19.1217C31.0753 22.2254 29.5516 25.0763 27.314 27.314Z" fill="#FD4747"/>
</svg>
