<svg width="385" height="375" viewBox="0 0 385 375" fill="none" xmlns="http://www.w3.org/2000/svg">
<path d="M101.928 2.31732C97.4234 2.71384 93.2294 4.78431 90.1713 8.12157C87.1132 11.4588 85.4123 15.8214 85.403 20.3513C85.2406 77.7637 84.9731 275.795 88.7081 345.886C88.8974 349.462 90.4396 352.832 93.0211 355.31C95.6027 357.788 99.0296 359.187 102.605 359.224C139.322 359.621 244.938 360.347 304.896 356.507C310.911 356.127 316.554 353.465 320.677 349.062C324.8 344.66 327.092 338.848 327.086 332.812C327.014 272.556 326.053 103.095 317.813 25.6355C317.335 21.1385 315.301 16.9508 312.063 13.7992C308.826 10.6475 304.588 8.7307 300.087 8.38148C260.043 5.26032 153.702 -2.19257 101.928 2.31732Z" fill="url(#paint0_linear_2939_270)"/>
<path d="M100.143 35.3973C99.4214 84.5082 97.3697 247.881 100.953 308.179C101.477 316.993 108.311 323.951 116.751 324.245C151.498 325.458 240.602 327.805 291.376 322.21C300.518 321.201 307.505 313.264 307.749 303.652C309.019 253.534 312.45 101.374 308.966 41.7561C308.405 32.2439 301.155 24.655 292.062 24.0406C254.439 21.5016 157.826 15.645 114.651 19.2473C106.545 19.9108 100.273 26.8952 100.143 35.3973Z" fill="#FFCC7B"/>
<path d="M184.097 10.856C184.11 11.5088 184.373 12.1317 184.832 12.5959C185.29 13.0601 185.909 13.3301 186.561 13.3501C193.247 13.5535 212.081 14.1314 220.5 14.4344C220.887 14.4486 221.273 14.3739 221.627 14.216C221.981 14.0582 222.294 13.8213 222.543 13.5235C222.792 13.2258 222.969 12.875 223.062 12.498C223.155 12.121 223.16 11.7278 223.078 11.3483C223.05 11.2978 222.834 9.21192 220.708 9.06463C215.013 8.66764 197.833 7.59874 186.48 8.25383C184.148 8.38709 184.02 11.0439 184.097 10.856Z" fill="url(#paint1_linear_2939_270)"/>
<path d="M140.927 183.709C140.927 183.709 188.823 171.675 239.423 178.94C253.66 180.982 266.27 189.278 273.954 201.457C287.798 223.4 307.369 262.504 303.224 303.286L281.496 308.669C281.496 308.669 266.479 260.273 249.578 240.573C249.578 240.573 229.563 286.274 230.574 311.368C230.604 312.078 230.65 312.77 230.714 313.445C233.011 337.994 134.631 318.027 134.631 318.027L140.927 183.709Z" fill="#7C564D"/>
<path d="M192.703 142.741L182.506 175.273C181.558 178.299 182.506 181.54 184.87 183.368C190.332 187.576 201.115 194.28 214.295 194.088C216.707 194.053 218.735 191.984 218.903 189.459L222.533 135.088L192.703 142.741Z" fill="url(#paint2_linear_2939_270)"/>
<path d="M232.183 107.087C232.183 107.087 236.143 132.707 233.649 144.951C231.155 157.194 231.697 165.712 217.124 164.471C202.55 163.231 192.645 153.196 189.441 139.502C189.441 139.502 184.339 118.36 188.562 111.363C192.786 104.366 232.183 107.087 232.183 107.087Z" fill="url(#paint3_linear_2939_270)"/>
<path d="M196.476 132.114L198.236 132.577C198.236 132.577 194.892 115.762 201.953 114.821C209.014 113.879 235.622 115.366 243.424 107.825C250.947 100.556 249.194 88.1456 243.004 83.1742C242.81 83.0264 242.567 82.9573 242.324 82.9807C242.082 83.0041 241.857 83.1182 241.694 83.3004L240.826 84.2487C240.694 84.3916 240.522 84.4919 240.332 84.5367C240.143 84.5815 239.944 84.5688 239.762 84.5001C239.58 84.4315 239.422 84.3101 239.309 84.1514C239.196 83.9927 239.133 83.8039 239.127 83.609C239.106 82.7674 238.106 82.3297 237.5 82.9076C235.127 85.1521 229.467 88.3279 216.766 87.3796C198.746 86.0344 185.557 90.0112 182.156 101.828C182.109 101.997 182.017 102.149 181.89 102.27C181.764 102.391 181.607 102.476 181.437 102.516C181.266 102.556 181.088 102.55 180.921 102.497C180.754 102.445 180.604 102.349 180.487 102.22C179.421 101.111 177.487 100.214 174.174 101.785C168.412 104.517 167.638 115.335 175.759 126.541C175.85 126.663 175.911 126.805 175.938 126.955C175.965 127.105 175.956 127.259 175.913 127.405C175.87 127.551 175.793 127.685 175.69 127.797C175.586 127.908 175.458 127.994 175.315 128.047C173.119 128.777 169.561 130.951 175.787 136.736C182.158 142.654 186.656 143.375 188.422 143.386C188.652 143.391 188.876 143.314 189.056 143.169C189.235 143.025 189.358 142.821 189.402 142.595L191.518 131.881C191.545 131.75 191.597 131.626 191.673 131.516C191.749 131.406 191.847 131.312 191.96 131.241C192.073 131.17 192.199 131.123 192.331 131.103C192.463 131.083 192.598 131.09 192.727 131.124L196.476 132.114Z" fill="#7C564D"/>
<path d="M196.331 134.434C196.331 134.434 196.371 118.745 188.718 121.133C181.064 123.521 187.812 138.485 192.953 140.425L196.331 134.434Z" fill="url(#paint4_linear_2939_270)"/>
<path d="M142.925 286.76C140.803 271.751 154.616 244.482 161.033 236.112C162.874 233.721 163.888 230.793 163.92 227.773C164.109 206.522 155.2 192.873 140.926 183.709C140.926 183.709 89.1216 244.168 102.313 290.661C103.623 295.368 105.802 299.788 108.738 303.69C110.818 286.175 132.736 287.568 142.925 286.76Z" fill="#7C564D"/>
<path d="M142.19 275.74L140.217 275.516C141.89 260.801 154.782 242.634 160.243 235.506L161.819 236.719C156.458 243.715 143.808 261.52 142.19 275.74Z" fill="url(#paint5_linear_2939_270)"/>
<path d="M143.187 286.056C137.36 286.066 110.557 286.985 108.082 303.003C131.199 333.63 194.922 322.58 194.922 322.58V310.664C194.922 310.664 154.978 303.397 144.823 286.969C144.651 286.69 144.41 286.459 144.124 286.299C143.838 286.139 143.515 286.056 143.187 286.056Z" fill="url(#paint6_linear_2939_270)"/>
<path d="M189.453 319.984C189.453 319.984 198.861 297.745 215.44 305.633C232.019 313.521 230.715 318.679 230.715 318.679L189.453 319.984Z" fill="url(#paint7_linear_2939_270)"/>
<path d="M187.34 324.592C187.403 325.401 187.776 326.155 188.381 326.696C188.986 327.237 189.776 327.523 190.586 327.495L276.495 324.493C277.147 324.471 277.775 324.246 278.294 323.85C278.812 323.454 279.195 322.906 279.39 322.283L281.882 314.287C282.026 313.829 282.063 313.343 281.99 312.869C281.917 312.394 281.737 311.942 281.464 311.548C281.19 311.153 280.83 310.827 280.411 310.593C279.992 310.359 279.525 310.225 279.047 310.199L247.718 308.531C247.436 308.517 247.154 308.541 246.878 308.601L189.803 321.263C189.06 321.426 188.402 321.853 187.949 322.465C187.496 323.077 187.28 323.832 187.34 324.592Z" fill="url(#paint8_linear_2939_270)"/>
<path d="M244.926 321.456L247.29 310.424L279.47 311.963L277.352 321.116L244.926 321.456Z" fill="url(#paint9_linear_2939_270)"/>
<path d="M228.428 202.701C226.607 217.607 218.415 278.17 216.069 295.473C215.992 296.045 216.04 296.626 216.21 297.178C216.38 297.729 216.668 298.236 217.053 298.665C217.439 299.094 217.913 299.433 218.442 299.66C218.972 299.886 219.545 299.995 220.12 299.977L359.105 295.993C359.989 295.968 360.839 295.648 361.521 295.084C362.203 294.52 362.677 293.744 362.868 292.879L384.488 195.352C384.622 194.751 384.614 194.128 384.466 193.531C384.318 192.934 384.034 192.379 383.635 191.91C383.237 191.442 382.736 191.072 382.171 190.831C381.606 190.589 380.993 190.482 380.38 190.518L232.138 199.215C231.21 199.269 230.33 199.648 229.652 200.285C228.974 200.922 228.541 201.777 228.428 202.701Z" fill="url(#paint10_linear_2939_270)"/>
<path d="M284.293 263.86L263.752 322.259L311.515 323.273L315.492 264.217C315.536 263.564 315.44 262.909 315.21 262.296C314.981 261.683 314.623 261.127 314.161 260.664C313.699 260.201 313.144 259.842 312.533 259.612C311.921 259.381 311.268 259.285 310.616 259.328L288.31 260.812C287.417 260.871 286.56 261.191 285.845 261.733C285.131 262.275 284.591 263.014 284.293 263.86Z" fill="url(#paint11_linear_2939_270)"/>
<path d="M244.392 323.091C244.269 323.464 244.237 323.861 244.297 324.249C244.358 324.637 244.509 325.005 244.739 325.324C244.969 325.642 245.271 325.901 245.62 326.079C245.97 326.258 246.356 326.351 246.749 326.351H321.546C321.872 326.351 322.194 326.286 322.495 326.161C322.796 326.036 323.07 325.853 323.3 325.623C323.53 325.392 323.713 325.118 323.838 324.816C323.962 324.515 324.026 324.191 324.026 323.865V320.653C324.026 320.317 323.958 319.986 323.827 319.677C323.695 319.369 323.503 319.091 323.261 318.859C323.02 318.627 322.734 318.446 322.421 318.328C322.108 318.209 321.774 318.156 321.439 318.17L246.639 321.383C246.136 321.405 245.651 321.581 245.249 321.886C244.848 322.191 244.549 322.611 244.392 323.091Z" fill="url(#paint12_linear_2939_270)"/>
<path d="M226.33 264.312L225.35 264.187L232.178 210.245C232.384 208.622 233.149 207.122 234.341 206.004C235.534 204.886 237.078 204.22 238.709 204.121L366.806 196.379L366.866 197.372L238.763 205.121C237.365 205.207 236.04 205.78 235.018 206.739C233.995 207.698 233.339 208.985 233.161 210.377L226.33 264.312Z" fill="#FFCC7B"/>
<path d="M223.395 279.551L221.926 291.231L222.912 291.355L224.381 279.676L223.395 279.551Z" fill="#FFCC7B"/>
<path d="M218.541 150.973C203.106 152.141 194.135 136.155 194.047 135.994L195.08 135.423C195.166 135.577 203.781 150.904 218.453 149.794L218.541 150.973Z" fill="url(#paint13_linear_2939_270)"/>
<path d="M224.835 150.375C224.835 150.815 224.66 151.237 224.349 151.548C224.039 151.86 223.617 152.035 223.178 152.035H218.762C218.545 152.035 218.329 151.992 218.128 151.909C217.927 151.825 217.744 151.703 217.59 151.549C217.436 151.395 217.314 151.212 217.231 151.01C217.148 150.809 217.105 150.593 217.105 150.375C217.105 150.157 217.148 149.941 217.232 149.74C217.315 149.539 217.437 149.356 217.591 149.202C217.745 149.048 217.927 148.926 218.128 148.843C218.329 148.76 218.545 148.717 218.762 148.717H223.178C223.617 148.717 224.038 148.892 224.349 149.203C224.66 149.513 224.834 149.935 224.835 150.375Z" fill="url(#paint14_linear_2939_270)"/>
<path d="M192.282 116.913C183.797 118.637 184.84 129.385 184.84 129.385C184.229 137.185 186.501 141.051 189.414 142.894C190.393 143.512 191.515 143.865 192.671 143.92C193.827 143.975 194.977 143.729 196.01 143.207C197.043 142.684 197.923 141.903 198.565 140.938C199.207 139.974 199.589 138.86 199.674 137.704C199.831 135.581 200.01 133.563 200.168 132.846C200.545 131.115 200.761 115.188 192.282 116.913Z" fill="url(#paint15_linear_2939_270)"/>
<path d="M193.054 119.631C192.2 119.482 191.322 119.626 190.56 120.039C189.797 120.452 189.196 121.109 188.853 121.906C183.783 133.672 190.008 141.327 193.065 141.486C196.286 141.654 196.222 126.13 195.537 122.15C195.244 120.489 194.187 119.828 193.054 119.631Z" fill="url(#paint16_linear_2939_270)"/>
<path d="M144.958 361.035V298.904C144.961 294.983 143.419 291.219 140.667 288.43C137.915 285.641 134.175 284.052 130.26 284.01C105.801 283.743 55.3582 283.729 14.0837 287.213C11.3614 287.444 8.81787 288.666 6.93408 290.648C5.05028 292.63 3.95679 295.235 3.86037 297.97L0.00909514 358.039C-0.0583515 359.926 0.249863 361.807 0.915767 363.573C1.58167 365.339 2.59194 366.955 3.88766 368.326C5.18339 369.697 6.73864 370.796 8.46274 371.558C10.1868 372.321 12.0453 372.732 13.9297 372.768L130.753 374.992C132.606 375.027 134.446 374.692 136.168 374.006C137.889 373.321 139.457 372.299 140.78 370.999C142.102 369.7 143.153 368.149 143.87 366.439C144.588 364.728 144.958 362.891 144.958 361.035Z" fill="url(#paint17_linear_2939_270)"/>
<path d="M130.792 305.626C130.896 310.913 130.74 319.302 130.612 324.721C130.596 325.387 130.441 326.042 130.158 326.645C129.875 327.247 129.47 327.784 128.968 328.221C128.466 328.658 127.878 328.985 127.243 329.181C126.607 329.377 125.938 329.439 125.277 329.361L105.148 326.997C104.511 326.923 103.896 326.721 103.339 326.403C102.781 326.085 102.294 325.659 101.904 325.148C101.515 324.638 101.233 324.054 101.073 323.432C100.914 322.81 100.882 322.162 100.978 321.527L103.448 305.017C103.618 303.883 104.188 302.848 105.056 302.1C105.923 301.351 107.03 300.94 108.175 300.94H126.014C127.265 300.937 128.466 301.427 129.36 302.304C130.254 303.181 130.768 304.374 130.792 305.626Z" fill="white"/>
<path opacity="0.37" d="M78.1914 336.914L61.3998 338.727C60.8483 338.788 60.2902 338.725 59.7653 338.545C59.2403 338.365 58.7614 338.072 58.3624 337.686C57.9634 337.299 57.6542 336.83 57.4567 336.31C57.2592 335.791 57.1782 335.235 57.2195 334.68L60.8901 284.651C67.9288 284.428 74.8709 284.263 81.5707 284.15V333.148C81.5705 334.083 81.2252 334.985 80.6014 335.68C79.9776 336.375 79.1192 336.814 78.1914 336.914Z" fill="white"/>
<path d="M71.3089 328.239C71.2842 328.669 71.0966 329.073 70.7842 329.37C70.4719 329.666 70.0584 329.831 69.6283 329.832C69.5947 329.832 69.5625 329.832 69.5289 329.832C69.3072 329.821 69.09 329.765 68.89 329.669C68.6899 329.572 68.5109 329.437 68.3632 329.271C68.2155 329.105 68.1022 328.911 68.0297 328.701C67.9572 328.491 67.9269 328.269 67.9408 328.047L70.4728 284.383C71.6086 284.355 72.7345 284.328 73.8605 284.304L71.3089 328.239Z" fill="white"/>
<path d="M121.484 321.386C121.627 321.387 121.765 321.332 121.869 321.234C121.973 321.135 122.036 321.001 122.044 320.857L122.913 307.11C122.919 307.036 122.909 306.962 122.885 306.892C122.861 306.821 122.824 306.756 122.775 306.701C122.726 306.645 122.667 306.6 122.6 306.567C122.533 306.535 122.461 306.516 122.387 306.511C122.313 306.505 122.238 306.514 122.167 306.537C122.097 306.561 122.031 306.598 121.976 306.648C121.92 306.697 121.875 306.758 121.843 306.825C121.811 306.892 121.793 306.966 121.79 307.04L120.919 320.787C120.914 320.861 120.924 320.935 120.948 321.006C120.972 321.076 121.009 321.14 121.058 321.196C121.107 321.252 121.167 321.297 121.233 321.329C121.3 321.362 121.372 321.381 121.446 321.385L121.484 321.386Z" fill="url(#paint18_linear_2939_270)"/>
<path d="M119.692 321.386C119.838 321.386 119.978 321.329 120.083 321.227C120.187 321.126 120.248 320.987 120.252 320.841L120.707 306.824C120.71 306.75 120.698 306.676 120.672 306.607C120.646 306.537 120.607 306.474 120.557 306.42C120.506 306.366 120.445 306.322 120.378 306.292C120.31 306.261 120.238 306.244 120.164 306.242C120.089 306.235 120.013 306.244 119.942 306.269C119.87 306.293 119.805 306.332 119.75 306.384C119.695 306.435 119.652 306.498 119.622 306.568C119.593 306.637 119.579 306.712 119.581 306.788L119.127 320.804C119.124 320.878 119.136 320.953 119.162 321.022C119.188 321.092 119.227 321.156 119.278 321.21C119.329 321.264 119.39 321.308 119.457 321.338C119.525 321.369 119.598 321.386 119.672 321.388L119.692 321.386Z" fill="url(#paint19_linear_2939_270)"/>
<path d="M117.262 321.385C117.188 321.382 117.116 321.364 117.049 321.332C116.982 321.301 116.922 321.257 116.872 321.202C116.823 321.147 116.784 321.083 116.759 321.013C116.734 320.944 116.724 320.87 116.727 320.796C116.95 316.087 117.376 307.106 117.383 306.8C117.383 306.652 117.442 306.509 117.547 306.404C117.652 306.298 117.794 306.239 117.943 306.239C118.091 306.239 118.234 306.298 118.339 306.404C118.444 306.509 118.503 306.652 118.503 306.8C118.503 307.033 117.955 318.539 117.845 320.843C117.839 320.988 117.777 321.125 117.673 321.225C117.568 321.325 117.429 321.381 117.285 321.381L117.262 321.385Z" fill="url(#paint20_linear_2939_270)"/>
<path d="M113.535 321.95C113.827 321.95 114.107 321.837 114.316 321.634C114.525 321.43 114.647 321.153 114.656 320.862C115.132 307.281 115.048 306.974 114.993 306.772C114.934 306.48 114.762 306.223 114.513 306.057C114.265 305.892 113.961 305.833 113.669 305.892C113.377 305.951 113.12 306.124 112.956 306.373C112.791 306.622 112.731 306.926 112.79 307.218C112.827 308.035 112.575 315.937 112.405 320.782C112.399 320.93 112.423 321.078 112.474 321.217C112.525 321.356 112.604 321.483 112.705 321.592C112.806 321.701 112.927 321.788 113.062 321.849C113.197 321.91 113.343 321.944 113.491 321.949L113.535 321.95Z" fill="url(#paint21_linear_2939_270)"/>
<path d="M111.095 321.386C111.244 321.386 111.386 321.327 111.491 321.222C111.596 321.117 111.656 320.974 111.656 320.825V307.078C111.656 306.929 111.596 306.787 111.491 306.681C111.386 306.576 111.244 306.517 111.095 306.517C110.947 306.517 110.804 306.576 110.699 306.681C110.594 306.787 110.535 306.929 110.535 307.078V320.825C110.535 320.974 110.594 321.117 110.699 321.222C110.804 321.327 110.947 321.386 111.095 321.386Z" fill="url(#paint22_linear_2939_270)"/>
<path d="M109.125 321.386C109.272 321.386 109.413 321.329 109.517 321.225C109.622 321.122 109.682 320.982 109.685 320.835C109.793 316.056 110.045 308.251 110.27 307.312C110.335 307.202 110.36 307.073 110.342 306.947C110.323 306.82 110.262 306.704 110.169 306.617C110.075 306.53 109.955 306.477 109.828 306.468C109.701 306.459 109.574 306.493 109.469 306.566C109.162 306.767 108.871 306.957 108.559 320.808C108.557 320.883 108.569 320.957 108.596 321.026C108.622 321.095 108.662 321.159 108.713 321.213C108.765 321.266 108.826 321.309 108.894 321.339C108.962 321.369 109.035 321.385 109.109 321.386H109.125Z" fill="url(#paint23_linear_2939_270)"/>
<path d="M124.512 322.638C124.801 322.638 125.078 322.527 125.286 322.328C125.495 322.129 125.619 321.857 125.633 321.569L126.383 307.127C126.399 306.828 126.295 306.536 126.095 306.313C125.895 306.091 125.615 305.957 125.316 305.942C125.019 305.93 124.729 306.036 124.508 306.235C124.287 306.435 124.153 306.713 124.134 307.011L123.382 321.452C123.367 321.751 123.471 322.044 123.671 322.266C123.871 322.488 124.151 322.622 124.449 322.638H124.512Z" fill="url(#paint24_linear_2939_270)"/>
<path d="M114.222 276.954V233.319C114.223 230.566 113.14 227.922 111.207 225.964C109.274 224.006 106.648 222.89 103.899 222.86C86.7224 222.672 51.2963 222.662 22.3109 225.105C20.3997 225.267 18.6142 226.126 17.2922 227.517C15.9701 228.909 15.2031 230.738 15.1364 232.659L12.4265 274.849C12.3785 276.175 12.5944 277.496 13.0619 278.737C13.5293 279.978 14.2387 281.113 15.1488 282.076C16.0589 283.039 17.1514 283.811 18.3626 284.347C19.5738 284.883 20.8793 285.171 22.2031 285.196L104.245 286.759C105.546 286.784 106.839 286.548 108.048 286.066C109.258 285.585 110.359 284.866 111.288 283.954C112.217 283.041 112.955 281.951 113.458 280.749C113.962 279.548 114.222 278.257 114.222 276.954Z" fill="url(#paint25_linear_2939_270)"/>
<path d="M104.273 238.041C104.346 241.754 104.236 247.644 104.145 251.45C104.133 251.917 104.024 252.377 103.825 252.8C103.626 253.223 103.342 253.6 102.989 253.906C102.637 254.213 102.224 254.442 101.778 254.581C101.333 254.719 100.863 254.762 100.399 254.709L86.267 253.051C85.8203 252.998 85.3888 252.855 84.998 252.632C84.6072 252.409 84.2651 252.11 83.9919 251.752C83.7186 251.394 83.5199 250.985 83.4075 250.549C83.2951 250.113 83.2712 249.658 83.3373 249.213L85.0696 237.62C85.1899 236.824 85.5909 236.097 86.2001 235.572C86.8093 235.047 87.5863 234.758 88.3901 234.757H100.917C101.794 234.756 102.637 235.099 103.264 235.713C103.891 236.327 104.253 237.163 104.273 238.041Z" fill="white"/>
<path opacity="0.37" d="M67.3317 260.012L55.5398 261.288C55.1521 261.33 54.7599 261.286 54.391 261.159C54.022 261.033 53.6853 260.827 53.4047 260.556C53.1241 260.284 52.9065 259.954 52.7672 259.59C52.628 259.225 52.5705 258.834 52.5988 258.444L55.1771 223.312C60.1193 223.155 64.9957 223.04 69.6999 222.96V257.367C69.699 258.022 69.457 258.655 69.0202 259.143C68.5833 259.631 67.9822 259.94 67.3317 260.012Z" fill="white"/>
<path d="M62.4995 253.923C62.483 254.226 62.3513 254.511 62.1315 254.72C61.9117 254.929 61.6204 255.045 61.3175 255.045H61.2475C61.0915 255.037 60.9386 254.998 60.7977 254.931C60.6568 254.863 60.5307 254.768 60.4265 254.652C60.3224 254.535 60.2423 254.399 60.1909 254.252C60.1395 254.104 60.1178 253.947 60.1271 253.791L61.9043 223.127L64.2851 223.072L62.4995 253.923Z" fill="white"/>
<path d="M97.7355 249.109C97.8363 249.109 97.9333 249.071 98.0067 249.001C98.0801 248.932 98.1244 248.838 98.1305 248.737L98.7425 239.079C98.7461 239.027 98.7393 238.975 98.7227 238.925C98.706 238.876 98.6797 238.83 98.6453 238.791C98.6109 238.752 98.5691 238.72 98.5223 238.697C98.4756 238.674 98.4247 238.661 98.3727 238.658C98.3206 238.654 98.2681 238.66 98.2184 238.676C98.1687 238.692 98.1228 238.719 98.0835 238.753C98.0442 238.788 98.0123 238.83 97.9898 238.877C97.9673 238.925 97.9547 238.976 97.9526 239.028L97.3406 248.687C97.3374 248.739 97.3444 248.791 97.3613 248.84C97.3782 248.889 97.4047 248.935 97.4391 248.974C97.4736 249.013 97.5154 249.045 97.5622 249.068C97.609 249.091 97.6598 249.104 97.7117 249.107L97.7355 249.109Z" fill="url(#paint26_linear_2939_270)"/>
<path d="M96.4772 249.109C96.5799 249.109 96.6786 249.069 96.7526 248.997C96.8265 248.926 96.8699 248.829 96.8735 248.726L97.1914 238.883C97.1948 238.778 97.1565 238.675 97.0848 238.599C97.0131 238.522 96.914 238.477 96.8091 238.473C96.7564 238.468 96.7033 238.474 96.6532 238.491C96.6031 238.508 96.5572 238.536 96.5186 238.572C96.4799 238.608 96.4494 238.652 96.429 238.701C96.4085 238.75 96.3987 238.803 96.4001 238.856L96.0822 248.702C96.0788 248.807 96.1172 248.909 96.1888 248.986C96.2605 249.063 96.3597 249.108 96.4646 249.112L96.4772 249.109Z" fill="url(#paint27_linear_2939_270)"/>
<path d="M94.7721 249.107C94.7196 249.105 94.6681 249.092 94.6206 249.07C94.573 249.047 94.5305 249.015 94.4954 248.976C94.4603 248.937 94.4334 248.891 94.4162 248.841C94.399 248.792 94.392 248.739 94.3954 248.687C94.5522 245.38 94.8519 239.073 94.8561 238.859C94.8621 238.758 94.9064 238.663 94.9799 238.593C95.0535 238.524 95.1507 238.485 95.2517 238.485C95.3528 238.485 95.45 238.524 95.5235 238.593C95.5971 238.663 95.6414 238.758 95.6474 238.859C95.6474 239.023 95.2622 247.103 95.1852 248.722C95.1805 248.823 95.1369 248.919 95.0633 248.99C94.9897 249.06 94.8919 249.099 94.7903 249.099L94.7721 249.107Z" fill="url(#paint28_linear_2939_270)"/>
<path d="M92.15 249.504C92.3549 249.504 92.5516 249.424 92.6989 249.282C92.8463 249.139 92.9326 248.945 92.9399 248.74C93.2746 239.201 93.22 238.988 93.1765 238.846C93.1187 238.659 92.9934 238.499 92.8249 238.399C92.6565 238.299 92.4569 238.265 92.265 238.304C92.0731 238.343 91.9024 238.452 91.7862 238.61C91.67 238.768 91.6165 238.964 91.636 239.159C91.6612 239.733 91.4848 245.281 91.3657 248.685C91.362 248.789 91.3787 248.893 91.415 248.99C91.4513 249.088 91.5064 249.177 91.5771 249.253C91.6479 249.329 91.7329 249.39 91.8274 249.434C91.9218 249.477 92.0239 249.501 92.1276 249.504H92.15Z" fill="url(#paint29_linear_2939_270)"/>
<path d="M90.4413 249.109C90.4932 249.109 90.5447 249.098 90.5927 249.079C90.6407 249.059 90.6843 249.029 90.721 248.992C90.7577 248.956 90.7868 248.912 90.8065 248.864C90.8263 248.815 90.8364 248.764 90.8362 248.712V239.054C90.8302 238.953 90.7859 238.858 90.7124 238.788C90.6388 238.719 90.5416 238.68 90.4406 238.68C90.3395 238.68 90.2423 238.719 90.1688 238.788C90.0952 238.858 90.0509 238.953 90.0449 239.054V248.712C90.0449 248.817 90.0867 248.918 90.161 248.992C90.2353 249.067 90.3361 249.109 90.4413 249.109Z" fill="url(#paint30_linear_2939_270)"/>
<path d="M89.0571 249.109C89.1604 249.109 89.2596 249.068 89.3335 248.996C89.4073 248.923 89.4499 248.825 89.4521 248.722C89.5277 245.366 89.7041 239.884 89.8624 239.225C89.9055 239.148 89.9216 239.058 89.908 238.971C89.8944 238.883 89.852 238.803 89.7875 238.743C89.723 238.682 89.6401 238.645 89.5522 238.638C89.4642 238.63 89.3762 238.652 89.3022 238.7C89.0865 238.84 88.8821 238.981 88.6622 248.703C88.6599 248.808 88.6994 248.91 88.7718 248.986C88.8443 249.062 88.9439 249.106 89.0487 249.109H89.0571Z" fill="url(#paint31_linear_2939_270)"/>
<path d="M99.8632 249.988C100.066 249.988 100.261 249.91 100.408 249.77C100.555 249.63 100.643 249.439 100.653 249.236L101.18 239.094C101.19 238.885 101.118 238.68 100.977 238.524C100.837 238.368 100.641 238.274 100.432 238.263C100.223 238.254 100.019 238.328 99.8636 238.468C99.7082 238.609 99.6136 238.804 99.5999 239.013L99.0733 249.155C99.0626 249.365 99.1355 249.57 99.276 249.726C99.4165 249.882 99.6131 249.976 99.8225 249.987L99.8632 249.988Z" fill="url(#paint32_linear_2939_270)"/>
<defs>
<linearGradient id="paint0_linear_2939_270" x1="415.638" y1="507.864" x2="-29.6461" y2="-165.701" gradientUnits="userSpaceOnUse">
<stop stop-color="#09005D"/>
<stop offset="1" stop-color="#1A0F91"/>
</linearGradient>
<linearGradient id="paint1_linear_2939_270" x1="184.082" y1="11.2403" x2="223.137" y2="11.2403" gradientUnits="userSpaceOnUse">
<stop stop-color="#4F52FF"/>
<stop offset="1" stop-color="#4042E2"/>
</linearGradient>
<linearGradient id="paint2_linear_2939_270" x1="183.961" y1="223.7" x2="207.431" y2="160.42" gradientUnits="userSpaceOnUse">
<stop stop-color="#FEBBBA"/>
<stop offset="1" stop-color="#FF928E"/>
</linearGradient>
<linearGradient id="paint3_linear_2939_270" x1="228.934" y1="127.864" x2="160.299" y2="156.529" gradientUnits="userSpaceOnUse">
<stop stop-color="#FEBBBA"/>
<stop offset="1" stop-color="#FF928E"/>
</linearGradient>
<linearGradient id="paint4_linear_2939_270" x1="224.283" y1="116.725" x2="155.649" y2="145.39" gradientUnits="userSpaceOnUse">
<stop stop-color="#E8CDCC"/>
<stop offset="1" stop-color="#FF928E"/>
</linearGradient>
<linearGradient id="paint5_linear_2939_270" x1="121.792" y1="128.234" x2="176.776" y2="368.031" gradientUnits="userSpaceOnUse">
<stop stop-color="#FF928E"/>
<stop offset="1" stop-color="#FE7062"/>
</linearGradient>
<linearGradient id="paint6_linear_2939_270" x1="136.807" y1="268.098" x2="172.318" y2="361.395" gradientUnits="userSpaceOnUse">
<stop stop-color="#E8CDCC"/>
<stop offset="1" stop-color="#FF928E"/>
</linearGradient>
<linearGradient id="paint7_linear_2939_270" x1="182.629" y1="246.51" x2="220.499" y2="346.006" gradientUnits="userSpaceOnUse">
<stop stop-color="#FEBBBA"/>
<stop offset="1" stop-color="#FF928E"/>
</linearGradient>
<linearGradient id="paint8_linear_2939_270" x1="221.671" y1="340.519" x2="270.823" y2="266.913" gradientUnits="userSpaceOnUse">
<stop stop-color="#4F52FF"/>
<stop offset="1" stop-color="#4042E2"/>
</linearGradient>
<linearGradient id="paint9_linear_2939_270" x1="238.409" y1="351.696" x2="287.561" y2="278.09" gradientUnits="userSpaceOnUse">
<stop stop-color="#4F52FF"/>
<stop offset="1" stop-color="#4042E2"/>
</linearGradient>
<linearGradient id="paint10_linear_2939_270" x1="272.971" y1="259.975" x2="445.461" y2="166.306" gradientUnits="userSpaceOnUse">
<stop stop-color="#4F52FF"/>
<stop offset="1" stop-color="#4042E2"/>
</linearGradient>
<linearGradient id="paint11_linear_2939_270" x1="291.985" y1="228.219" x2="289.092" y2="307.678" gradientUnits="userSpaceOnUse">
<stop stop-color="#4F52FF"/>
<stop offset="1" stop-color="#4042E2"/>
</linearGradient>
<linearGradient id="paint12_linear_2939_270" x1="267.655" y1="351.797" x2="342.173" y2="226.016" gradientUnits="userSpaceOnUse">
<stop stop-color="#4F52FF"/>
<stop offset="1" stop-color="#4042E2"/>
</linearGradient>
<linearGradient id="paint13_linear_2939_270" x1="193.471" y1="155.825" x2="213.715" y2="136.391" gradientUnits="userSpaceOnUse">
<stop stop-color="#4F52FF"/>
<stop offset="1" stop-color="#4042E2"/>
</linearGradient>
<linearGradient id="paint14_linear_2939_270" x1="217.105" y1="150.375" x2="224.835" y2="150.375" gradientUnits="userSpaceOnUse">
<stop stop-color="#4F52FF"/>
<stop offset="1" stop-color="#4042E2"/>
</linearGradient>
<linearGradient id="paint15_linear_2939_270" x1="218.643" y1="80.0881" x2="191.166" y2="133.508" gradientUnits="userSpaceOnUse">
<stop stop-color="#4F52FF"/>
<stop offset="1" stop-color="#4042E2"/>
</linearGradient>
<linearGradient id="paint16_linear_2939_270" x1="207.444" y1="115.795" x2="233.931" y2="90.3143" gradientUnits="userSpaceOnUse">
<stop stop-color="#4F52FF"/>
<stop offset="1" stop-color="#4042E2"/>
</linearGradient>
<linearGradient id="paint17_linear_2939_270" x1="164.956" y1="267.146" x2="-125.214" y2="469.257" gradientUnits="userSpaceOnUse">
<stop stop-color="#FF928E"/>
<stop offset="1" stop-color="#FE7062"/>
</linearGradient>
<linearGradient id="paint18_linear_2939_270" x1="115.112" y1="304.038" x2="151.223" y2="356.427" gradientUnits="userSpaceOnUse">
<stop stop-color="#09005D"/>
<stop offset="1" stop-color="#1A0F91"/>
</linearGradient>
<linearGradient id="paint19_linear_2939_270" x1="113.815" y1="304.932" x2="149.927" y2="357.32" gradientUnits="userSpaceOnUse">
<stop stop-color="#09005D"/>
<stop offset="1" stop-color="#1A0F91"/>
</linearGradient>
<linearGradient id="paint20_linear_2939_270" x1="112.254" y1="306.009" x2="148.366" y2="358.398" gradientUnits="userSpaceOnUse">
<stop stop-color="#09005D"/>
<stop offset="1" stop-color="#1A0F91"/>
</linearGradient>
<linearGradient id="paint21_linear_2939_270" x1="109.55" y1="307.873" x2="145.661" y2="360.26" gradientUnits="userSpaceOnUse">
<stop stop-color="#09005D"/>
<stop offset="1" stop-color="#1A0F91"/>
</linearGradient>
<linearGradient id="paint22_linear_2939_270" x1="107.766" y1="309.102" x2="143.878" y2="361.489" gradientUnits="userSpaceOnUse">
<stop stop-color="#09005D"/>
<stop offset="1" stop-color="#1A0F91"/>
</linearGradient>
<linearGradient id="paint23_linear_2939_270" x1="106.66" y1="309.865" x2="142.771" y2="362.252" gradientUnits="userSpaceOnUse">
<stop stop-color="#09005D"/>
<stop offset="1" stop-color="#1A0F91"/>
</linearGradient>
<linearGradient id="paint24_linear_2939_270" x1="116.965" y1="302.76" x2="153.077" y2="355.149" gradientUnits="userSpaceOnUse">
<stop stop-color="#09005D"/>
<stop offset="1" stop-color="#1A0F91"/>
</linearGradient>
<linearGradient id="paint25_linear_2939_270" x1="123.992" y1="214.003" x2="-79.7888" y2="355.942" gradientUnits="userSpaceOnUse">
<stop stop-color="#FF928E"/>
<stop offset="1" stop-color="#FE7062"/>
</linearGradient>
<linearGradient id="paint26_linear_2939_270" x1="93.2611" y1="236.926" x2="118.621" y2="273.716" gradientUnits="userSpaceOnUse">
<stop stop-color="#09005D"/>
<stop offset="1" stop-color="#1A0F91"/>
</linearGradient>
<linearGradient id="paint27_linear_2939_270" x1="92.3514" y1="237.553" x2="117.712" y2="274.343" gradientUnits="userSpaceOnUse">
<stop stop-color="#09005D"/>
<stop offset="1" stop-color="#1A0F91"/>
</linearGradient>
<linearGradient id="paint28_linear_2939_270" x1="91.2541" y1="238.31" x2="116.614" y2="275.101" gradientUnits="userSpaceOnUse">
<stop stop-color="#09005D"/>
<stop offset="1" stop-color="#1A0F91"/>
</linearGradient>
<linearGradient id="paint29_linear_2939_270" x1="89.3547" y1="239.619" x2="114.715" y2="276.41" gradientUnits="userSpaceOnUse">
<stop stop-color="#09005D"/>
<stop offset="1" stop-color="#1A0F91"/>
</linearGradient>
<linearGradient id="paint30_linear_2939_270" x1="88.1025" y1="240.482" x2="113.463" y2="277.273" gradientUnits="userSpaceOnUse">
<stop stop-color="#09005D"/>
<stop offset="1" stop-color="#1A0F91"/>
</linearGradient>
<linearGradient id="paint31_linear_2939_270" x1="87.3248" y1="241.018" x2="112.685" y2="277.808" gradientUnits="userSpaceOnUse">
<stop stop-color="#09005D"/>
<stop offset="1" stop-color="#1A0F91"/>
</linearGradient>
<linearGradient id="paint32_linear_2939_270" x1="94.5638" y1="236.028" x2="119.924" y2="272.819" gradientUnits="userSpaceOnUse">
<stop stop-color="#09005D"/>
<stop offset="1" stop-color="#1A0F91"/>
</linearGradient>
</defs>
</svg>
