<svg width="566" height="395" viewBox="0 0 566 395" fill="none" xmlns="http://www.w3.org/2000/svg">
<path d="M390.85 68.1293H169.021C163.996 68.1293 159.923 72.1914 159.923 77.2022V369.523C159.923 374.534 163.996 378.596 169.021 378.596H390.85C395.874 378.596 399.948 374.534 399.948 369.523V77.2022C399.948 72.1914 395.874 68.1293 390.85 68.1293Z" fill="#38297A"/>
<path d="M411.427 68.1293H189.598C184.573 68.1293 180.5 72.1914 180.5 77.2022V369.523C180.5 374.534 184.573 378.596 189.598 378.596H411.427C416.451 378.596 420.525 374.534 420.525 369.523V77.2022C420.525 72.1914 416.451 68.1293 411.427 68.1293Z" fill="#20154F"/>
<path d="M400.628 78.1118H200.397C196.377 78.1118 193.118 81.3617 193.118 85.3706V361.356C193.118 365.365 196.377 368.615 200.397 368.615H400.628C404.648 368.615 407.907 365.365 407.907 361.356V85.3706C407.907 81.3617 404.648 78.1118 400.628 78.1118Z" fill="white"/>
<path d="M364.003 56.8919H218.872C218.151 56.8918 217.436 57.0333 216.769 57.3086C216.103 57.5839 215.497 57.9874 214.987 58.4962C214.476 59.005 214.071 59.609 213.795 60.2738C213.519 60.9387 213.377 61.6512 213.377 62.3708V72.6316C213.377 74.085 213.956 75.4789 214.987 76.5067C216.017 77.5344 217.415 78.1118 218.872 78.1118H364.003C365.46 78.1114 366.857 77.5339 367.888 76.5062C368.918 75.4785 369.497 74.0848 369.497 72.6316V62.3708C369.497 60.9177 368.918 59.5242 367.888 58.4967C366.857 57.4692 365.46 56.8919 364.003 56.8919Z" fill="#EA241F"/>
<path d="M336.616 35.9438H326.117C319.412 35.9438 313.764 30.5397 313.934 23.8558C313.947 23.3597 313.943 22.8604 313.923 22.3581C313.573 13.6948 308.112 6.16692 300.512 2.76066V0.820608H291.437L291.395 0.850798C278.993 0.875738 268.933 10.8884 268.933 23.277V23.4174C268.936 26.7339 267.62 29.916 265.272 32.2648C262.924 34.6136 259.737 35.9368 256.411 35.9438H246.256C244.434 35.9438 242.687 36.6654 241.399 37.9499C240.111 39.2344 239.388 40.9765 239.388 42.793V61.6016H343.482V42.793C343.482 40.977 342.758 39.2352 341.471 37.9508C340.183 36.6664 338.437 35.9445 336.616 35.9438ZM291.437 34.8582C289.139 34.8567 286.893 34.1755 284.983 32.9009C283.073 31.6262 281.584 29.8154 280.706 27.6973C279.828 25.5792 279.6 23.2491 280.05 21.0015C280.5 18.754 281.608 16.69 283.235 15.0705C284.861 13.4511 286.932 12.349 289.187 11.9035C291.441 11.4581 293.778 11.6893 295.9 12.568C298.023 13.4467 299.837 14.9334 301.112 16.84C302.387 18.7467 303.067 20.9877 303.065 23.2796C303.059 26.3514 301.831 29.2952 299.651 31.4657C297.471 33.6361 294.518 34.8562 291.437 34.8582Z" fill="#D80E0E"/>
<path d="M345.692 35.9438H335.192C328.487 35.9438 322.839 30.5397 323.01 23.8558C323.021 23.3597 323.019 22.8609 322.998 22.3581C322.533 10.8254 313.019 1.31284 301.456 0.840295C288.602 0.315246 278.007 10.5616 278.007 23.2783V23.4187C278.011 26.7336 276.695 29.9142 274.348 32.2625C272.002 34.6108 268.818 35.9347 265.493 35.9438H255.337C253.515 35.9438 251.768 36.6654 250.48 37.9499C249.192 39.2344 248.469 40.9765 248.469 42.793V61.6016H352.564V42.793C352.564 41.8933 352.386 41.0023 352.041 40.171C351.695 39.3398 351.189 38.5846 350.551 37.9485C349.913 37.3124 349.155 36.808 348.321 36.464C347.488 36.12 346.594 35.9433 345.692 35.9438ZM300.507 34.8582C298.208 34.8564 295.962 34.175 294.052 32.9002C292.142 31.6254 290.654 29.8145 289.777 27.6964C288.899 25.5783 288.671 23.2482 289.121 21.0007C289.571 18.7533 290.679 16.6894 292.306 15.0701C293.932 13.4508 296.003 12.3488 298.258 11.9034C300.512 11.4581 302.848 11.6894 304.971 12.5682C307.094 13.4469 308.907 14.9336 310.183 16.8402C311.458 18.7468 312.138 20.9877 312.136 23.2796C312.13 26.3517 310.902 29.2959 308.722 31.4665C306.542 33.6371 303.587 34.8569 300.507 34.8582Z" fill="#EA241F"/>
<path d="M373.078 56.8919H227.948C227.226 56.8916 226.512 57.0331 225.845 57.3082C225.178 57.5834 224.572 57.9869 224.061 58.4957C223.551 59.0045 223.146 59.6086 222.87 60.2735C222.593 60.9384 222.451 61.6511 222.451 62.3708V72.6316C222.451 74.085 223.03 75.4789 224.061 76.5067C225.091 77.5344 226.489 78.1118 227.947 78.1118H373.078C374.536 78.1114 375.933 77.5339 376.963 76.5062C377.994 75.4785 378.572 74.0848 378.572 72.6316V62.3708C378.572 60.9177 377.994 59.5242 376.963 58.4967C375.933 57.4692 374.535 56.8919 373.078 56.8919Z" fill="#FE4C40"/>
<path d="M223.664 131.479C232.131 131.479 238.994 124.634 238.994 116.191C238.994 107.748 232.131 100.903 223.664 100.903C215.197 100.903 208.333 107.748 208.333 116.191C208.333 124.634 215.197 131.479 223.664 131.479Z" fill="#D1DCF8"/>
<path d="M392.677 104.521L257.327 104.756L257.338 111.2L392.689 110.964L392.677 104.521Z" fill="#D1DCF8"/>
<path d="M392.688 120.899L364.967 120.957L364.98 127.401L392.701 127.343L392.688 120.899Z" fill="#D1DCF8"/>
<path d="M325.53 121.135L257.327 121.242L257.337 127.685L325.54 127.578L325.53 121.135Z" fill="#D1DCF8"/>
<path d="M220.153 123.123L215.305 118.291C215.136 118.125 215.001 117.927 214.909 117.708C214.817 117.489 214.769 117.255 214.768 117.018C214.767 116.781 214.813 116.546 214.903 116.326C214.994 116.107 215.127 115.908 215.295 115.74C215.464 115.572 215.663 115.44 215.883 115.349C216.103 115.259 216.339 115.213 216.577 115.214C216.814 115.215 217.05 115.263 217.269 115.355C217.488 115.447 217.687 115.581 217.854 115.75L221.427 119.312L229.474 111.29C229.641 111.121 229.839 110.986 230.059 110.894C230.278 110.802 230.513 110.754 230.751 110.753C230.989 110.753 231.224 110.799 231.444 110.889C231.664 110.979 231.864 111.112 232.032 111.28C232.2 111.447 232.333 111.647 232.424 111.866C232.515 112.085 232.561 112.32 232.56 112.557C232.559 112.795 232.511 113.029 232.419 113.248C232.326 113.466 232.192 113.665 232.022 113.831L222.701 123.123C222.534 123.29 222.336 123.422 222.117 123.513C221.898 123.603 221.664 123.65 221.427 123.65C221.191 123.65 220.956 123.603 220.738 123.513C220.519 123.422 220.32 123.29 220.153 123.123Z" fill="#13B1E2"/>
<path d="M234.504 177.552C240.491 171.582 240.491 161.902 234.504 155.931C228.517 149.961 218.81 149.961 212.823 155.931C206.836 161.902 206.836 171.582 212.823 177.552C218.81 183.522 228.517 183.522 234.504 177.552Z" fill="#D1DCF8"/>
<path d="M392.678 155.071L257.328 155.307L257.339 161.75L392.69 161.515L392.678 155.071Z" fill="#D1DCF8"/>
<path d="M392.691 171.45L364.971 171.508L364.984 177.951L392.705 177.893L392.691 171.45Z" fill="#D1DCF8"/>
<path d="M325.528 171.685L257.325 171.792L257.335 178.236L325.538 178.129L325.528 171.685Z" fill="#D1DCF8"/>
<path d="M220.153 173.675L215.305 168.836C215.132 168.671 214.993 168.473 214.897 168.253C214.801 168.033 214.75 167.797 214.747 167.557C214.744 167.317 214.79 167.08 214.88 166.858C214.971 166.636 215.105 166.434 215.275 166.265C215.445 166.095 215.647 165.962 215.87 165.871C216.092 165.781 216.331 165.736 216.571 165.739C216.811 165.742 217.049 165.793 217.269 165.889C217.489 165.984 217.688 166.123 217.854 166.296L221.428 169.858L229.474 161.836C229.814 161.512 230.268 161.334 230.739 161.34C231.209 161.345 231.659 161.534 231.991 161.866C232.324 162.197 232.514 162.645 232.519 163.115C232.525 163.584 232.347 164.036 232.022 164.376L222.702 173.669C222.364 174.007 221.906 174.197 221.429 174.198C220.951 174.199 220.492 174.011 220.153 173.675Z" fill="#13B1E2"/>
<path d="M223.664 232.581C232.131 232.581 238.994 225.737 238.994 217.293C238.994 208.85 232.131 202.005 223.664 202.005C215.197 202.005 208.333 208.85 208.333 217.293C208.333 225.737 215.197 232.581 223.664 232.581Z" fill="#D1DCF8"/>
<path d="M392.677 205.621L257.327 205.857L257.338 212.301L392.689 212.065L392.677 205.621Z" fill="#D1DCF8"/>
<path d="M392.693 222.001L364.973 222.059L364.986 228.503L392.707 228.445L392.693 222.001Z" fill="#D1DCF8"/>
<path d="M325.525 222.237L257.322 222.344L257.332 228.787L325.535 228.681L325.525 222.237Z" fill="#D1DCF8"/>
<path d="M220.153 224.229L215.305 219.397C215.136 219.231 215.001 219.033 214.909 218.814C214.817 218.596 214.769 218.361 214.768 218.124C214.767 217.887 214.813 217.652 214.903 217.432C214.994 217.213 215.127 217.014 215.295 216.846C215.464 216.678 215.663 216.546 215.883 216.455C216.103 216.365 216.339 216.319 216.577 216.32C216.814 216.321 217.05 216.369 217.269 216.461C217.488 216.553 217.687 216.687 217.854 216.856L221.427 220.419L229.474 212.396C229.813 212.063 230.27 211.877 230.745 211.879C231.22 211.881 231.676 212.07 232.012 212.406C232.348 212.741 232.538 213.195 232.54 213.669C232.542 214.143 232.356 214.599 232.022 214.937L222.701 224.229C222.534 224.396 222.336 224.529 222.117 224.619C221.898 224.709 221.664 224.756 221.427 224.756C221.191 224.756 220.956 224.709 220.738 224.619C220.519 224.529 220.32 224.396 220.153 224.229Z" fill="#13B1E2"/>
<path d="M223.664 283.132C232.131 283.132 238.994 276.287 238.994 267.844C238.994 259.4 232.131 252.555 223.664 252.555C215.197 252.555 208.333 259.4 208.333 267.844C208.333 276.287 215.197 283.132 223.664 283.132Z" fill="#D1DCF8"/>
<path d="M392.676 256.173L257.326 256.409L257.337 262.852L392.688 262.617L392.676 256.173Z" fill="#D1DCF8"/>
<path d="M392.697 272.553L364.977 272.611L364.99 279.054L392.711 278.997L392.697 272.553Z" fill="#D1DCF8"/>
<path d="M325.525 272.787L257.322 272.894L257.332 279.338L325.535 279.231L325.525 272.787Z" fill="#D1DCF8"/>
<path d="M220.153 274.776L215.305 269.944C214.971 269.606 214.785 269.15 214.787 268.676C214.789 268.202 214.979 267.748 215.315 267.412C215.651 267.077 216.107 266.888 216.582 266.886C217.058 266.884 217.515 267.07 217.853 267.403L221.427 270.965L229.473 262.942C229.64 262.773 229.839 262.639 230.058 262.547C230.277 262.455 230.513 262.407 230.751 262.406C230.988 262.405 231.224 262.451 231.444 262.541C231.664 262.632 231.864 262.765 232.032 262.932C232.2 263.1 232.333 263.299 232.424 263.519C232.514 263.738 232.56 263.973 232.559 264.21C232.559 264.447 232.511 264.682 232.418 264.9C232.326 265.119 232.191 265.317 232.022 265.483L222.701 274.776C222.534 274.943 222.335 275.075 222.117 275.165C221.898 275.256 221.664 275.302 221.427 275.302C221.19 275.302 220.956 275.256 220.737 275.165C220.519 275.075 220.32 274.943 220.153 274.776Z" fill="#13B1E2"/>
<path d="M223.664 333.682C232.131 333.682 238.994 326.837 238.994 318.394C238.994 309.951 232.131 303.106 223.664 303.106C215.197 303.106 208.333 309.951 208.333 318.394C208.333 326.837 215.197 333.682 223.664 333.682Z" fill="#D1DCF8"/>
<path d="M392.674 306.723L257.324 306.959L257.335 313.403L392.686 313.167L392.674 306.723Z" fill="#D1DCF8"/>
<path d="M392.7 323.103L364.979 323.161L364.993 329.605L392.714 329.547L392.7 323.103Z" fill="#D1DCF8"/>
<path d="M325.523 323.338L257.32 323.444L257.33 329.888L325.533 329.781L325.523 323.338Z" fill="#D1DCF8"/>
<path d="M220.153 325.327L215.305 320.494C215.132 320.329 214.993 320.13 214.897 319.911C214.801 319.691 214.75 319.454 214.747 319.215C214.744 318.975 214.79 318.738 214.88 318.516C214.971 318.294 215.105 318.092 215.275 317.923C215.445 317.753 215.647 317.62 215.87 317.529C216.092 317.439 216.331 317.394 216.571 317.397C216.811 317.4 217.049 317.451 217.269 317.546C217.489 317.642 217.688 317.781 217.854 317.954L221.428 321.515L229.474 313.494C229.814 313.17 230.268 312.992 230.739 312.998C231.209 313.003 231.659 313.192 231.991 313.524C232.324 313.855 232.514 314.303 232.519 314.772C232.525 315.242 232.347 315.694 232.022 316.034L222.702 325.327C222.364 325.664 221.905 325.853 221.428 325.853C220.95 325.853 220.491 325.664 220.153 325.327Z" fill="#13B1E2"/>
<path d="M91.0494 281.886H66.5403C65.0883 281.89 63.6961 282.463 62.6644 283.482C61.6327 284.5 61.0443 285.883 61.0264 287.331L60.1537 373.712C60.1455 374.424 60.2793 375.132 60.5473 375.792C60.8154 376.453 61.2123 377.054 61.7151 377.56C62.2179 378.066 62.8165 378.468 63.4763 378.742C64.136 379.016 64.8437 379.156 65.5583 379.155H90.0661C91.5178 379.152 92.9098 378.579 93.9415 377.56C94.9731 376.542 95.5617 375.159 95.58 373.712L96.4527 287.331C96.4611 286.618 96.3274 285.911 96.0596 285.25C95.7917 284.59 95.3949 283.989 94.8922 283.482C94.3896 282.976 93.791 282.574 93.1314 282.3C92.4717 282.026 91.764 281.885 91.0494 281.886Z" fill="#EF9B84"/>
<path d="M192.543 287.227C192.532 285.807 191.959 284.448 190.948 283.448C189.937 282.447 188.57 281.886 187.146 281.886H87.1379C85.686 281.89 84.2938 282.463 83.2621 283.482C82.2304 284.5 81.642 285.883 81.624 287.331L80.7513 373.712C80.7431 374.424 80.8767 375.13 81.1442 375.79C81.4118 376.45 81.808 377.051 82.31 377.557C82.8119 378.064 83.4096 378.466 84.0684 378.74C84.7273 379.014 85.4341 379.155 86.1481 379.155H187.658C188.386 379.153 189.106 379.008 189.777 378.728C190.449 378.448 191.058 378.039 191.57 377.523C192.082 377.008 192.488 376.397 192.763 375.725C193.037 375.053 193.177 374.334 193.172 373.608L192.543 287.227Z" fill="#FFAB90"/>
<path d="M123.096 281.886L122.767 314.488H150.609L150.938 281.886H123.096Z" fill="#EF9B84"/>
<path d="M98.3876 202.004H78.259C77.0667 202.006 75.9233 202.477 75.076 203.313C74.2287 204.15 73.7456 205.286 73.731 206.474L73.015 277.415C73.0078 278.001 73.1174 278.581 73.3374 279.124C73.5573 279.667 73.8833 280.161 74.2963 280.577C74.7093 280.993 75.2011 281.323 75.7431 281.547C76.2851 281.772 76.8665 281.887 77.4535 281.886H97.5807C98.773 281.883 99.9164 281.413 100.764 280.576C101.611 279.74 102.094 278.604 102.109 277.415L102.826 206.474C102.833 205.889 102.724 205.308 102.504 204.766C102.284 204.223 101.958 203.729 101.545 203.313C101.132 202.897 100.64 202.567 100.098 202.342C99.556 202.118 98.9746 202.002 98.3876 202.004Z" fill="#FFAB90"/>
<path d="M181.74 206.39C181.732 205.223 181.26 204.106 180.428 203.283C179.597 202.461 178.472 202.001 177.301 202.004H95.1666C93.9742 202.006 92.8308 202.477 91.9835 203.313C91.1362 204.15 90.6531 205.286 90.6386 206.474L89.9212 277.415C89.9141 278.001 90.0237 278.581 90.2436 279.124C90.4636 279.667 90.7895 280.161 91.2025 280.577C91.6155 280.993 92.1073 281.323 92.6493 281.547C93.1913 281.772 93.7727 281.887 94.3597 281.886H177.725C178.323 281.885 178.914 281.766 179.465 281.536C180.017 281.306 180.517 280.97 180.938 280.547C181.359 280.124 181.692 279.622 181.917 279.07C182.143 278.518 182.257 277.927 182.253 277.331L181.74 206.39Z" fill="#FEC9AC"/>
<path d="M124.707 202.004L124.436 228.779H147.301L147.572 202.004H124.707Z" fill="#FFAB90"/>
<path d="M334.677 250.647C337.528 257.899 353.478 259.224 353.478 259.224C353.478 259.224 375.119 304.877 399.284 304.934C415.888 304.974 431.315 271.619 431.315 271.619L411.847 265.126C410.324 266.156 397.111 281.744 397.111 281.744L359.721 246.139C359.721 246.139 355.298 227.222 352.202 230.359C349.204 233.348 351.956 239.499 352.177 240.013C351.343 239.278 332.716 223.13 331.463 227.492C330.161 231.926 341.219 239.198 341.219 239.198C341.219 239.198 331.834 243.418 334.677 250.647Z" fill="#F2C3B3"/>
<path d="M471.772 241.149C489.864 242.916 493.753 216.734 493.753 216.734C493.14 213.601 492.741 210.43 492.558 207.242C492.395 204.368 492.425 201.487 492.65 198.617L465.265 207.883C465.274 208.616 465.233 209.349 465.144 210.076C464.823 213.317 463.264 215.28 462.248 216.734C461.031 218.468 460.352 219.372 460.352 219.372C460.352 219.372 453.677 239.381 471.772 241.149Z" fill="#F4A998"/>
<path d="M478.647 167.744C479.261 167.813 490.613 193.34 491 193.34L503.474 184.004C503.474 184.004 512.982 174.268 508.289 163.342C503.62 152.417 489.58 146.072 489.58 146.072L478.391 155.27C478.391 155.27 478.054 167.655 478.647 167.744Z" fill="#20154F"/>
<path d="M453.868 158.307C457.497 152.662 468.809 150.92 478.984 154.5C486.97 157.305 491.19 177.035 491.943 189.085L492.645 189.07L493.722 185.232C494.263 183.303 495.512 181.566 497.335 180.725C498.991 179.962 500.889 180.016 502.573 182.405C507.777 189.803 496.79 194.627 496.79 194.627C496.79 194.627 488.235 214.345 468.693 211C449.152 207.656 446.614 169.598 453.868 158.307Z" fill="#F2C3B3"/>
<path d="M447.223 156.353V157.949C460.035 161.66 473.256 163.249 486.726 163.844C488.85 163.938 490.938 164.06 493.098 164.091C497.501 164.183 501.965 164.213 506.524 164.121C507.694 164.091 508.71 163.292 508.893 162.126C509.263 160.191 509.571 157.827 509.571 156.351C509.571 141.367 495.838 129.24 478.812 129.048C478.618 129.024 478.423 129.014 478.228 129.018H478.042C461.016 129.181 447.223 141.34 447.223 156.353Z" fill="#EA7D20"/>
<path d="M433.97 163.371C438.948 160.527 447.214 157.955 447.214 157.955C459.549 157.075 474.964 159.233 493.11 164.087C490.834 165.434 478.921 172.27 469.022 173.752C466.415 174.152 463.747 173.807 461.329 172.756C453.332 169.233 444.43 167.34 434.794 166.773C432.971 166.665 432.389 164.274 433.97 163.371Z" fill="#EE984F"/>
<path d="M431.746 382.752L417.609 249.056L429.765 232.657L462.409 222.179C464.469 229.292 468.098 235.216 474.61 238.954C484.37 237.078 490.152 231.472 492.016 222.179L526.218 232.657L538.375 249.056L524.239 382.752C493.409 392.4 462.578 392.4 431.746 382.752Z" fill="#EE984F"/>
<path d="M462.236 216.739C463.853 225.742 468.017 233.121 474.629 238.94L458.074 246.076L451.248 226.067L462.236 216.739Z" fill="#EA7D20"/>
<path d="M474.629 238.94L487.821 246.019L504.591 226.031L493.748 216.739C490.06 225.833 483.433 233.072 474.629 238.94Z" fill="#EA7D20"/>
<path d="M429.765 232.657C429.765 232.657 411.995 241.254 401.646 269.954C404.761 279.567 414.088 288.093 425.55 291.655C425.553 291.655 446.255 258 429.765 232.657Z" fill="#EE984F"/>
<path d="M495.597 314.647L501.363 314.733C501.363 314.733 497.659 307.654 494.109 307.757C490.672 307.86 494.996 314.144 495.597 314.647Z" fill="#F2C3B3"/>
<path d="M419.789 290.307L429.037 332.434C429.134 332.867 429.376 333.254 429.722 333.533C430.068 333.812 430.498 333.966 430.943 333.971L497.2 334.556C497.497 334.556 497.79 334.489 498.057 334.361C498.324 334.233 498.56 334.047 498.746 333.816C498.932 333.586 499.064 333.317 499.132 333.029C499.201 332.742 499.204 332.442 499.142 332.153L489.894 290.054C489.798 289.621 489.557 289.232 489.211 288.953C488.864 288.674 488.433 288.521 487.988 288.519L421.735 287.932C421.44 287.928 421.147 287.991 420.879 288.115C420.611 288.24 420.375 288.423 420.188 288.651C420.001 288.879 419.868 289.147 419.799 289.433C419.73 289.72 419.726 290.018 419.789 290.307Z" fill="#20154F"/>
<path d="M465.035 317.253C467.569 314.557 467.125 310.038 464.045 307.16C460.964 304.283 456.414 304.136 453.881 306.833C451.347 309.53 451.791 314.048 454.871 316.926C457.952 319.803 462.502 319.95 465.035 317.253Z" fill="#38297A"/>
<path d="M480.47 317.964C479.668 331.615 498.17 327.195 498.17 327.195C498.17 327.195 543.86 330.414 558.397 316.468V316.437C565.263 309.916 564.594 300.177 561.425 291.235C558.243 282.377 553.043 271.557 553.043 271.557C549.635 278.44 546.143 282.536 532.515 289.218L540.075 305.584L500.789 314.573L495.595 314.652C494.921 314.289 480.987 309.522 480.47 317.964Z" fill="#F2C3B3"/>
<path d="M526.219 232.657C526.219 232.657 543.989 241.254 554.339 269.954C551.223 279.567 541.897 288.093 530.434 291.655C530.434 291.655 509.73 258 526.219 232.657Z" fill="#EE984F"/>
<path d="M456.639 185.824C457.585 185.824 458.352 184.554 458.352 182.988C458.352 181.421 457.585 180.151 456.639 180.151C455.692 180.151 454.925 181.421 454.925 182.988C454.925 184.554 455.692 185.824 456.639 185.824Z" fill="#20154F"/>
<path d="M473.431 186.068C474.377 186.068 475.144 184.799 475.144 183.232C475.144 181.665 474.377 180.395 473.431 180.395C472.484 180.395 471.717 181.665 471.717 183.232C471.717 184.799 472.484 186.068 473.431 186.068Z" fill="#20154F"/>
<path d="M459.085 175.369C458.375 174.852 457.528 174.556 456.65 174.516C455.772 174.476 454.902 174.695 454.148 175.145C454.022 175.22 453.871 175.242 453.729 175.206C453.587 175.17 453.464 175.079 453.389 174.953C453.314 174.827 453.292 174.677 453.328 174.535C453.365 174.394 453.456 174.272 453.582 174.197C454.522 173.637 455.607 173.365 456.701 173.415C457.796 173.465 458.851 173.835 459.737 174.478C459.855 174.564 459.934 174.694 459.957 174.838C459.98 174.983 459.944 175.13 459.858 175.249C459.771 175.367 459.641 175.446 459.496 175.468C459.351 175.491 459.203 175.455 459.085 175.369Z" fill="#20154F"/>
<path d="M473.446 201.508C473.454 207.341 464.533 208.442 462.41 201.97C465.549 203.539 470.62 202.886 473.446 201.508Z" fill="#20154F"/>
<path d="M462.277 192.032C463.581 189.681 463.925 185.816 463.929 185.777C463.931 185.704 463.949 185.632 463.982 185.566C464.014 185.5 464.06 185.441 464.116 185.394C464.172 185.347 464.238 185.312 464.309 185.291C464.379 185.271 464.453 185.266 464.526 185.276C464.599 185.282 464.669 185.302 464.734 185.335C464.798 185.369 464.855 185.415 464.902 185.47C464.949 185.526 464.984 185.59 465.006 185.659C465.028 185.728 465.036 185.801 465.029 185.873C465.015 186.041 464.663 190.008 463.244 192.567C461.113 196.409 463.113 197.282 467.352 195.905C467.492 195.86 467.644 195.872 467.775 195.939C467.905 196.005 468.004 196.121 468.049 196.26C468.095 196.4 468.082 196.551 468.016 196.681C467.949 196.812 467.833 196.91 467.693 196.955C461.708 198.903 459.984 196.172 462.277 192.032Z" fill="#20154F"/>
<path d="M476.71 177.539C476.026 176.99 475.194 176.653 474.32 176.572C473.445 176.49 472.565 176.666 471.79 177.078C471.726 177.116 471.654 177.14 471.58 177.15C471.506 177.159 471.431 177.154 471.36 177.134C471.288 177.113 471.221 177.079 471.163 177.032C471.105 176.985 471.057 176.928 471.022 176.862C470.987 176.796 470.965 176.724 470.959 176.65C470.953 176.576 470.961 176.501 470.985 176.431C471.008 176.36 471.045 176.295 471.095 176.239C471.144 176.183 471.204 176.138 471.271 176.106C472.238 175.591 473.335 175.372 474.425 175.474C475.516 175.576 476.552 175.997 477.405 176.682C477.515 176.775 477.584 176.907 477.598 177.051C477.611 177.194 477.568 177.337 477.477 177.449C477.387 177.561 477.256 177.633 477.112 177.65C476.969 177.667 476.825 177.627 476.71 177.539Z" fill="#20154F"/>
<path d="M558.005 379.155H7.99249C3.60964 379.155 0.0566406 382.699 0.0566406 387.069V387.086C0.0566406 391.457 3.60964 395 7.99249 395H558.005C562.388 395 565.941 391.457 565.941 387.086V387.069C565.941 382.699 562.388 379.155 558.005 379.155Z" fill="#D1DCF8"/>
</svg>
