<svg width="666" height="394" viewBox="0 0 666 394" fill="none" xmlns="http://www.w3.org/2000/svg">
<path d="M337.638 38.82C315.601 84.1214 436.8 96.1057 473.695 87.9145C523.822 76.7866 484.141 35.044 447.214 21.9193C408.611 8.19828 351.513 10.2972 337.638 38.82Z" fill="#FFF7E3"/>
<path d="M561.779 392.121C632.829 352.5 670.426 265.473 644.772 188.12C628.409 138.776 582.898 88.7126 525.418 89.7607C489.253 90.4182 455.416 101.508 418.723 98.625C378.935 95.5007 344.338 79.9889 319.787 69.9047C278.004 52.7428 281.096 47.6091 258.04 40.8735C192.207 21.6339 129.604 52.5525 120.888 57.0073C65.5266 85.3044 40.8898 131.775 32.6069 150.152C-3.31262 229.846 19.2087 333.955 76.5718 392.121H561.779Z" fill="#FFF7E3"/>
<path d="M647.246 324.233C647.047 324.232 646.851 324.184 646.675 324.092C646.498 324 646.346 323.868 646.232 323.705C646.117 323.543 646.043 323.355 646.016 323.158C645.989 322.961 646.01 322.76 646.076 322.573C668.582 259.931 669.345 206.001 648.351 162.281C634.267 132.966 612.787 113.998 597.248 103.252C580.415 91.6068 566.786 86.8565 566.651 86.8097C566.492 86.7602 566.345 86.6795 566.218 86.5722C566.091 86.4649 565.987 86.3333 565.912 86.1851C565.837 86.0369 565.793 85.8752 565.781 85.7096C565.77 85.5439 565.792 85.3776 565.846 85.2206C565.9 85.0636 565.985 84.919 566.096 84.7955C566.208 84.6719 566.342 84.5719 566.493 84.5013C566.643 84.4307 566.806 84.391 566.973 84.3846C567.139 84.3781 567.304 84.405 567.46 84.4637C567.602 84.5105 581.55 89.3758 598.662 101.211C608.597 108.063 617.736 115.998 625.912 124.871C635.885 135.703 644.202 147.948 650.592 161.208C660.317 181.456 665.491 204.184 665.97 228.765C666.532 257.593 660.629 289.438 648.423 323.411C648.336 323.653 648.176 323.862 647.966 324.009C647.755 324.156 647.503 324.234 647.246 324.233Z" fill="#FFF7E3"/>
<path d="M1.24411 230.983H1.15454C0.826003 230.959 0.520366 230.806 0.304538 230.558C0.0887091 230.309 -0.0197291 229.985 0.00295999 229.657C2.77814 190.604 12.2553 155.918 28.1699 126.578C40.9141 103.083 57.7883 82.947 78.3235 66.7308C96.5939 52.3039 114.448 43.7151 126.197 39.0529C138.958 33.9888 147.279 32.3642 147.628 32.2975C147.951 32.2355 148.286 32.3046 148.559 32.4894C148.832 32.6742 149.02 32.9597 149.082 33.283C149.144 33.6064 149.075 33.9411 148.89 34.2135C148.705 34.486 148.419 34.6738 148.095 34.7358C148.011 34.7514 139.589 36.4002 127.01 41.4018C115.409 46.0115 97.7953 54.5008 79.7694 68.7545C47.9444 93.9173 8.7024 142.295 2.48242 229.83C2.45981 230.143 2.31961 230.436 2.08993 230.649C1.86026 230.863 1.55811 230.983 1.24411 230.983Z" fill="#FFF7E3"/>
<path d="M82.8087 340.916C82.1263 340.111 82.2727 338.857 83.1328 338.116C83.9958 337.372 85.2455 337.426 85.9279 338.231C86.6118 339.038 86.4682 340.293 85.6052 341.031C84.782 341.742 83.5963 341.722 82.904 341.009C82.867 340.982 82.8386 340.952 82.8087 340.916Z" fill="#FFA383"/>
<path d="M72.5284 327.553C71.9256 326.684 72.1787 325.439 73.0971 324.773C74.0127 324.104 75.2482 324.264 75.8538 325.131C76.4566 326 76.2036 327.245 75.2851 327.914C74.4549 328.52 73.3644 328.442 72.7175 327.78C72.6489 327.71 72.5857 327.634 72.5284 327.553Z" fill="#FFA383"/>
<path d="M63.5287 313.253C63.0056 312.331 63.3681 311.103 64.332 310.515C65.2988 309.925 66.5072 310.194 67.0333 311.118C67.555 312.043 67.1939 313.268 66.2257 313.858C65.8561 314.099 65.4154 314.207 64.9761 314.164C64.5369 314.121 64.1252 313.931 63.8088 313.623C63.6999 313.512 63.6057 313.388 63.5287 313.253Z" fill="#FFA383"/>
<path d="M55.8971 298.114C55.4706 297.143 55.9312 295.944 56.9407 295.442C57.9529 294.936 59.123 295.315 59.5552 296.294C59.9817 297.265 59.5211 298.464 58.5117 298.966C58.1495 299.16 57.7351 299.232 57.3286 299.175C56.9222 299.117 56.5447 298.931 56.2511 298.644C56.1027 298.49 55.9829 298.31 55.8971 298.114Z" fill="#FFA383"/>
<path d="M49.728 282.242C49.3896 281.227 49.964 280.069 51.0075 279.656C52.051 279.241 53.1728 279.731 53.5111 280.747C53.8509 281.759 53.2766 282.916 52.2316 283.331C51.883 283.478 51.4985 283.518 51.127 283.447C50.7554 283.375 50.4135 283.195 50.1445 282.929C49.9554 282.735 49.813 282.5 49.728 282.242Z" fill="#FFA383"/>
<path d="M45.1018 265.754C44.8658 264.704 45.5397 263.6 46.6131 263.282C47.685 262.965 48.7456 263.566 48.9873 264.61C49.2276 265.658 48.5508 266.764 47.4789 267.079C47.1487 267.184 46.796 267.196 46.4594 267.114C46.1229 267.032 45.8155 266.859 45.5709 266.614C45.3388 266.375 45.1765 266.078 45.1018 265.754Z" fill="#FFA383"/>
<path d="M42.1064 248.784C42.053 248.25 42.2008 247.715 42.521 247.283C42.8411 246.852 43.3107 246.555 43.838 246.451C44.9285 246.238 45.9223 246.935 46.0559 248.013C46.1096 248.547 45.9619 249.083 45.6417 249.514C45.3215 249.946 44.8518 250.242 44.3243 250.346C44.018 250.412 43.7003 250.399 43.4002 250.31C43.1001 250.22 42.8273 250.057 42.6068 249.835C42.3281 249.55 42.1521 249.18 42.1064 248.784Z" fill="#FFA383"/>
<path d="M40.8145 231.477C40.8112 230.94 41.0083 230.421 41.3672 230.02C41.7262 229.62 42.2214 229.367 42.7565 229.312C43.0103 229.282 43.2675 229.305 43.5115 229.381C43.7555 229.456 43.9808 229.583 44.1728 229.751C44.3648 229.919 44.5192 230.126 44.626 230.358C44.7327 230.59 44.7894 230.842 44.7924 231.097C44.7943 231.634 44.5966 232.153 44.2376 232.552C43.8785 232.952 43.3837 233.205 42.849 233.261C42.5715 233.291 42.2908 233.258 42.0277 233.165C41.7647 233.072 41.5259 232.921 41.3292 232.723C41.0051 232.388 40.821 231.943 40.8145 231.477Z" fill="#FFA383"/>
<path d="M41.3001 213.982C41.3484 213.447 41.5943 212.949 41.9898 212.585C42.3852 212.221 42.9021 212.018 43.4397 212.013C43.6943 212.011 43.9464 212.062 44.1798 212.164C44.4132 212.265 44.6227 212.415 44.7947 212.602C44.9667 212.789 45.0973 213.011 45.1781 213.252C45.2589 213.493 45.2881 213.748 45.2638 214.002C45.2154 214.537 44.9695 215.035 44.5737 215.399C44.1779 215.763 43.6607 215.967 43.1227 215.971C42.8785 215.972 42.6366 215.924 42.4113 215.83C42.1859 215.736 41.9816 215.598 41.8105 215.424C41.6271 215.234 41.4866 215.007 41.3986 214.758C41.3105 214.509 41.2769 214.245 41.3001 213.982Z" fill="#FFA383"/>
<path d="M43.6288 196.497C43.7299 195.971 44.0237 195.5 44.4528 195.178C44.8819 194.856 45.4158 194.704 45.9504 194.753C46.2046 194.781 46.4501 194.862 46.671 194.99C46.892 195.119 47.0834 195.292 47.233 195.499C47.3826 195.706 47.487 195.943 47.5393 196.193C47.5917 196.442 47.5909 196.701 47.5371 196.95C47.4361 197.478 47.1416 197.95 46.7112 198.272C46.2808 198.595 45.7454 198.745 45.2097 198.694C44.7919 198.65 44.4022 198.463 44.1065 198.164C43.8977 197.946 43.7452 197.68 43.662 197.39C43.5787 197.099 43.5674 196.793 43.6288 196.497Z" fill="#FFA383"/>
<path d="M47.8524 179.23C48.1751 178.162 49.2869 177.496 50.3361 177.742C51.3882 177.988 51.9768 179.051 51.6541 180.118C51.3285 181.187 50.2167 181.853 49.1646 181.606C48.8287 181.53 48.5217 181.359 48.2803 181.113C48.0456 180.867 47.8819 180.562 47.8066 180.231C47.7312 179.899 47.7471 179.553 47.8524 179.23Z" fill="#FFA383"/>
<path d="M53.9916 162.406C54.4338 161.378 55.6067 160.844 56.6147 161.205C57.617 161.573 58.0734 162.706 57.6298 163.74C57.1891 164.771 56.0119 165.312 55.0082 164.941C54.7554 164.851 54.526 164.705 54.3371 164.515C54.0757 164.238 53.9031 163.889 53.8415 163.513C53.7799 163.138 53.8322 162.752 53.9916 162.406Z" fill="#FFA383"/>
<path d="M62.027 146.281C62.5886 145.302 63.8099 144.903 64.7553 145.39C65.6979 145.879 66.0093 147.07 65.4491 148.049C64.8904 149.03 63.6691 149.429 62.7265 148.941C62.5548 148.853 62.3983 148.738 62.2631 148.6C61.9766 148.292 61.7986 147.898 61.756 147.48C61.7134 147.061 61.8086 146.641 62.027 146.281Z" fill="#FFA383"/>
<path d="M71.9089 131.094C72.5799 130.181 73.8282 129.933 74.6954 130.538C75.567 131.141 75.729 132.371 75.0537 133.287C74.3841 134.201 73.1344 134.449 72.2629 133.845C72.1716 133.779 72.086 133.705 72.007 133.625C71.3701 132.976 71.3089 131.911 71.9089 131.094Z" fill="#FFA383"/>
<path d="M83.4945 117.103C84.2679 116.267 85.5289 116.17 86.3095 116.885C87.0886 117.595 87.0942 118.849 86.3208 119.679C85.5474 120.512 84.2878 120.608 83.5058 119.898L83.4362 119.826C82.7282 119.103 82.7438 117.906 83.4945 117.103Z" fill="#FFA383"/>
<path d="M96.2833 107.302C95.6037 106.494 95.7487 105.24 96.6117 104.501C97.4747 103.761 98.7244 103.815 99.4039 104.625C100.085 105.433 99.9385 106.687 99.0755 107.425C98.2481 108.135 97.0667 108.116 96.3743 107.401C96.3421 107.37 96.3117 107.337 96.2833 107.302Z" fill="#FFA383"/>
<path d="M110.398 96.2463C109.829 95.3573 110.126 94.1161 111.066 93.4828C112.007 92.8466 113.23 93.0567 113.799 93.9514C114.367 94.8447 114.069 96.0816 113.129 96.7149C112.302 97.283 111.255 97.1779 110.628 96.536C110.541 96.448 110.464 96.3509 110.398 96.2463Z" fill="#FFA383"/>
<path d="M125.637 86.9105C125.188 85.9463 125.637 84.7449 126.633 84.2237C127.628 83.7025 128.812 84.0618 129.263 85.026C129.712 85.9903 129.263 87.1931 128.267 87.7129C127.904 87.915 127.484 87.9943 127.072 87.9387C126.659 87.8832 126.276 87.6959 125.979 87.4047C125.837 87.2606 125.722 87.0935 125.637 86.9105Z" fill="#FFA383"/>
<path d="M141.77 79.4024C141.443 78.3856 142.028 77.2339 143.076 76.8292C144.126 76.4273 145.239 76.93 145.569 77.9482C145.895 78.9664 145.311 80.1181 144.263 80.5229C143.916 80.6642 143.536 80.7007 143.169 80.6277C142.802 80.5547 142.464 80.3756 142.198 80.1125C142.003 79.9119 141.856 79.6689 141.77 79.4024Z" fill="#FFA383"/>
<path d="M158.539 73.7901C158.335 72.7307 159.045 71.6415 160.125 71.3603C161.203 71.0763 162.244 71.7083 162.447 72.7691C162.653 73.8257 161.944 74.9149 160.863 75.1946C160.54 75.2853 160.198 75.2884 159.874 75.2035C159.549 75.1187 159.252 74.9489 159.015 74.7118C158.769 74.4583 158.603 74.1376 158.539 73.7901Z" fill="#FFA383"/>
<path d="M175.704 70.0695C175.675 69.5331 175.847 69.005 176.186 68.5883C176.525 68.1716 177.008 67.8962 177.54 67.8158C177.791 67.7711 178.05 67.7799 178.298 67.8416C178.545 67.9032 178.778 68.0164 178.979 68.1737C179.18 68.331 179.346 68.5289 179.465 68.7545C179.585 68.9801 179.655 69.2283 179.672 69.483C179.702 70.0192 179.531 70.5473 179.192 70.9644C178.853 71.3815 178.371 71.6578 177.84 71.7395C177.546 71.7866 177.246 71.7632 176.963 71.6714C176.681 71.5795 176.424 71.4218 176.215 71.2112C175.915 70.9027 175.734 70.4983 175.704 70.0695Z" fill="#FFA383"/>
<path d="M193.043 68.2219C193.067 67.685 193.291 67.1762 193.669 66.7945C194.048 66.4127 194.555 66.185 195.093 66.1557C195.347 66.1407 195.603 66.1793 195.841 66.2691C196.08 66.3589 196.298 66.4977 196.479 66.6767C196.661 66.8557 196.803 67.0708 196.896 67.3081C196.99 67.5454 197.032 67.7997 197.021 68.0543C196.995 68.5909 196.771 69.099 196.392 69.4801C196.013 69.8613 195.506 70.0885 194.969 70.1178C194.709 70.1329 194.448 70.0923 194.205 69.9988C193.962 69.9052 193.741 69.7608 193.559 69.5753C193.385 69.3964 193.25 69.1842 193.162 68.9515C193.073 68.7189 193.032 68.4707 193.043 68.2219Z" fill="#FFA383"/>
<path d="M210.351 68.1878C210.427 67.6562 210.698 67.1716 211.111 66.828C211.524 66.4845 212.05 66.3067 212.587 66.3289C212.842 66.3421 213.092 66.4087 213.319 66.5243C213.547 66.6399 213.747 66.802 213.908 67C214.069 67.198 214.187 67.4275 214.253 67.6737C214.319 67.92 214.333 68.1773 214.294 68.4292C214.221 68.9627 213.951 69.4498 213.537 69.795C213.124 70.1402 212.596 70.3186 212.057 70.2953C211.601 70.2728 211.169 70.0796 210.849 69.7542C210.651 69.5487 210.504 69.3005 210.417 69.0289C210.331 68.7573 210.308 68.4695 210.351 68.1878Z" fill="#FFA383"/>
<path d="M227.447 69.909C227.569 69.3871 227.882 68.9296 228.324 68.626C228.766 68.3224 229.306 68.1945 229.838 68.2674C230.908 68.442 231.568 69.4602 231.316 70.5395C231.059 71.6202 229.99 72.3558 228.919 72.1812C228.535 72.1206 228.181 71.9378 227.909 71.66C227.689 71.4315 227.531 71.1507 227.45 70.8443C227.369 70.5379 227.368 70.216 227.447 69.909Z" fill="#FFA383"/>
<path d="M244.167 73.3002C244.52 72.2437 245.652 71.6074 246.691 71.8801C247.732 72.157 248.288 73.2406 247.932 74.3014C247.577 75.3622 246.446 75.9927 245.404 75.7215C245.091 75.6378 244.806 75.4716 244.578 75.2401C244.337 74.9866 244.17 74.6709 244.098 74.3283C244.025 73.9858 244.049 73.6298 244.167 73.3002Z" fill="#FFA383"/>
<path d="M260.372 78.289C260.826 77.2595 262.002 76.7269 263.004 77.1075C263.999 77.481 264.453 78.6185 263.999 79.6495C263.549 80.6762 262.368 81.2116 261.368 80.831C261.12 80.7395 260.896 80.594 260.712 80.405C260.45 80.1266 260.278 79.7762 260.218 79.3991C260.157 79.0219 260.211 78.6353 260.372 78.289Z" fill="#FFA383"/>
<path d="M275.936 84.7903C276.479 83.7962 277.692 83.3702 278.646 83.8431C279.606 84.3117 279.94 85.4947 279.4 86.4831C278.861 87.4771 277.648 87.9032 276.69 87.4303C276.505 87.3403 276.337 87.2193 276.194 87.0724C275.912 86.7698 275.734 86.3847 275.688 85.9738C275.642 85.5629 275.729 85.148 275.936 84.7903Z" fill="#FFA383"/>
<path d="M290.74 92.7173C291.366 91.773 292.604 91.4548 293.508 92.0073C294.414 92.5597 294.646 93.7767 294.015 94.7211C293.395 95.6655 292.155 95.9807 291.248 95.4311C291.122 95.3537 291.007 95.2612 290.904 95.1556C290.297 94.5351 290.206 93.5268 290.74 92.7173Z" fill="#FFA383"/>
<path d="M304.673 101.979C305.373 101.089 306.628 100.88 307.473 101.515C308.319 102.151 308.437 103.391 307.734 104.283C307.035 105.173 305.779 105.382 304.934 104.746C304.86 104.692 304.791 104.632 304.727 104.567C304.08 103.898 304.038 102.794 304.673 101.979Z" fill="#FFA383"/>
<path d="M317.657 112.484C318.427 111.65 319.688 111.548 320.471 112.261C321.253 112.971 321.261 114.219 320.489 115.058C319.717 115.889 318.459 115.989 317.677 115.279C317.649 115.254 317.625 115.229 317.601 115.205C316.898 114.483 316.912 113.29 317.657 112.484Z" fill="#FFA383"/>
<path d="M333.099 13.4015C333.099 6.00008 327.092 0 319.682 0C312.272 0 306.266 6.00008 306.266 13.4015C306.266 20.803 312.272 26.8031 319.682 26.8031C327.092 26.8031 333.099 20.803 333.099 13.4015Z" fill="#FDDAB9"/>
<path d="M333.099 60.3503C333.099 52.9488 327.092 46.9487 319.682 46.9487C312.272 46.9487 306.266 52.9488 306.266 60.3503C306.266 67.7517 312.272 73.7518 319.682 73.7518C327.092 73.7518 333.099 67.7517 333.099 60.3503Z" fill="#FDDAB9"/>
<path d="M333.099 107.369C333.099 99.9671 327.092 93.967 319.682 93.967C312.272 93.967 306.266 99.9671 306.266 107.369C306.266 114.77 312.272 120.77 319.682 120.77C327.092 120.77 333.099 114.77 333.099 107.369Z" fill="#FDDAB9"/>
<path d="M335.459 0.681651L320.016 16.1083C319.8 16.3244 319.543 16.4959 319.26 16.6129C318.978 16.7299 318.675 16.7901 318.369 16.7901C318.063 16.7901 317.76 16.7299 317.477 16.6129C317.194 16.4959 316.937 16.3244 316.721 16.1083L306.769 6.16752C306.553 5.95137 306.296 5.7799 306.013 5.66292C305.73 5.54593 305.427 5.48572 305.121 5.48572C304.815 5.48572 304.512 5.54593 304.229 5.66292C303.947 5.7799 303.69 5.95137 303.473 6.16752C303.257 6.38354 303.085 6.64001 302.968 6.9223C302.851 7.20459 302.791 7.50716 302.791 7.81272C302.791 8.11828 302.851 8.42084 302.968 8.70313C303.085 8.98542 303.257 9.24189 303.473 9.45791L315.073 21.0446L316.721 22.6905C316.937 22.9066 317.194 23.0781 317.477 23.1951C317.76 23.312 318.063 23.3723 318.369 23.3723C318.675 23.3723 318.978 23.312 319.26 23.1951C319.543 23.0781 319.8 22.9066 320.016 22.6905L321.663 21.0446L338.755 3.9763C338.971 3.76028 339.143 3.50381 339.26 3.22152C339.377 2.93923 339.437 2.63666 339.437 2.3311C339.437 2.02555 339.377 1.72298 339.26 1.44069C339.143 1.1584 338.971 0.901927 338.755 0.685911C338.539 0.469476 338.282 0.297679 337.999 0.180329C337.717 0.0629801 337.414 0.00237739 337.108 0.00198178C336.802 0.00158617 336.499 0.0614054 336.216 0.178024C335.933 0.294642 335.676 0.465775 335.459 0.681651Z" fill="#FF895E"/>
<path d="M174.77 79.3683L245.222 79.3683C249.463 79.3683 252.9 75.9344 252.9 71.6983V7.67C252.9 3.43398 249.463 0 245.222 0L174.77 0C170.53 0 167.092 3.43398 167.092 7.67V71.6983C167.092 75.9344 170.53 79.3683 174.77 79.3683Z" fill="#FDD4AC"/>
<path d="M209.997 71.8006C227.755 71.8006 242.151 57.4213 242.151 39.6835C242.151 21.9457 227.755 7.56633 209.997 7.56633C192.239 7.56633 177.844 21.9457 177.844 39.6835C177.844 57.4213 192.239 71.8006 209.997 71.8006Z" fill="white"/>
<path d="M209.998 39.6835L181.064 25.6741C184.149 19.3159 189.246 14.1514 195.567 10.9809C201.888 7.81034 209.08 6.81082 216.027 8.13721L209.998 39.6835Z" fill="#ADE0C1"/>
<path d="M209.998 39.6835L215.927 8.11733C220.406 8.9568 224.655 10.7377 228.392 13.342C232.13 15.9462 235.271 19.3143 237.606 23.223L209.998 39.6835Z" fill="#FFB196"/>
<path d="M209.998 39.6835L237.606 23.223C239.79 26.8741 241.225 30.9224 241.829 35.1324C242.432 39.3424 242.192 43.6303 241.122 47.7468L209.998 39.6835Z" fill="#B3C9F5"/>
<path d="M371.103 19.4739C370.514 19.4845 369.929 19.3778 369.383 19.1601C368.836 18.9424 368.338 18.6181 367.918 18.2061C367.498 17.794 367.164 17.3026 366.937 16.7604C366.709 16.2182 366.592 15.6361 366.592 15.0482C366.592 14.4602 366.709 13.8781 366.937 13.3359C367.164 12.7937 367.498 12.3023 367.918 11.8903C368.338 11.4783 368.836 11.1539 369.383 10.9362C369.929 10.7186 370.514 10.6119 371.103 10.6224H461.748C462.337 10.6119 462.921 10.7186 463.468 10.9362C464.015 11.1539 464.513 11.4783 464.933 11.8903C465.353 12.3023 465.686 12.7937 465.914 13.3359C466.142 13.8781 466.259 14.4602 466.259 15.0482C466.259 15.6361 466.142 16.2182 465.914 16.7604C465.686 17.3026 465.353 17.794 464.933 18.2061C464.513 18.6181 464.015 18.9424 463.468 19.1601C462.921 19.3778 462.337 19.4845 461.748 19.4739H371.103Z" fill="#FF9B78"/>
<path d="M371.103 56.0942C370.514 56.1047 369.929 55.998 369.383 55.7804C368.836 55.5627 368.338 55.2383 367.918 54.8263C367.498 54.4143 367.164 53.9229 366.937 53.3807C366.709 52.8385 366.592 52.2564 366.592 51.6684C366.592 51.0805 366.709 50.4984 366.937 49.9562C367.164 49.414 367.498 48.9226 367.918 48.5105C368.338 48.0985 368.836 47.7742 369.383 47.5565C369.929 47.3388 370.514 47.2321 371.103 47.2427H488.153C489.315 47.2635 490.422 47.7389 491.236 48.5666C492.049 49.3943 492.506 50.5082 492.506 51.6684C492.506 52.8287 492.049 53.9425 491.236 54.7703C490.422 55.598 489.315 56.0734 488.153 56.0942H371.103Z" fill="#FF9B78"/>
<path d="M481.692 19.4739C481.103 19.4845 480.518 19.3778 479.971 19.1601C479.425 18.9424 478.927 18.6181 478.507 18.2061C478.087 17.794 477.753 17.3026 477.526 16.7604C477.298 16.2182 477.181 15.6361 477.181 15.0482C477.181 14.4602 477.298 13.8781 477.526 13.3359C477.753 12.7937 478.087 12.3023 478.507 11.8903C478.927 11.4783 479.425 11.1539 479.971 10.9362C480.518 10.7186 481.103 10.6119 481.692 10.6224H535.061C536.222 10.6432 537.329 11.1186 538.143 11.9463C538.957 12.7741 539.413 13.8879 539.413 15.0482C539.413 16.2084 538.957 17.3223 538.143 18.15C537.329 18.9777 536.222 19.4531 535.061 19.4739H481.692Z" fill="#FF9B78"/>
<path d="M371.103 74.4136C370.514 74.4241 369.929 74.3174 369.383 74.0997C368.836 73.882 368.338 73.5577 367.918 73.1457C367.498 72.7337 367.164 72.2422 366.937 71.7001C366.709 71.1579 366.592 70.5758 366.592 69.9878C366.592 69.3999 366.709 68.8178 366.937 68.2756C367.164 67.7334 367.498 67.2419 367.918 66.8299C368.338 66.4179 368.836 66.0936 369.383 65.8759C369.929 65.6582 370.514 65.5515 371.103 65.5621H424.472C425.634 65.5828 426.74 66.0583 427.554 66.886C428.368 67.7137 428.824 68.8276 428.824 69.9878C428.824 71.1481 428.368 72.2619 427.554 73.0896C426.74 73.9174 425.634 74.3928 424.472 74.4136H371.103Z" fill="#FF9B78"/>
<path d="M444.414 110.078C443.252 110.057 442.145 109.582 441.332 108.754C440.518 107.926 440.062 106.813 440.062 105.652C440.062 104.492 440.518 103.378 441.332 102.551C442.145 101.723 443.252 101.247 444.414 101.227H535.06C536.222 101.247 537.329 101.723 538.143 102.551C538.956 103.378 539.413 104.492 539.413 105.652C539.413 106.813 538.956 107.926 538.143 108.754C537.329 109.582 536.222 110.057 535.06 110.078H444.414Z" fill="#FF9B78"/>
<path d="M371.103 110.078C370.514 110.089 369.929 109.982 369.383 109.764C368.836 109.547 368.338 109.222 367.918 108.81C367.498 108.398 367.164 107.907 366.937 107.365C366.709 106.822 366.592 106.24 366.592 105.652C366.592 105.064 366.709 104.482 366.937 103.94C367.164 103.398 367.498 102.906 367.918 102.494C368.338 102.082 368.836 101.758 369.383 101.54C369.929 101.323 370.514 101.216 371.103 101.227H424.471C425.059 101.216 425.644 101.323 426.191 101.54C426.738 101.758 427.236 102.082 427.655 102.494C428.075 102.906 428.409 103.398 428.637 103.94C428.864 104.482 428.982 105.064 428.982 105.652C428.982 106.24 428.864 106.822 428.637 107.365C428.409 107.907 428.075 108.398 427.655 108.81C427.236 109.222 426.738 109.547 426.191 109.764C425.644 109.982 425.059 110.089 424.471 110.078H371.103Z" fill="#FF9B78"/>
<path d="M211.531 341.678C211.486 341.571 211.485 341.452 211.527 341.344C211.57 341.237 211.653 341.151 211.759 341.105C211.865 341.058 211.985 341.056 212.093 341.097C212.2 341.138 212.288 341.22 212.335 341.325C220.365 359.645 226.112 375.408 230.887 391.192H229.97C225.219 375.52 219.502 359.863 211.531 341.678Z" fill="#8DC7A3"/>
<path d="M221.786 364.571C225.943 360.28 229.541 354.247 231.003 348.425C231.371 346.956 231.584 345.397 231.172 343.94C230.759 342.483 229.594 341.159 228.095 340.943C226.737 340.747 225.375 341.487 224.5 342.542C223.624 343.598 223.158 344.924 222.781 346.235C221.288 351.451 220.947 356.968 221.515 362.364C221.592 363.039 221.656 363.914 221.786 364.571Z" fill="#8DC7A3"/>
<path d="M221.359 364.659C221.251 364.125 221.187 363.466 221.13 362.886C221.115 362.722 221.099 362.565 221.083 362.417C220.479 356.681 220.91 351.198 222.363 346.121C222.745 344.783 223.229 343.392 224.167 342.263C225.232 340.985 226.763 340.307 228.162 340.509C229.726 340.735 231.099 342.071 231.597 343.821C232.082 345.525 231.739 347.325 231.432 348.531C230.01 354.211 226.52 360.318 222.104 364.876C222.048 364.934 221.978 364.974 221.901 364.995C221.824 365.015 221.743 365.014 221.666 364.992C221.59 364.969 221.52 364.927 221.466 364.868C221.412 364.809 221.375 364.737 221.359 364.659ZM228.041 341.377C226.727 341.186 225.529 341.999 224.846 342.822C224.012 343.826 223.567 345.117 223.212 346.363C221.79 351.333 221.363 356.702 221.96 362.326C221.976 362.468 221.992 362.636 222.009 362.802C222.034 363.064 222.061 363.343 222.093 363.615C226.113 359.243 229.262 353.587 230.586 348.318C230.863 347.21 231.184 345.563 230.758 344.058C230.525 343.232 230.043 342.499 229.377 341.957C228.99 341.651 228.529 341.451 228.041 341.377Z" fill="#8DC7A3"/>
<path d="M230.274 388.916C234.431 384.624 238.028 378.592 239.491 372.769C239.859 371.301 240.072 369.74 239.66 368.285C239.248 366.829 238.082 365.504 236.583 365.288C235.226 365.091 233.864 365.832 232.988 366.887C232.112 367.942 231.646 369.269 231.269 370.58C229.776 375.797 229.435 381.314 230.004 386.711C230.075 387.384 230.139 388.257 230.274 388.916Z" fill="#8DC7A3"/>
<path d="M229.843 389.004C229.735 388.47 229.671 387.811 229.615 387.23C229.599 387.067 229.583 386.909 229.568 386.762C228.963 381.026 229.394 375.543 230.847 370.466C231.23 369.128 231.713 367.737 232.65 366.608C233.716 365.329 235.247 364.652 236.646 364.854C238.21 365.08 239.584 366.416 240.083 368.165C240.566 369.87 240.225 371.67 239.916 372.876C238.495 378.556 235.004 384.663 230.588 389.221C230.533 389.279 230.463 389.32 230.386 389.34C230.308 389.361 230.227 389.359 230.151 389.336C230.099 389.32 230.051 389.295 230.008 389.263C229.924 389.199 229.866 389.107 229.843 389.004ZM236.525 365.714C235.213 365.524 234.015 366.336 233.332 367.16C232.498 368.164 232.053 369.455 231.697 370.699C230.276 375.669 229.849 381.04 230.446 386.662C230.462 386.813 230.478 386.973 230.495 387.138C230.52 387.401 230.547 387.681 230.578 387.953C234.599 383.581 237.748 377.924 239.072 372.656C239.356 371.548 239.669 369.901 239.244 368.395C239.011 367.57 238.529 366.836 237.863 366.295C237.473 365.99 237.01 365.792 236.52 365.721L236.525 365.714Z" fill="#8DC7A3"/>
<path d="M221.445 364.529C215.513 363.786 208.924 361.335 204.133 357.712C202.925 356.797 201.78 355.715 201.189 354.322C200.598 352.929 200.674 351.168 201.708 350.062C202.642 349.059 204.169 348.784 205.512 349.058C206.856 349.332 208.053 350.076 209.172 350.866C213.608 353.998 217.334 358.084 220.274 362.653C220.638 363.209 221.137 363.932 221.445 364.529Z" fill="#8DC7A3"/>
<path d="M200.784 354.493C200.073 352.813 200.312 350.911 201.386 349.762C202.348 348.728 203.963 348.294 205.6 348.626C207.037 348.919 208.288 349.703 209.424 350.505C213.745 353.553 217.516 357.559 220.643 362.407C220.722 362.53 220.809 362.663 220.899 362.799C221.22 363.287 221.584 363.841 221.834 364.327C221.87 364.398 221.887 364.477 221.881 364.557C221.876 364.636 221.849 364.713 221.804 364.778C221.758 364.844 221.695 364.896 221.622 364.928C221.549 364.96 221.468 364.972 221.389 364.962C215.089 364.172 208.54 361.592 203.868 358.06L203.672 357.909C202.699 357.157 201.433 356.021 200.784 354.493ZM220.165 363.282C220.074 363.14 219.986 363.009 219.905 362.883C216.84 358.13 213.143 354.206 208.918 351.222C207.859 350.475 206.703 349.747 205.423 349.487C204.374 349.272 202.931 349.39 202.027 350.359C201.057 351.4 201.11 353.013 201.592 354.15C202.203 355.589 203.485 356.671 204.397 357.363C208.733 360.64 214.735 363.079 220.604 363.97C220.465 363.738 220.31 363.503 220.165 363.282Z" fill="#8DC7A3"/>
<path d="M230.175 388.514C224.243 387.77 217.655 385.32 212.864 381.698C211.655 380.785 210.511 379.701 209.92 378.308C209.328 376.915 209.405 375.154 210.437 374.048C211.373 373.045 212.899 372.769 214.243 373.044C215.586 373.318 216.784 374.06 217.902 374.851C222.338 377.976 226.063 382.07 229.005 386.638C229.369 387.195 229.868 387.918 230.175 388.514Z" fill="#8DC7A3"/>
<path d="M209.515 378.478C208.804 376.798 209.043 374.897 210.116 373.746C211.079 372.714 212.694 372.279 214.33 372.61C215.769 372.903 217.018 373.687 218.154 374.489C222.474 377.537 226.247 381.541 229.373 386.39C229.453 386.515 229.539 386.647 229.629 386.783C229.95 387.272 230.314 387.825 230.565 388.31C230.601 388.381 230.618 388.46 230.612 388.54C230.607 388.62 230.58 388.696 230.534 388.762C230.488 388.827 230.425 388.879 230.352 388.911C230.279 388.944 230.199 388.956 230.12 388.946C223.82 388.156 217.269 385.576 212.598 382.043L212.402 381.894C211.43 381.142 210.163 380.006 209.515 378.478ZM228.894 387.263L228.634 386.864C225.569 382.109 221.871 378.186 217.647 375.203C216.589 374.457 215.433 373.728 214.152 373.467C213.103 373.254 211.66 373.37 210.756 374.34C209.786 375.381 209.839 376.994 210.321 378.132C210.932 379.57 212.213 380.652 213.126 381.343C217.462 384.622 223.465 387.06 229.34 387.952C229.195 387.723 229.036 387.487 228.894 387.263Z" fill="#8DC7A3"/>
<path d="M212.01 341.666C209.351 338.38 205.732 334.877 202.672 331.961C199.613 329.046 196.757 325.713 195.511 321.667C195.095 320.316 194.867 318.875 195.124 317.485C195.382 316.094 196.176 314.758 197.42 314.076C198.77 313.342 200.476 313.479 201.86 314.146C203.245 314.813 204.351 315.948 205.284 317.168C207.358 319.879 208.707 323.086 209.613 326.376C210.519 329.666 210.999 333.05 211.477 336.433C211.693 337.954 212.043 340.134 212.01 341.666Z" fill="#8DC7A3"/>
<path d="M211.669 341.942C209.056 338.712 205.499 335.26 202.369 332.278C199.702 329.736 196.465 326.247 195.092 321.796C194.583 320.143 194.452 318.707 194.694 317.405C194.995 315.776 195.935 314.39 197.21 313.696C198.596 312.942 200.406 312.963 202.044 313.755C203.309 314.365 204.448 315.366 205.625 316.907C207.546 319.417 208.986 322.478 210.032 326.264C210.947 329.585 211.436 333.038 211.908 336.376L211.993 336.961C212.208 338.447 212.475 340.294 212.446 341.675C212.445 341.757 212.421 341.837 212.377 341.906C212.333 341.974 212.27 342.03 212.196 342.065C212.122 342.1 212.04 342.113 211.958 342.104C211.877 342.094 211.8 342.062 211.736 342.011C211.711 341.991 211.688 341.967 211.669 341.942ZM201.67 314.545C200.299 313.886 198.753 313.855 197.629 314.466C196.584 315.034 195.81 316.192 195.557 317.564C195.342 318.724 195.464 320.024 195.93 321.541C197.243 325.801 200.385 329.176 202.975 331.645C205.809 334.343 208.993 337.432 211.529 340.404C211.451 339.323 211.275 338.116 211.127 337.088L211.042 336.5C210.574 333.19 210.089 329.766 209.194 326.498C208.181 322.823 206.789 319.859 204.94 317.439C204.355 316.645 203.67 315.929 202.903 315.309C202.52 315.011 202.107 314.755 201.67 314.545Z" fill="#8DC7A3"/>
<path d="M573.718 360.268C573.828 360.268 573.935 360.233 574.023 360.168C574.111 360.102 574.176 360.011 574.209 359.906C580.244 340.415 590.331 327.701 602.01 312.977L602.892 311.867C602.976 311.76 603.015 311.624 602.999 311.488C602.983 311.353 602.914 311.229 602.807 311.145C602.7 311.06 602.564 311.021 602.428 311.037C602.292 311.053 602.169 311.122 602.084 311.229L601.204 312.34C589.948 326.528 579.317 339.928 573.226 359.602C573.206 359.667 573.199 359.735 573.205 359.802C573.212 359.869 573.231 359.934 573.263 359.994C573.294 360.054 573.337 360.107 573.389 360.15C573.441 360.193 573.501 360.226 573.566 360.246C573.615 360.261 573.666 360.268 573.718 360.268Z" fill="#8DC7A3"/>
<path d="M624.521 301.396C626.588 299.802 628.566 297.938 629.575 295.531C630.585 293.124 630.41 290.07 628.566 288.223C626.722 286.377 623.732 286.197 621.328 287.138C618.924 288.08 617.016 289.96 615.333 291.916C612.373 295.354 609.882 299.158 607.401 302.961C606.146 304.884 604.7 306.834 603.608 308.907C603.358 309.383 602.202 310.992 602.487 311.547C602.914 312.384 604.586 311.524 605.152 311.31C609.529 309.649 613.881 307.876 617.991 305.63C620.141 304.445 622.772 303.143 624.521 301.396Z" fill="#8DC7A3"/>
<path d="M602.03 311.782C601.699 311.137 602.238 310.165 602.921 309.055C603.022 308.893 603.106 308.758 603.153 308.667C603.956 307.149 604.939 305.699 605.889 304.296C606.257 303.755 606.621 303.217 606.97 302.681C609.421 298.93 611.956 295.05 614.943 291.581C616.544 289.72 618.533 287.681 621.141 286.66C623.498 285.735 626.82 285.75 628.93 287.86C631.081 290.013 631.043 293.364 630.049 295.73C628.927 298.406 626.692 300.37 624.863 301.783C623.286 303.345 621.055 304.552 619.086 305.617C618.802 305.772 618.518 305.925 618.233 306.076C613.968 308.412 609.512 310.204 605.33 311.791C605.259 311.818 605.171 311.855 605.07 311.898C604.602 312.095 603.837 312.418 603.166 312.418C602.7 312.423 602.273 312.256 602.03 311.782ZM621.516 287.617C619.119 288.556 617.242 290.486 615.722 292.251C612.781 295.669 610.265 299.519 607.832 303.242C607.479 303.784 607.111 304.326 606.742 304.873C605.806 306.253 604.839 307.679 604.063 309.147C604.009 309.251 603.912 309.407 603.799 309.595C603.583 309.944 602.933 310.996 602.956 311.33C603.037 311.434 603.374 311.499 604.674 310.949L604.97 310.829C609.119 309.254 613.537 307.479 617.744 305.174C618.021 305.022 618.305 304.868 618.597 304.711C620.514 303.676 622.687 302.503 624.158 301.033C624.173 301.017 624.19 301.003 624.207 300.99C625.942 299.651 628.066 297.799 629.101 295.332C630.117 292.908 629.748 290.133 628.201 288.586C627.14 287.523 625.694 287.099 624.266 287.099C623.325 287.101 622.393 287.276 621.516 287.617Z" fill="#8DC7A3"/>
<path d="M583.792 336.767C580.886 328.804 579.711 318.908 581.183 310.515C581.556 308.399 582.179 306.254 583.559 304.604C584.94 302.954 587.212 301.906 589.282 302.494C591.154 303.022 592.492 304.766 593.016 306.642C593.541 308.518 593.379 310.505 593.106 312.429C592.023 320.055 589.267 327.403 585.415 334.07C584.937 334.895 584.347 335.997 583.792 336.767Z" fill="#8DC7A3"/>
<path d="M583.722 337.275C583.63 337.263 583.542 337.225 583.469 337.166C583.396 337.107 583.341 337.03 583.309 336.942C580.228 328.502 579.244 318.588 580.677 310.425C580.98 308.7 581.567 306.186 583.164 304.273C584.797 302.317 587.312 301.402 589.419 302.001C591.314 302.535 592.881 304.262 593.511 306.504C594.067 308.493 593.889 310.56 593.613 312.503C592.561 319.912 589.952 327.255 585.858 334.329C585.753 334.51 585.642 334.706 585.527 334.909C585.119 335.628 584.655 336.443 584.209 337.068C584.161 337.134 584.098 337.188 584.026 337.226C583.953 337.263 583.872 337.282 583.791 337.282C583.768 337.281 583.745 337.279 583.722 337.275ZM583.954 304.932C582.514 306.655 581.972 308.994 581.691 310.601C580.342 318.283 581.182 327.553 583.93 335.611C584.17 335.213 584.411 334.791 584.632 334.4C584.749 334.194 584.861 333.996 584.968 333.812C588.997 326.853 591.563 319.633 592.595 312.357C592.855 310.525 593.022 308.582 592.521 306.778C592.103 305.289 590.996 303.512 589.141 302.987C588.791 302.89 588.43 302.842 588.067 302.845C586.442 302.841 584.891 303.806 583.954 304.934V304.932Z" fill="#8DC7A3"/>
<path d="M583.799 336.879C592.24 337.738 602.139 336.445 609.916 332.958C611.879 332.079 613.807 330.946 615.069 329.206C616.332 327.467 616.787 325.008 615.712 323.148C614.74 321.465 612.715 320.592 610.769 320.549C608.822 320.507 606.93 321.149 605.13 321.886C597.996 324.805 591.542 329.27 586.018 334.647C585.334 335.311 584.414 336.152 583.799 336.879Z" fill="#8DC7A3"/>
<path d="M583.754 337.39C583.661 337.381 583.572 337.346 583.497 337.29C583.422 337.234 583.364 337.158 583.329 337.071C583.293 336.985 583.283 336.89 583.298 336.797C583.312 336.705 583.352 336.618 583.413 336.547C583.91 335.962 584.587 335.313 585.184 334.742C585.353 334.581 585.516 334.425 585.666 334.277C591.527 328.576 598.012 324.247 604.943 321.41C606.76 320.666 608.724 319.983 610.789 320.035C613.121 320.095 615.181 321.188 616.165 322.891C617.261 324.787 616.991 327.447 615.494 329.509C614.029 331.524 611.735 332.711 610.135 333.427C604.033 336.16 596.444 337.653 589.044 337.653C587.277 337.654 585.512 337.567 583.754 337.39ZM605.327 322.364C598.518 325.152 592.142 329.409 586.377 335.019C586.225 335.168 586.06 335.325 585.889 335.489C585.562 335.8 585.213 336.135 584.886 336.466C593.38 337.149 602.583 335.685 609.706 332.49C611.199 331.821 613.334 330.721 614.653 328.905C615.704 327.458 616.301 325.196 615.268 323.405C614.304 321.738 612.305 321.102 610.757 321.063H610.563C608.756 321.061 606.981 321.684 605.327 322.364Z" fill="#8DC7A3"/>
<path d="M562.468 385.771C562.541 385.812 562.626 385.828 562.709 385.818C562.793 385.807 562.871 385.77 562.932 385.712C574.248 374.952 585.737 370.233 599.043 364.754L600.047 364.343C600.096 364.324 600.141 364.296 600.179 364.259C600.217 364.223 600.248 364.179 600.269 364.131C600.289 364.083 600.3 364.031 600.301 363.978C600.301 363.926 600.291 363.873 600.271 363.825C600.251 363.776 600.222 363.732 600.184 363.695C600.147 363.658 600.102 363.629 600.053 363.609C600.004 363.59 599.952 363.58 599.899 363.581C599.847 363.582 599.795 363.594 599.747 363.615L598.744 364.029C585.925 369.302 573.816 374.282 562.394 385.143C562.357 385.178 562.326 385.221 562.305 385.268C562.284 385.315 562.273 385.366 562.272 385.417C562.27 385.469 562.279 385.52 562.298 385.569C562.316 385.617 562.344 385.661 562.38 385.698C562.406 385.726 562.435 385.751 562.468 385.771Z" fill="#6FBD8D"/>
<path d="M618.398 365.422C620.374 365.129 622.391 364.622 623.965 363.392C625.539 362.163 626.566 360.058 626.024 358.138C625.482 356.218 623.554 354.981 621.597 354.713C619.639 354.444 617.664 354.988 615.809 355.666C612.548 356.857 609.46 358.472 606.383 360.081C604.826 360.896 603.134 361.66 601.629 362.637C601.282 362.86 599.91 363.505 599.893 363.982C599.866 364.699 601.302 364.749 601.761 364.817C605.304 365.341 608.87 365.781 612.458 365.811C614.333 365.819 616.578 365.936 618.398 365.422Z" fill="#6FBD8D"/>
<path d="M599.499 363.965C599.519 363.409 600.242 362.962 601.114 362.476C601.242 362.405 601.348 362.347 601.414 362.305C602.532 361.61 603.687 360.976 604.874 360.407C605.322 360.182 605.767 359.959 606.201 359.731C609.239 358.142 612.382 356.498 615.673 355.295C617.438 354.65 619.529 354.031 621.645 354.322C623.564 354.585 625.778 355.833 626.396 358.03C627.027 360.27 625.749 362.492 624.201 363.702C622.452 365.07 620.22 365.548 618.474 365.807C616.838 366.264 614.899 366.233 613.185 366.21L612.449 366.201C608.73 366.17 605.083 365.703 601.697 365.207C601.64 365.199 601.567 365.19 601.483 365.182C601.097 365.138 600.465 365.068 600.018 364.818C599.709 364.638 599.484 364.372 599.499 363.965ZM621.544 355.1C619.593 354.833 617.618 355.423 615.944 356.033C612.701 357.218 609.581 358.85 606.56 360.429C606.122 360.657 605.673 360.883 605.221 361.109C604.06 361.666 602.93 362.286 601.836 362.964C601.761 363.013 601.638 363.081 601.492 363.164C601.218 363.316 600.39 363.777 600.281 364.007C600.295 364.108 600.495 364.276 601.57 364.395C601.665 364.406 601.748 364.415 601.812 364.425C605.17 364.922 608.778 365.385 612.455 365.419L613.197 365.429C614.865 365.453 616.751 365.48 618.285 365.048L618.335 365.037C619.993 364.791 622.104 364.347 623.716 363.087C625.301 361.847 626.093 359.858 625.638 358.247C625.327 357.141 624.521 356.319 623.567 355.786C622.94 355.436 622.255 355.203 621.544 355.1Z" fill="#6FBD8D"/>
<path d="M577.981 373.84C579.018 367.44 581.935 360.395 586.057 355.34C587.096 354.062 588.316 352.868 589.853 352.282C591.39 351.695 593.299 351.846 594.462 353.007C595.514 354.06 595.754 355.725 595.405 357.17C595.055 358.614 594.202 359.885 593.299 361.066C589.725 365.753 585.143 369.634 580.077 372.644C579.446 373.017 578.635 373.529 577.981 373.84Z" fill="#6FBD8D"/>
<path d="M577.744 374.154C577.687 374.111 577.642 374.053 577.616 373.987C577.589 373.921 577.581 373.848 577.593 373.778C578.692 366.994 581.742 360.003 585.751 355.093C586.604 354.054 587.93 352.595 589.712 351.914C591.533 351.218 593.55 351.546 594.739 352.729C595.804 353.794 596.205 355.531 595.787 357.262C595.416 358.796 594.523 360.112 593.612 361.305C590.14 365.859 585.65 369.787 580.273 372.982L579.835 373.247C579.294 373.575 578.681 373.945 578.149 374.195C578.093 374.222 578.03 374.235 577.968 374.233C577.905 374.231 577.844 374.214 577.789 374.184C577.773 374.175 577.758 374.165 577.744 374.154ZM589.993 352.648C588.387 353.263 587.15 354.62 586.361 355.589C582.589 360.214 579.679 366.715 578.505 373.12C578.814 372.945 579.132 372.752 579.427 372.573L579.871 372.306C585.162 369.164 589.575 365.301 592.986 360.829C593.839 359.703 594.692 358.47 595.022 357.077C595.299 355.927 595.225 354.326 594.183 353.286C593.987 353.09 593.765 352.922 593.522 352.787C592.436 352.186 591.043 352.247 589.993 352.648Z" fill="#6FBD8D"/>
<path d="M577.944 373.914C583.257 377.638 590.346 380.465 596.853 381.042C598.492 381.184 600.203 381.149 601.697 380.459C603.191 379.769 604.412 378.298 604.391 376.655C604.371 375.168 603.343 373.833 602.062 373.075C600.781 372.316 599.277 372.042 597.797 371.863C591.942 371.153 585.963 371.721 580.266 373.252C579.555 373.444 578.627 373.661 577.944 373.914Z" fill="#6FBD8D"/>
<path d="M577.718 374.239C577.66 374.198 577.613 374.142 577.584 374.076C577.555 374.011 577.545 373.939 577.554 373.868C577.563 373.797 577.591 373.729 577.636 373.673C577.68 373.617 577.739 373.574 577.806 373.549C578.357 373.343 579.05 373.163 579.663 373.005C579.835 372.96 580.003 372.917 580.158 372.875C586.203 371.256 592.151 370.784 597.84 371.476C599.331 371.657 600.896 371.934 602.255 372.74C603.791 373.648 604.756 375.154 604.778 376.652C604.799 378.326 603.625 380.001 601.855 380.819C600.123 381.618 598.147 381.554 596.812 381.435C591.715 380.985 586.091 379.15 581.152 376.389C579.972 375.731 578.826 375.013 577.718 374.239ZM597.744 372.251C592.157 371.571 586.308 372.035 580.363 373.629L579.861 373.761C579.527 373.847 579.167 373.94 578.826 374.045C584.241 377.669 590.932 380.126 596.881 380.652C598.127 380.763 599.964 380.826 601.523 380.106C602.767 379.538 604.011 378.244 603.99 376.662C603.97 375.189 602.874 374.021 601.857 373.416L601.729 373.343C600.52 372.669 599.108 372.422 597.744 372.257V372.251Z" fill="#6FBD8D"/>
<path d="M18.5366 329.308C20.1261 335.959 23.9804 341.173 27.9199 346.668C32.1168 352.507 36.5886 358.137 41.3352 363.557C47.3699 370.45 53.8224 376.966 60.6562 383.069C63.7598 385.84 66.8136 388.672 69.8973 391.468H91.5585C91.1775 390.011 90.5633 388.606 89.9434 387.232C83.3382 372.738 74.3345 358.324 64.3171 345.969C62.0609 343.187 59.7676 340.409 57.3678 337.733C50.1768 329.7 42.1086 322.572 31.6803 318.824C28.0308 317.513 23.5453 316.814 20.6152 319.352C17.9026 321.687 17.7064 325.836 18.5366 329.308Z" fill="#ADE0C1"/>
<path d="M78.1682 391.938C78.2436 391.938 78.3179 391.92 78.3848 391.885C78.4517 391.851 78.5094 391.801 78.5529 391.739C78.5963 391.678 78.6244 391.606 78.6346 391.532C78.6449 391.457 78.637 391.381 78.6117 391.31C76.4266 385.154 68.0257 370.253 57.7482 355.975C48.5653 343.217 34.7051 326.437 20.8263 318.936C20.717 318.881 20.5902 318.87 20.4731 318.906C20.3559 318.943 20.2577 319.024 20.1993 319.131C20.1409 319.239 20.127 319.365 20.1604 319.483C20.1939 319.601 20.2722 319.701 20.3785 319.763C34.0994 327.175 47.8587 343.845 56.9847 356.523C67.2125 370.733 75.5622 385.529 77.7246 391.624C77.757 391.716 77.817 391.795 77.8964 391.852C77.9759 391.908 78.0708 391.938 78.1682 391.938Z" fill="#8DC7A3"/>
<path d="M25.1211 283.898C30.4425 293.27 44.4634 315.221 57.3555 337.73C66.6222 353.895 75.3017 370.348 79.7588 382.618C81.0526 386.434 82.2539 389.335 83.3714 391.462H92.3153C93.0589 388.027 94.2005 382.8 95.645 376.462C99.1993 360.832 101.835 350.474 102.262 348.67C108.392 322.64 83.1012 257.617 36.354 237.852C23.179 232.283 18.8755 234.779 17.4367 235.932C8.81406 242.857 17.2832 270.104 25.1211 283.898Z" fill="#6FBD8D"/>
<path d="M92.3212 391.938C92.3462 391.94 92.3715 391.94 92.3965 391.938C92.4576 391.928 92.5161 391.906 92.5688 391.874C92.6214 391.842 92.6671 391.799 92.7033 391.749C92.7395 391.699 92.7654 391.642 92.7796 391.582C92.7938 391.522 92.796 391.459 92.7861 391.398C88.4854 364.753 55.705 266.696 19.6732 234.515C19.6277 234.471 19.5738 234.436 19.5146 234.414C19.4554 234.391 19.3923 234.38 19.3289 234.383C19.2656 234.385 19.2033 234.4 19.1459 234.427C19.0885 234.454 19.0371 234.492 18.9948 234.539C18.9526 234.586 18.9203 234.641 18.8999 234.701C18.8796 234.761 18.8716 234.825 18.8764 234.888C18.8812 234.951 18.8987 235.013 18.9279 235.069C18.9571 235.125 18.9973 235.175 19.0463 235.215C54.9174 267.25 87.5727 364.984 91.8577 391.543C91.8753 391.653 91.9316 391.754 92.0166 391.826C92.1015 391.898 92.2095 391.938 92.3212 391.938Z" fill="#548F6B"/>
<path d="M510.233 287.305C510.329 287.305 510.424 287.28 510.507 287.233C510.591 287.186 510.662 287.118 510.712 287.036C512.702 283.781 514.625 280.628 516.48 277.575C535.114 246.976 548.578 224.868 574.276 194.413C574.357 194.298 574.392 194.158 574.374 194.019C574.357 193.88 574.288 193.752 574.181 193.662C574.074 193.571 573.937 193.524 573.797 193.529C573.657 193.534 573.523 193.591 573.423 193.69C547.669 224.212 534.184 246.352 515.526 276.993C513.663 280.05 511.741 283.203 509.759 286.453C509.708 286.537 509.68 286.634 509.678 286.734C509.676 286.833 509.701 286.931 509.749 287.018C509.798 287.104 509.869 287.177 509.954 287.227C510.04 287.277 510.138 287.304 510.237 287.305H510.233Z" fill="#8DC7A3"/>
<path d="M553.813 219.057C550.19 212.341 547.857 203.677 548.077 196.01C548.132 194.077 548.412 192.085 549.425 190.438C550.437 188.79 552.328 187.563 554.247 187.815C555.983 188.043 557.403 189.427 558.114 191.026C558.825 192.625 558.939 194.42 558.944 196.169C558.973 203.102 557.479 210.004 554.907 216.444C554.59 217.241 554.206 218.295 553.813 219.057Z" fill="#8DC7A3"/>
<path d="M553.32 219.323C549.47 212.189 547.301 203.469 547.517 195.995C547.562 194.407 547.76 192.075 548.947 190.144C550.167 188.156 552.323 187.001 554.32 187.259C556.111 187.495 557.76 188.851 558.626 190.798C559.387 192.511 559.499 194.391 559.506 196.168C559.532 202.915 558.16 209.801 555.427 216.651C555.357 216.828 555.285 217.016 555.208 217.219C554.937 217.914 554.631 218.702 554.311 219.321C554.264 219.412 554.194 219.488 554.107 219.541C554.02 219.595 553.92 219.623 553.818 219.624C553.715 219.624 553.614 219.596 553.526 219.543C553.439 219.49 553.367 219.414 553.32 219.323ZM549.908 190.73C548.862 192.434 548.685 194.565 548.643 196.026C548.444 202.964 550.349 211.011 553.782 217.779C553.916 217.454 554.047 217.12 554.169 216.806C554.246 216.607 554.321 216.416 554.392 216.238C557.071 209.527 558.416 202.777 558.39 196.173C558.39 194.519 558.285 192.778 557.607 191.254C557.052 190.006 555.861 188.593 554.179 188.371C554.032 188.352 553.884 188.343 553.735 188.343C552.105 188.342 550.66 189.496 549.902 190.73H549.908Z" fill="#8DC7A3"/>
<path d="M534.94 246.062C531.316 239.346 528.983 230.682 529.204 223.015C529.259 221.082 529.539 219.09 530.552 217.442C531.564 215.795 533.455 214.568 535.374 214.819C537.111 215.048 538.53 216.431 539.241 218.03C539.952 219.629 540.066 221.424 540.073 223.174C540.1 230.107 538.606 237.009 536.034 243.449C535.717 244.246 535.333 245.299 534.94 246.062Z" fill="#8DC7A3"/>
<path d="M534.447 246.327C530.597 239.194 528.428 230.475 528.644 222.999C528.689 221.413 528.887 219.08 530.074 217.148C531.295 215.16 533.452 214.006 535.448 214.266C537.238 214.5 538.888 215.856 539.753 217.803C540.515 219.516 540.626 221.396 540.633 223.173C540.66 229.919 539.288 236.806 536.555 243.656C536.484 243.832 536.413 244.02 536.335 244.216C536.065 244.912 535.758 245.7 535.438 246.319C535.391 246.409 535.321 246.485 535.234 246.539C535.148 246.592 535.048 246.621 534.946 246.621C534.844 246.623 534.743 246.596 534.655 246.544C534.567 246.492 534.495 246.417 534.447 246.327ZM531.035 217.735C529.989 219.439 529.812 221.569 529.77 223.032C529.571 229.969 531.476 238.016 534.909 244.782C535.044 244.459 535.174 244.123 535.296 243.81C535.374 243.611 535.448 243.42 535.519 243.242C538.198 236.53 539.544 229.779 539.517 223.177C539.517 221.522 539.412 219.781 538.734 218.258C538.179 217.009 536.988 215.596 535.307 215.376C535.16 215.356 535.011 215.347 534.862 215.346C533.232 215.346 531.787 216.501 531.029 217.735H531.035Z" fill="#8DC7A3"/>
<path d="M554.255 219.122C561.808 220.259 570.761 219.526 577.909 216.727C579.712 216.017 581.495 215.085 582.706 213.577C583.917 212.069 584.432 209.876 583.546 208.158C582.745 206.596 580.962 205.735 579.214 205.602C577.467 205.468 575.738 205.972 574.086 206.557C567.546 208.875 561.547 212.611 556.348 217.208C555.705 217.782 554.841 218.498 554.255 219.122Z" fill="#8DC7A3"/>
<path d="M554.172 219.679C554.071 219.664 553.976 219.621 553.898 219.556C553.82 219.491 553.76 219.406 553.727 219.309C553.693 219.213 553.686 219.11 553.707 219.01C553.728 218.91 553.776 218.818 553.845 218.743C554.321 218.232 554.963 217.677 555.527 217.181C555.683 217.039 555.835 216.914 555.976 216.789C561.502 211.908 567.532 208.29 573.9 206.033C575.576 205.441 577.384 204.911 579.255 205.046C581.388 205.203 583.218 206.296 584.044 207.899C584.965 209.684 584.602 212.107 583.142 213.925C581.721 215.693 579.588 216.667 578.114 217.246C573.175 219.181 567.243 220.199 561.352 220.199C558.949 220.204 556.549 220.03 554.172 219.679ZM574.274 207.094C568.042 209.301 562.136 212.847 556.718 217.633C556.576 217.759 556.421 217.893 556.262 218.03C556.006 218.253 555.735 218.49 555.473 218.726C563.008 219.663 571.235 218.74 577.704 216.208C579.065 215.676 581.017 214.788 582.268 213.226C583.256 211.995 583.88 210.029 583.047 208.413C582.272 206.908 580.538 206.265 579.173 206.165C579.001 206.153 578.829 206.147 578.657 206.147C577.164 206.15 575.673 206.599 574.274 207.094Z" fill="#8DC7A3"/>
<path d="M535.201 245.602C542.755 246.738 551.706 246.005 558.856 243.206C560.658 242.496 562.441 241.564 563.651 240.056C564.861 238.548 565.378 236.355 564.493 234.637C563.691 233.075 561.908 232.214 560.161 232.081C558.413 231.947 556.685 232.453 555.033 233.037C548.493 235.354 542.493 239.091 537.294 243.687C536.651 244.258 535.787 244.968 535.201 245.602Z" fill="#8DC7A3"/>
<path d="M535.117 246.156C535.016 246.14 534.922 246.097 534.843 246.032C534.765 245.967 534.706 245.882 534.673 245.785C534.639 245.689 534.633 245.586 534.654 245.486C534.674 245.386 534.722 245.294 534.792 245.22C535.266 244.711 535.903 244.156 536.466 243.668L536.923 243.27C542.447 238.389 548.478 234.771 554.845 232.515C556.522 231.92 558.331 231.394 560.202 231.521C562.334 231.678 564.164 232.771 564.99 234.374C565.911 236.159 565.549 238.582 564.089 240.401C562.667 242.168 560.534 243.144 559.06 243.721C554.121 245.656 548.19 246.674 542.297 246.674C539.894 246.68 537.494 246.506 535.117 246.156ZM555.22 233.571C548.989 235.777 543.083 239.323 537.665 244.109C537.523 244.237 537.365 244.373 537.203 244.513C536.948 244.734 536.678 244.968 536.418 245.203C543.953 246.139 552.182 245.217 558.651 242.685C560.011 242.152 561.963 241.265 563.214 239.703C564.202 238.471 564.827 236.506 563.993 234.89C563.217 233.385 561.484 232.741 560.119 232.642C559.947 232.629 559.774 232.623 559.602 232.623C558.109 232.626 556.619 233.075 555.22 233.571Z" fill="#8DC7A3"/>
<path d="M573.787 194.271C578.194 191.146 583.861 188.095 588.637 185.565C593.412 183.036 598.08 179.919 601.006 175.385C601.987 173.866 602.766 172.172 602.932 170.373C603.099 168.574 602.584 166.657 601.289 165.394C599.884 164.024 597.734 163.602 595.805 163.943C593.876 164.284 592.117 165.296 590.545 166.475C587.055 169.092 584.289 172.568 582.029 176.301C579.768 180.033 578.008 184.036 576.248 188.025C575.465 189.819 574.278 192.376 573.787 194.271Z" fill="#8DC7A3"/>
<path d="M573.469 194.732C573.375 194.667 573.302 194.575 573.262 194.467C573.222 194.36 573.216 194.242 573.245 194.131C573.687 192.427 574.657 190.245 575.437 188.492L575.743 187.801C577.481 183.858 579.279 179.783 581.556 176.014C584.152 171.718 586.984 168.452 590.216 166.029C592.199 164.541 593.946 163.704 595.713 163.392C598.011 162.987 600.243 163.586 601.685 164.995C603.011 166.289 603.688 168.32 603.494 170.427C603.338 172.111 602.68 173.835 601.48 175.69C598.25 180.687 593.059 183.858 588.896 186.057C584.013 188.643 578.438 191.659 574.111 194.719C574.016 194.787 573.903 194.823 573.786 194.823C573.674 194.826 573.563 194.794 573.469 194.732ZM595.908 164.495C594.322 164.779 592.726 165.546 590.888 166.924C587.775 169.258 585.036 172.421 582.516 176.592C580.277 180.301 578.494 184.343 576.769 188.252L576.461 188.947C575.922 190.161 575.288 191.584 574.816 192.885C578.964 190.108 583.952 187.414 588.375 185.074C592.417 182.934 597.451 179.864 600.542 175.084C601.641 173.379 602.248 171.826 602.38 170.325C602.543 168.551 601.992 166.858 600.904 165.797C599.977 164.894 598.58 164.393 597.087 164.393C596.692 164.393 596.297 164.427 595.908 164.495Z" fill="#8DC7A3"/>
<path d="M580.044 267.481C580.109 267.446 580.18 267.424 580.253 267.417C580.327 267.409 580.401 267.416 580.471 267.437C580.542 267.458 580.608 267.493 580.665 267.54C580.722 267.586 580.769 267.643 580.804 267.708C580.839 267.773 580.861 267.843 580.869 267.917C580.876 267.99 580.869 268.064 580.848 268.134C580.827 268.205 580.792 268.27 580.746 268.327C580.7 268.385 580.642 268.432 580.577 268.467C552.267 283.709 534.837 296.486 512.552 313.318H510.693C533.59 296.013 551.162 283.027 580.044 267.481Z" fill="#6FBD8D"/>
<path d="M556.268 281.719C555.489 275.173 556.366 267.471 558.979 261.381C559.639 259.844 560.496 258.332 561.833 257.328C563.169 256.324 565.08 255.939 566.541 256.75C567.865 257.484 568.566 259.046 568.628 260.555C568.691 262.065 568.213 263.538 567.663 264.958C565.482 270.537 562.088 275.609 557.977 279.97C557.468 280.505 556.825 281.231 556.268 281.719Z" fill="#6FBD8D"/>
<path d="M556.066 282.242C555.971 282.204 555.888 282.142 555.826 282.062C555.763 281.981 555.724 281.886 555.711 281.785C554.882 274.826 555.911 267.109 558.465 261.159C559.009 259.891 559.915 258.067 561.497 256.88C563.132 255.653 565.269 255.405 566.813 256.261C568.201 257.029 569.11 258.667 569.189 260.533C569.257 262.163 568.746 263.719 568.185 265.157C566.059 270.597 562.761 275.708 558.385 280.352C558.273 280.471 558.153 280.6 558.031 280.732C557.59 281.207 557.093 281.743 556.638 282.142C556.536 282.233 556.404 282.283 556.268 282.284C556.199 282.283 556.13 282.269 556.066 282.242ZM562.17 257.776C560.803 258.802 559.989 260.45 559.495 261.601C557.155 267.054 556.134 274.038 556.706 280.507C556.877 280.326 557.047 280.143 557.208 279.968C557.333 279.826 557.454 279.703 557.569 279.582C561.847 275.038 565.067 270.056 567.14 264.749C567.657 263.425 568.135 262.004 568.07 260.58C568.02 259.421 567.522 257.934 566.27 257.239C565.812 256.99 565.297 256.862 564.776 256.867C563.833 256.89 562.921 257.208 562.17 257.776Z" fill="#6FBD8D"/>
<path d="M532.521 297.438C531.743 290.892 532.621 283.189 535.234 277.098C535.892 275.563 536.751 274.051 538.087 273.047C539.424 272.043 541.333 271.658 542.796 272.469C544.119 273.203 544.82 274.764 544.883 276.275C544.945 277.786 544.468 279.257 543.918 280.677C541.737 286.258 538.343 291.328 534.231 295.69C533.722 296.224 533.08 296.944 532.521 297.438Z" fill="#6FBD8D"/>
<path d="M532.32 297.961C532.225 297.924 532.142 297.861 532.08 297.781C532.017 297.701 531.977 297.605 531.965 297.504C531.136 290.545 532.165 282.828 534.719 276.878C535.263 275.61 536.169 273.785 537.75 272.599C539.386 271.372 541.523 271.124 543.067 271.979C544.454 272.748 545.364 274.393 545.443 276.252C545.511 277.882 545 279.437 544.439 280.876C542.306 286.316 539.015 291.427 534.639 296.071C534.527 296.19 534.407 296.318 534.285 296.451C533.846 296.926 533.347 297.463 532.89 297.862C532.788 297.952 532.657 298.002 532.521 298.004C532.452 298.001 532.384 297.987 532.32 297.961ZM538.424 273.495C537.057 274.521 536.243 276.168 535.749 277.32C533.409 282.773 532.388 289.759 532.958 296.224C533.131 296.045 533.301 295.862 533.462 295.687C533.587 295.545 533.708 295.422 533.823 295.301C538.099 290.764 541.321 285.774 543.394 280.468C543.911 279.145 544.389 277.723 544.322 276.299C544.274 275.14 543.776 273.653 542.524 272.959C542.066 272.709 541.551 272.581 541.03 272.587C540.087 272.609 539.175 272.927 538.424 273.495Z" fill="#6FBD8D"/>
<path d="M556.599 281.912C562.307 285.221 569.734 287.469 576.369 287.486C578.041 287.486 579.771 287.303 581.223 286.475C582.674 285.647 583.782 284.048 583.621 282.387C583.47 280.881 582.313 279.62 580.95 278.964C579.586 278.308 578.038 278.161 576.525 278.112C570.533 277.901 564.525 279.003 558.888 281.046C558.192 281.293 557.27 281.594 556.599 281.912Z" fill="#6FBD8D"/>
<path d="M576.37 288.046C569.888 288.029 562.393 285.916 556.323 282.397C556.234 282.346 556.16 282.271 556.11 282.182C556.06 282.092 556.036 281.99 556.041 281.887C556.045 281.784 556.077 281.685 556.134 281.599C556.192 281.514 556.271 281.446 556.365 281.403C556.911 281.144 557.599 280.9 558.213 280.693L558.709 280.516C564.709 278.342 570.713 277.347 576.557 277.55C578.101 277.605 579.732 277.753 581.206 278.462C582.889 279.272 584.033 280.756 584.192 282.334C584.367 284.089 583.292 285.95 581.515 286.964C579.823 287.929 577.818 288.049 576.445 288.049L576.37 288.046ZM559.082 281.566L558.577 281.746C558.355 281.824 558.12 281.907 557.89 281.992C563.607 285.079 570.432 286.911 576.372 286.927C577.618 286.927 579.463 286.836 580.947 285.988C582.112 285.325 583.222 283.97 583.064 282.438C582.922 281.018 581.755 279.967 580.709 279.464C579.429 278.844 577.929 278.713 576.507 278.662C576.02 278.645 575.532 278.636 575.042 278.636C569.807 278.64 564.444 279.619 559.082 281.566Z" fill="#6FBD8D"/>
<path d="M532.878 297.15C538.586 300.459 546.013 302.706 552.64 302.723C554.312 302.723 556.043 302.541 557.495 301.712C558.946 300.882 560.054 299.286 559.892 297.623C559.743 296.119 558.585 294.857 557.222 294.201C555.858 293.544 554.309 293.397 552.798 293.349C546.804 293.137 540.797 294.239 535.16 296.281C534.469 296.53 533.548 296.832 532.878 297.15Z" fill="#6FBD8D"/>
<path d="M552.646 303.284C546.165 303.267 538.67 301.153 532.599 297.634C532.51 297.584 532.436 297.509 532.386 297.42C532.336 297.33 532.312 297.228 532.316 297.125C532.32 297.023 532.352 296.923 532.409 296.837C532.466 296.752 532.546 296.684 532.639 296.64C533.243 296.37 533.86 296.129 534.487 295.92L534.974 295.747C540.975 293.572 546.98 292.57 552.822 292.78C554.366 292.834 555.998 292.982 557.471 293.692C559.154 294.503 560.299 295.986 560.456 297.563C560.631 299.319 559.555 301.18 557.779 302.194C556.088 303.159 554.083 303.279 552.708 303.279L552.646 303.284ZM535.358 296.802L534.863 296.978C534.637 297.058 534.401 297.142 534.166 297.228C539.884 300.314 546.708 302.146 552.648 302.162C553.895 302.162 555.739 302.071 557.223 301.224C558.388 300.56 559.498 299.205 559.342 297.674C559.2 296.254 558.031 295.205 556.986 294.7C555.706 294.081 554.207 293.949 552.785 293.9C552.296 293.883 551.806 293.874 551.316 293.874C546.079 293.878 540.72 294.86 535.358 296.802Z" fill="#6FBD8D"/>
<path d="M580.199 268.132C584.734 267.023 590.258 266.362 594.898 265.844C599.539 265.326 604.282 264.3 608.078 261.584C609.349 260.675 610.513 259.56 611.217 258.167C611.92 256.774 612.118 255.07 611.478 253.645C610.784 252.099 609.195 251.079 607.533 250.74C605.871 250.4 604.139 250.659 602.502 251.107C598.866 252.102 595.535 254.02 592.537 256.305C589.538 258.59 586.85 261.246 584.167 263.894C582.956 265.086 581.194 266.764 580.199 268.132Z" fill="#6FBD8D"/>
<path d="M579.728 268.444C579.663 268.349 579.63 268.236 579.632 268.121C579.634 268.007 579.671 267.895 579.739 267.802C580.64 266.565 582.116 265.118 583.3 263.955L583.767 263.498C586.417 260.879 589.158 258.172 592.19 255.862C595.648 253.226 598.97 251.495 602.347 250.569C604.425 250.001 606.106 249.881 607.639 250.193C609.636 250.6 611.261 251.806 611.983 253.418C612.649 254.899 612.552 256.769 611.71 258.421C611.045 259.737 609.96 260.922 608.396 262.041C604.198 265.043 599.013 265.948 594.954 266.401C590.21 266.93 584.777 267.586 580.326 268.673C580.282 268.684 580.237 268.689 580.192 268.688C580.101 268.688 580.011 268.666 579.93 268.623C579.849 268.581 579.78 268.519 579.728 268.444ZM602.644 251.65C599.408 252.536 596.211 254.206 592.87 256.752C589.896 259.025 587.183 261.701 584.554 264.295L584.086 264.755C583.322 265.506 582.432 266.378 581.67 267.22C585.837 266.331 590.604 265.759 594.826 265.287C598.744 264.85 603.753 263.982 607.741 261.129C609.154 260.118 610.125 259.067 610.707 257.915C611.392 256.562 611.486 255.053 610.957 253.875C610.388 252.611 609.032 251.622 607.411 251.291C606.919 251.193 606.418 251.145 605.915 251.149C604.807 251.169 603.707 251.337 602.644 251.65Z" fill="#6FBD8D"/>
<path d="M491.006 167.848H366.467V307.7H491.006V167.848Z" fill="#FDCC9D"/>
<path d="M545.334 304.597L491.006 307.7V167.848L545.334 170.951V304.597Z" fill="#FFA687"/>
<path d="M429.286 167.848H415.307V194.289H429.286V167.848Z" fill="#6B6668"/>
<path d="M527.26 190.928L518.171 191.237V169.404L527.26 169.921V190.928Z" fill="#4D494A"/>
<g style="mix-blend-mode:multiply" opacity="0.5">
<path d="M545.334 287.536H491.006V266.663L545.334 274.421V287.536Z" fill="#FFA88A"/>
</g>
<g style="mix-blend-mode:multiply" opacity="0.5">
<path d="M491.006 313.679H366.467V248.046L491.006 266.663V313.679Z" fill="#FDDAB9"/>
</g>
<path d="M524.609 285.981H400.07V392.121H524.609V285.981Z" fill="#C4D3F5"/>
<path d="M571.576 392.121L578.938 391.701V289.084L524.611 285.981V392.121H571.576Z" fill="#9BB8F5"/>
<path d="M462.891 285.981H448.911V312.422H462.891V285.981Z" fill="#6B6366"/>
<path d="M560.863 309.061L551.774 309.369V287.536L560.863 288.053V309.061Z" fill="#4D4749"/>
<path d="M352.826 258.011H228.287V392.121H352.826V258.011Z" fill="#FDD4AC"/>
<path d="M407.154 392.121V261.114L352.826 258.011V392.121H407.154Z" fill="#FF9069"/>
<path d="M291.107 258.011H277.127V284.452H291.107V258.011Z" fill="#6B5E63"/>
<path d="M389.079 281.09L379.99 281.398V259.566L389.079 260.083V281.09Z" fill="#4D4447"/>
<path d="M73.2051 392.551H190.01C190.01 382.159 185.486 372.829 180.429 365.648C174.004 356.525 166.714 350.859 166.714 350.859H98.1191C97.5504 351.314 96.6505 352.05 95.5927 352.997C86.3161 361.319 81.8803 370.717 78.7796 377.453C76.5369 382.336 74.6733 387.383 73.2051 392.551Z" fill="#4D4749"/>
<path d="M160.674 393.185C160.839 393.185 160.997 393.12 161.115 393.005C161.233 392.891 161.302 392.734 161.307 392.57C161.591 382.993 158.079 368.194 156.5 364.878C156.418 364.745 156.289 364.647 156.139 364.603C155.989 364.559 155.828 364.572 155.686 364.639C155.545 364.707 155.434 364.824 155.374 364.968C155.314 365.113 155.31 365.274 155.362 365.422C156.69 368.207 160.338 382.649 160.054 392.53C160.052 392.613 160.066 392.696 160.095 392.773C160.125 392.851 160.169 392.922 160.226 392.983C160.283 393.043 160.352 393.092 160.428 393.126C160.503 393.159 160.585 393.178 160.668 393.181L160.674 393.185Z" fill="#36262C"/>
<path d="M164.546 393.185C164.711 393.185 164.869 393.12 164.987 393.005C165.105 392.891 165.174 392.734 165.178 392.57C165.222 390.718 165.163 388.866 165.004 387.02C164.988 386.854 164.907 386.702 164.78 386.595C164.652 386.488 164.487 386.435 164.321 386.449C164.155 386.462 164.001 386.541 163.892 386.667C163.783 386.793 163.729 386.956 163.74 387.122C163.896 388.921 163.954 390.728 163.913 392.533C163.911 392.616 163.924 392.699 163.954 392.777C163.983 392.854 164.028 392.925 164.085 392.986C164.142 393.046 164.21 393.095 164.286 393.129C164.362 393.163 164.444 393.181 164.527 393.183L164.546 393.185Z" fill="#36262C"/>
<path d="M163.853 383.055C163.883 383.057 163.912 383.057 163.942 383.055C164.107 383.032 164.257 382.944 164.358 382.811C164.459 382.678 164.504 382.511 164.482 382.345C164.142 379.907 163.696 377.375 163.154 374.819C163.14 374.734 163.109 374.654 163.063 374.582C163.017 374.51 162.957 374.448 162.886 374.4C162.815 374.352 162.736 374.318 162.652 374.302C162.568 374.285 162.481 374.286 162.398 374.303C162.314 374.321 162.235 374.355 162.165 374.404C162.095 374.453 162.035 374.516 161.99 374.589C161.945 374.661 161.915 374.742 161.902 374.827C161.889 374.911 161.893 374.997 161.914 375.08C162.449 377.611 162.891 380.116 163.227 382.526C163.251 382.674 163.327 382.809 163.442 382.906C163.557 383.003 163.703 383.056 163.853 383.055Z" fill="#36262C"/>
<path d="M161.465 371.007C161.518 371.007 161.572 371 161.624 370.987C161.705 370.966 161.78 370.93 161.847 370.88C161.914 370.83 161.97 370.767 162.012 370.695C162.054 370.623 162.082 370.544 162.093 370.462C162.105 370.379 162.1 370.295 162.079 370.215C161.442 367.764 160.821 365.819 160.373 364.881C160.291 364.748 160.162 364.65 160.012 364.606C159.862 364.562 159.701 364.575 159.559 364.642C159.418 364.71 159.307 364.827 159.247 364.971C159.188 365.116 159.183 365.277 159.236 365.425C159.645 366.277 160.252 368.191 160.861 370.537C160.896 370.67 160.975 370.789 161.084 370.873C161.193 370.958 161.327 371.005 161.465 371.007Z" fill="#36262C"/>
<path d="M325.582 168.361C329.789 179.134 332.593 186.244 332.593 191.631C332.593 197.017 320.728 222.873 315.552 228.475C310.376 234.078 299.158 209.73 299.158 209.73L325.582 168.361Z" fill="#A35F4B"/>
<path d="M344.84 161.296L286.213 237.344L224.131 224.409L281.067 148.011L344.84 161.296Z" fill="#607CB3"/>
<path d="M335.573 164.208L283.379 231.91L232.92 221.399L283.61 153.383L335.573 164.208Z" fill="#B3C9F5"/>
<path d="M344.84 161.296L286.213 237.344L224.131 224.409L225.857 228.805L288.222 241.797L345.983 166.377L344.84 161.296Z" fill="#3F5175"/>
<path d="M285.275 163.028L322.728 170.839C322.81 170.858 322.896 170.86 322.979 170.846C323.062 170.832 323.142 170.801 323.213 170.756C323.284 170.71 323.345 170.651 323.393 170.582C323.441 170.512 323.475 170.434 323.492 170.351C323.509 170.269 323.51 170.183 323.494 170.1C323.478 170.018 323.445 169.939 323.398 169.869C323.351 169.799 323.29 169.739 323.22 169.692C323.149 169.646 323.07 169.614 322.987 169.599L285.54 161.798C285.377 161.768 285.209 161.803 285.072 161.895C284.934 161.988 284.838 162.13 284.804 162.292C284.771 162.454 284.802 162.623 284.891 162.762C284.98 162.902 285.12 163.001 285.282 163.038L285.275 163.028Z" fill="#3F5175"/>
<path d="M279.995 170.738L317.442 178.539C317.605 178.569 317.773 178.534 317.91 178.442C318.048 178.349 318.144 178.207 318.178 178.045C318.212 177.883 318.181 177.714 318.091 177.575C318.002 177.435 317.862 177.336 317.701 177.299L280.254 169.498C280.172 169.479 280.087 169.477 280.003 169.491C279.92 169.505 279.84 169.536 279.769 169.581C279.698 169.627 279.637 169.686 279.589 169.755C279.541 169.825 279.507 169.903 279.49 169.986C279.473 170.069 279.472 170.154 279.488 170.237C279.505 170.319 279.537 170.398 279.584 170.468C279.631 170.538 279.692 170.598 279.763 170.645C279.833 170.691 279.912 170.723 279.995 170.738Z" fill="#3F5175"/>
<path d="M268.932 182.21L306.38 190.01C306.462 190.029 306.548 190.032 306.631 190.018C306.714 190.003 306.794 189.972 306.865 189.927C306.936 189.882 306.997 189.822 307.045 189.753C307.093 189.683 307.127 189.605 307.144 189.523C307.161 189.44 307.162 189.355 307.146 189.272C307.13 189.189 307.097 189.11 307.05 189.04C307.003 188.97 306.942 188.91 306.872 188.864C306.801 188.818 306.722 188.786 306.639 188.77L269.192 180.97C269.111 180.953 269.027 180.952 268.945 180.968C268.864 180.983 268.786 181.014 268.716 181.06C268.646 181.105 268.587 181.164 268.54 181.233C268.493 181.301 268.46 181.378 268.443 181.46C268.426 181.541 268.425 181.625 268.441 181.707C268.456 181.788 268.488 181.866 268.533 181.935C268.579 182.005 268.637 182.065 268.706 182.112C268.775 182.158 268.852 182.191 268.934 182.208L268.932 182.21Z" fill="#3F5175"/>
<path d="M265.592 186.944L303.039 194.745C303.201 194.775 303.37 194.74 303.507 194.648C303.645 194.556 303.741 194.413 303.775 194.251C303.808 194.089 303.777 193.921 303.688 193.781C303.599 193.642 303.459 193.543 303.297 193.505L265.851 185.704C265.688 185.674 265.52 185.709 265.382 185.801C265.245 185.894 265.149 186.036 265.115 186.198C265.081 186.36 265.112 186.529 265.201 186.668C265.29 186.808 265.431 186.907 265.592 186.944Z" fill="#3F5175"/>
<path d="M262.255 191.677L299.697 199.478C299.862 199.512 300.033 199.48 300.174 199.388C300.314 199.296 300.412 199.152 300.447 198.988C300.481 198.824 300.448 198.653 300.356 198.512C300.264 198.372 300.12 198.274 299.956 198.24L262.514 190.436C262.432 190.417 262.346 190.415 262.263 190.429C262.18 190.443 262.1 190.474 262.029 190.519C261.958 190.565 261.896 190.624 261.848 190.694C261.801 190.763 261.767 190.841 261.75 190.924C261.732 191.007 261.732 191.092 261.748 191.175C261.764 191.257 261.797 191.336 261.844 191.406C261.891 191.476 261.952 191.536 262.022 191.583C262.093 191.629 262.172 191.661 262.255 191.676V191.677Z" fill="#3F5175"/>
<path d="M258.916 196.411L296.362 204.211C296.525 204.241 296.693 204.207 296.831 204.114C296.968 204.022 297.064 203.88 297.098 203.718C297.132 203.556 297.101 203.387 297.012 203.247C296.922 203.108 296.782 203.009 296.621 202.972L259.179 195.172C259.014 195.138 258.843 195.17 258.702 195.262C258.562 195.354 258.464 195.498 258.429 195.662C258.395 195.826 258.427 195.998 258.519 196.138C258.611 196.278 258.755 196.376 258.92 196.411H258.916Z" fill="#3F5175"/>
<path d="M255.578 201.144L293.024 208.946C293.187 208.976 293.356 208.941 293.493 208.849C293.631 208.757 293.727 208.614 293.76 208.452C293.794 208.29 293.763 208.122 293.674 207.982C293.585 207.843 293.445 207.744 293.283 207.706L255.837 199.906C255.755 199.889 255.671 199.888 255.59 199.903C255.508 199.919 255.43 199.95 255.361 199.996C255.291 200.041 255.231 200.1 255.184 200.168C255.137 200.237 255.105 200.314 255.088 200.395C255.071 200.477 255.07 200.561 255.085 200.642C255.101 200.724 255.132 200.802 255.178 200.871C255.223 200.941 255.282 201 255.351 201.047C255.419 201.094 255.497 201.127 255.578 201.144Z" fill="#3F5175"/>
<path d="M252.237 205.878L289.683 213.679C289.765 213.698 289.851 213.701 289.934 213.686C290.017 213.672 290.097 213.641 290.168 213.596C290.239 213.551 290.301 213.491 290.349 213.422C290.396 213.352 290.43 213.274 290.447 213.191C290.465 213.109 290.465 213.024 290.449 212.941C290.433 212.858 290.4 212.779 290.353 212.709C290.306 212.639 290.245 212.579 290.175 212.533C290.104 212.487 290.025 212.455 289.942 212.439L252.495 204.637C252.333 204.607 252.164 204.642 252.027 204.734C251.889 204.827 251.793 204.969 251.759 205.131C251.726 205.293 251.757 205.462 251.846 205.601C251.935 205.741 252.075 205.84 252.237 205.877V205.878Z" fill="#3F5175"/>
<path d="M139.965 180.858L130.617 203.643L163.405 202.546L165.561 187.463C165.561 187.463 172.464 190.766 176.779 189.904C181.094 189.042 189.005 175.539 191.59 157.44C194.175 139.341 189.577 117.938 189.577 117.938L153.249 133.743L139.965 180.858Z" fill="#A35F4B"/>
<path d="M95.5918 352.997C104.429 360.808 157.22 372.049 180.429 365.648C174.003 356.525 166.713 350.859 166.713 350.859H98.1182C98.1182 350.859 97.1514 351.618 95.5918 352.997Z" fill="#36262C"/>
<path d="M67.0528 336.963C69.7953 337.647 72.4268 338.196 74.9063 338.63C87.6548 340.871 96.5007 340.192 96.5007 340.192L102.472 258.722L105.698 214.862C94.5572 231.602 57.024 290.422 50.5538 307.554C44.0836 324.686 50.2283 332.761 67.0528 336.963Z" fill="#FF895E"/>
<path d="M74.9062 338.63C87.6547 340.871 96.5006 340.192 96.5006 340.192L102.472 258.722L96.5717 253.03L74.9062 338.63Z" fill="#EB6A3B"/>
<path d="M101.676 352.8C112.031 356.35 154.096 359.909 170.595 357.648C187.094 355.387 191.628 347.626 192.916 325.327C193.296 318.794 194.035 307.828 194.85 295.422C195.458 286.232 196.105 276.25 196.675 266.705C197.972 245.119 198.889 225.72 198.097 222.551C196.479 216.086 193.405 208.879 182.243 204.774C166.064 198.825 134.032 195.723 119.471 201.542C104.909 207.36 101.355 224.813 98.7662 238.711C96.1773 252.61 87.765 321.448 86.4684 333.731C85.1718 346.013 91.3221 349.243 101.676 352.8Z" fill="#FF895E"/>
<path d="M160.693 243.506L194.854 295.422C195.463 286.232 196.11 276.25 196.68 266.705L160.693 243.506Z" fill="#EB6A3B"/>
<path d="M157.653 212.854C148.69 224.674 153.771 238.591 169.626 253.033C185.481 267.476 217.513 301.41 232.72 314.985C247.926 328.56 260.547 328.236 272.842 311.435C285.137 294.634 325.587 233.545 325.587 233.545C325.587 233.545 320.734 217.384 297.437 218.35C285.141 232.247 254.404 273.294 254.404 273.294C254.404 273.294 198.786 214.234 188.253 207.727C177.719 201.221 165.743 202.189 157.653 212.854Z" fill="#FF895E"/>
<path d="M264.03 284.021C264.84 284.021 265.726 283.709 266.224 282.935C267.807 280.475 264.616 278.023 263.082 276.843L262.905 276.701C260.821 275.087 258.525 273.766 256.081 272.775C255.927 272.72 255.757 272.726 255.607 272.793C255.458 272.859 255.34 272.981 255.278 273.133C255.216 273.285 255.216 273.455 255.277 273.607C255.338 273.759 255.455 273.881 255.605 273.948C257.942 274.896 260.138 276.159 262.132 277.702L262.31 277.844C263.545 278.792 266.113 280.766 265.153 282.246C264.869 282.686 264.206 282.814 263.696 282.722C263.049 282.598 262.438 282.184 261.872 281.753C258.897 279.481 256.533 276.509 254.991 273.101C254.959 273.021 254.911 272.949 254.851 272.888C254.791 272.828 254.718 272.78 254.639 272.748C254.559 272.716 254.474 272.7 254.389 272.702C254.303 272.704 254.219 272.723 254.141 272.758C254.062 272.793 253.992 272.844 253.934 272.907C253.876 272.97 253.832 273.044 253.804 273.125C253.775 273.206 253.763 273.291 253.769 273.377C253.775 273.462 253.797 273.546 253.836 273.622C255.464 277.221 257.962 280.361 261.104 282.759C261.792 283.284 262.554 283.794 263.46 283.964C263.648 284.001 263.839 284.02 264.03 284.021Z" fill="#EB6A3B"/>
<path d="M254.58 273.477C254.436 273.443 254.308 273.36 254.219 273.241C254.13 273.123 254.085 272.977 254.093 272.83C254.1 272.682 254.159 272.541 254.259 272.432C254.359 272.323 254.494 272.253 254.641 272.233C254.683 272.172 254.735 272.119 254.795 272.075C257.645 270.031 261.187 269.191 264.653 269.739C265.902 269.941 266.677 270.583 266.723 271.459C266.767 272.293 266.154 272.977 265.001 273.389C263.599 273.887 261.862 274.092 260.092 274.092C258.238 274.089 256.389 273.883 254.58 273.477ZM256.4 272.535C259.057 272.942 262.352 272.988 264.576 272.196C265.115 272.004 265.469 271.736 265.457 271.527C265.446 271.318 265.014 271.08 264.451 270.989C263.829 270.891 263.201 270.844 262.571 270.847C260.4 270.846 258.268 271.429 256.4 272.535Z" fill="#EB6A3B"/>
<path d="M109.765 355.265C109.921 355.265 110.073 355.207 110.189 355.102C110.305 354.997 110.379 354.853 110.395 354.697C110.963 348.909 111.194 341.453 107.911 335.129C107.073 333.516 106.105 332.657 104.951 332.505C103.169 332.274 101.702 333.894 101.455 335.56C101.22 337.135 101.82 338.684 102.308 339.915L107.601 353.516C107.63 353.594 107.675 353.666 107.733 353.727C107.79 353.788 107.859 353.837 107.936 353.871C108.013 353.906 108.095 353.924 108.179 353.926C108.263 353.928 108.347 353.914 108.425 353.883C108.503 353.853 108.574 353.807 108.635 353.749C108.695 353.691 108.743 353.621 108.777 353.544C108.81 353.467 108.828 353.384 108.829 353.3C108.829 353.216 108.814 353.133 108.782 353.056L103.489 339.457C103.039 338.299 102.528 336.988 102.713 335.746C102.868 334.699 103.792 333.631 104.789 333.758C105.5 333.851 106.156 334.49 106.79 335.709C109.918 341.739 109.689 348.957 109.138 354.571C109.129 354.654 109.138 354.737 109.162 354.817C109.186 354.897 109.225 354.971 109.278 355.035C109.331 355.099 109.396 355.153 109.47 355.192C109.543 355.231 109.624 355.256 109.706 355.264L109.765 355.265Z" fill="#EB6A3B"/>
<path d="M135.897 358.172C135.734 358.17 135.579 358.105 135.462 357.992C135.446 358.005 135.429 358.018 135.411 358.029C135.341 358.074 135.262 358.104 135.18 358.119C135.098 358.133 135.014 358.131 134.933 358.113C134.852 358.095 134.775 358.062 134.706 358.014C134.638 357.966 134.58 357.906 134.535 357.836C130.949 352.225 129.626 347.658 130.369 343.464C130.497 342.741 130.678 341.983 131.127 341.334C131.679 340.534 132.577 340.079 133.418 340.175C134.209 340.266 134.929 340.817 135.34 341.649C135.678 342.334 135.766 343.086 135.833 343.691C136.359 348.291 136.597 352.919 136.544 357.549C136.542 357.715 136.474 357.874 136.355 357.991C136.236 358.108 136.077 358.174 135.91 358.174L135.897 358.172ZM132.171 342.05C131.859 342.503 131.721 343.103 131.618 343.684C130.955 347.422 132.12 351.549 135.277 356.638C135.292 352.36 135.054 348.084 134.566 343.833C134.492 343.189 134.424 342.659 134.197 342.209C133.969 341.759 133.618 341.472 133.267 341.432C133.237 341.432 133.207 341.432 133.177 341.432C132.788 341.426 132.391 341.73 132.171 342.05Z" fill="#EB6A3B"/>
<path d="M164.222 358.827C164.364 358.827 164.502 358.779 164.614 358.692C164.725 358.604 164.804 358.482 164.838 358.344C165.738 354.663 167.204 351.527 169.588 348.158C170.394 347.021 171.51 345.601 172.99 344.694C173.593 344.326 174.393 344.136 174.696 344.509C174.886 344.746 174.871 345.194 174.645 345.875C173.392 349.673 170.446 353.499 165.638 357.573C165.57 357.625 165.514 357.691 165.472 357.766C165.43 357.84 165.404 357.923 165.395 358.008C165.387 358.093 165.395 358.179 165.42 358.261C165.446 358.343 165.487 358.419 165.543 358.484C165.598 358.549 165.667 358.603 165.743 358.641C165.82 358.679 165.904 358.701 165.989 358.706C166.075 358.711 166.161 358.699 166.241 358.67C166.322 358.641 166.396 358.596 166.459 358.537C171.449 354.308 174.521 350.301 175.842 346.272C176.078 345.562 176.318 344.514 175.677 343.716C174.877 342.721 173.416 342.946 172.325 343.613C170.647 344.639 169.426 346.188 168.55 347.423C166.068 350.924 164.542 354.199 163.602 358.043C163.582 358.124 163.579 358.207 163.591 358.29C163.604 358.372 163.633 358.451 163.676 358.522C163.719 358.593 163.776 358.654 163.843 358.703C163.91 358.752 163.986 358.788 164.067 358.807C164.118 358.82 164.17 358.827 164.222 358.827Z" fill="#EB6A3B"/>
<path d="M135.979 358.128C136.121 358.126 136.259 358.076 136.37 357.986C141.302 354.096 145.402 349.258 148.428 343.757C148.844 342.997 149.262 342.179 149.382 341.253C149.525 340.14 149.163 339.063 148.428 338.445C147.666 337.805 146.526 337.645 145.443 338.019C144.49 338.355 143.737 339.038 143.185 339.593C139.853 342.966 137.259 348.256 135.478 355.329C135.458 355.41 135.453 355.494 135.466 355.576C135.478 355.658 135.506 355.737 135.549 355.809C135.591 355.88 135.648 355.942 135.715 355.992C135.781 356.042 135.857 356.078 135.938 356.098C136.019 356.118 136.103 356.123 136.185 356.111C136.268 356.098 136.347 356.07 136.418 356.028C136.49 355.985 136.552 355.929 136.602 355.862C136.651 355.795 136.688 355.719 136.708 355.639C138.432 348.791 140.916 343.691 144.088 340.483C144.543 340.023 145.156 339.462 145.865 339.212C146.511 338.985 147.194 339.062 147.607 339.408C148.094 339.819 148.192 340.544 148.121 341.083C148.028 341.793 147.669 342.488 147.311 343.143C144.367 348.494 140.378 353.201 135.58 356.985C135.475 357.066 135.397 357.178 135.359 357.305C135.321 357.432 135.323 357.569 135.367 357.694C135.41 357.82 135.492 357.929 135.601 358.005C135.71 358.082 135.84 358.122 135.973 358.121L135.979 358.128Z" fill="#EB6A3B"/>
<path d="M317.598 203.122C312.906 200.2 310.408 193.068 309.832 189.189C309.257 185.311 309.69 181.863 307.1 181.431C304.509 181 303.109 182.474 302.678 188.29C302.247 194.107 303.786 210.835 308.733 218.523C316.213 220.988 317.598 203.122 317.598 203.122Z" fill="#A35F4B"/>
<path d="M178.432 136.184C195.865 136.184 209.997 128.467 209.997 118.947C209.997 109.427 195.865 101.709 178.432 101.709C160.999 101.709 146.867 109.427 146.867 118.947C146.867 128.467 160.999 136.184 178.432 136.184Z" fill="#3B262D"/>
<path d="M140.396 141.643C150.8 141.643 159.235 134.536 159.235 125.77C159.235 117.004 150.8 109.898 140.396 109.898C129.991 109.898 121.557 117.004 121.557 125.77C121.557 134.536 129.991 141.643 140.396 141.643Z" fill="#3B262D"/>
<path d="M121.556 125.77C121.272 140.637 132.343 153.709 134.352 162.615C136.36 171.52 138.475 184.485 138.475 184.485C138.475 184.485 156.933 187.028 159.231 186.034C161.53 185.04 163.689 165.924 166.853 163.051C170.018 160.178 178.789 162.341 179.791 158.311C180.793 154.28 180.273 137.182 187.398 135.478C194.524 133.774 195.329 117.943 195.329 117.943L179.224 111.904L133.356 135.035L121.556 125.77Z" fill="#3B262D"/>
<path d="M175.278 169.367C178.468 167.848 179.393 163.138 177.345 158.848C175.296 154.558 171.05 152.313 167.86 153.832C164.67 155.352 163.745 160.062 165.793 164.352C167.842 168.642 172.088 170.887 175.278 169.367Z" fill="#A35F4B"/>
<path d="M612.15 394H40.0654C39.6808 394 39.3119 393.847 39.04 393.576C38.768 393.304 38.6152 392.936 38.6152 392.551C38.6152 392.167 38.768 391.799 39.04 391.527C39.3119 391.256 39.6808 391.103 40.0654 391.103H612.15C612.535 391.103 612.904 391.256 613.175 391.527C613.447 391.799 613.6 392.167 613.6 392.551C613.6 392.936 613.447 393.304 613.175 393.576C612.904 393.847 612.535 394 612.15 394Z" fill="#3B262D"/>
</svg>
