<svg width="26" height="26" viewBox="0 0 26 26" fill="none" xmlns="http://www.w3.org/2000/svg">
<g clip-path="url(#clip0_5958_1525)">
<path d="M22.7462 13.2706C22.8006 11.3186 22.2676 9.39518 21.2162 7.74959C20.1648 6.104 18.6435 4.81204 16.8493 4.04107C15.0552 3.2701 13.0709 3.05565 11.1534 3.42549C9.23597 3.79534 7.47376 4.73244 6.09506 6.11541C4.71637 7.49837 3.78472 9.26347 3.4208 11.1821C3.05689 13.1006 3.27748 15.0843 4.05399 16.8761C4.83051 18.6678 6.12717 20.1851 7.776 21.2314C9.42484 22.2777 11.3499 22.8048 13.3017 22.7444" stroke="white" stroke-width="2" stroke-linecap="round" stroke-linejoin="round"/>
<path d="M17.334 20.583C17.334 21.445 17.6764 22.2716 18.2859 22.8811C18.8954 23.4906 19.722 23.833 20.584 23.833C21.4459 23.833 22.2726 23.4906 22.8821 22.8811C23.4916 22.2716 23.834 21.445 23.834 20.583C23.834 19.7211 23.4916 18.8944 22.8821 18.2849C22.2726 17.6754 21.4459 17.333 20.584 17.333C19.722 17.333 18.8954 17.6754 18.2859 18.2849C17.6764 18.8944 17.334 19.7211 17.334 20.583Z" stroke="white" stroke-width="2" stroke-linecap="round" stroke-linejoin="round"/>
<path d="M18.416 22.7503L22.7493 18.417" stroke="white" stroke-width="2" stroke-linecap="round" stroke-linejoin="round"/>
<path d="M13 7.58301V12.9997L15.1667 15.1663" stroke="white" stroke-width="2" stroke-linecap="round" stroke-linejoin="round"/>
</g>
<defs>
<clipPath id="clip0_5958_1525">
<rect width="26" height="26" fill="white"/>
</clipPath>
</defs>
</svg>
