<svg width="26" height="26" viewBox="0 0 26 26" fill="none" xmlns="http://www.w3.org/2000/svg">
<g clip-path="url(#clip0_2113_315)">
<path d="M7.58464 17.875L2.16797 14.625L7.58464 11.375L13.0013 14.625V20.5833L7.58464 23.8333V17.875Z" stroke="#333333" stroke-width="2" stroke-linecap="round" stroke-linejoin="round"/>
<path d="M2.16797 14.625V20.5833L7.58464 23.8333" stroke="#333333" stroke-width="2" stroke-linecap="round" stroke-linejoin="round"/>
<path d="M7.58203 17.9236L12.9987 14.6411" stroke="#333333" stroke-width="2" stroke-linecap="round" stroke-linejoin="round"/>
<path d="M18.4167 17.875L13 14.625L18.4167 11.375L23.8333 14.625V20.5833L18.4167 23.8333V17.875Z" stroke="#333333" stroke-width="2" stroke-linecap="round" stroke-linejoin="round"/>
<path d="M13 20.5835L18.4167 23.8335" stroke="#333333" stroke-width="2" stroke-linecap="round" stroke-linejoin="round"/>
<path d="M18.418 17.875L23.8346 14.625" stroke="#333333" stroke-width="2" stroke-linecap="round" stroke-linejoin="round"/>
<path d="M12.9987 14.6248V8.6665L7.58203 5.4165L12.9987 2.1665L18.4154 5.4165V11.3748" stroke="#333333" stroke-width="2" stroke-linecap="round" stroke-linejoin="round"/>
<path d="M7.58203 5.44922V11.3588" stroke="#333333" stroke-width="2" stroke-linecap="round" stroke-linejoin="round"/>
<path d="M13 8.6665L18.4167 5.4165" stroke="#333333" stroke-width="2" stroke-linecap="round" stroke-linejoin="round"/>
</g>
<defs>
<clipPath id="clip0_2113_315">
<rect width="26" height="26" fill="white"/>
</clipPath>
</defs>
</svg>
