<svg width="32" height="32" viewBox="0 0 32 32" fill="none" xmlns="http://www.w3.org/2000/svg">
<g clip-path="url(#clip0_4681_503)">
<path d="M12.0003 6.66699H9.33366C8.62641 6.66699 7.94814 6.94794 7.44804 7.44804C6.94794 7.94814 6.66699 8.62641 6.66699 9.33366V25.3337C6.66699 26.0409 6.94794 26.7192 7.44804 27.2193C7.94814 27.7194 8.62641 28.0003 9.33366 28.0003H22.667C23.3742 28.0003 24.0525 27.7194 24.5526 27.2193C25.0527 26.7192 25.3337 26.0409 25.3337 25.3337V9.33366C25.3337 8.62641 25.0527 7.94814 24.5526 7.44804C24.0525 6.94794 23.3742 6.66699 22.667 6.66699H20.0003" stroke="#333333" stroke-width="2.75" stroke-linecap="round" stroke-linejoin="round"/>
<path d="M12 6.66667C12 5.95942 12.281 5.28115 12.781 4.78105C13.2811 4.28095 13.9594 4 14.6667 4H17.3333C18.0406 4 18.7189 4.28095 19.219 4.78105C19.719 5.28115 20 5.95942 20 6.66667C20 7.37391 19.719 8.05219 19.219 8.55229C18.7189 9.05238 18.0406 9.33333 17.3333 9.33333H14.6667C13.9594 9.33333 13.2811 9.05238 12.781 8.55229C12.281 8.05219 12 7.37391 12 6.66667Z" stroke="#333333" stroke-width="2.75" stroke-linecap="round" stroke-linejoin="round"/>
<path d="M15.9904 22.3338L19.6531 18.5805C20.1061 18.1087 20.3591 17.4799 20.3591 16.8258C20.3591 16.1717 20.1061 15.5429 19.6531 15.0711C19.4322 14.8413 19.1672 14.6584 18.8739 14.5334C18.5807 14.4085 18.2652 14.3441 17.9464 14.3441C17.6276 14.3441 17.3122 14.4085 17.0189 14.5334C16.7256 14.6584 16.4606 14.8413 16.2397 15.0711L15.9957 15.3218L15.7517 15.0698C15.5309 14.8399 15.2659 14.657 14.9726 14.5321C14.6793 14.4072 14.3639 14.3428 14.0451 14.3428C13.7263 14.3428 13.4108 14.4072 13.1175 14.5321C12.8243 14.657 12.5593 14.8399 12.3384 15.0698C11.8851 15.5415 11.6318 16.1703 11.6318 16.8245C11.6318 17.4787 11.8851 18.1075 12.3384 18.5791L15.9891 22.3458L15.9904 22.3338Z" stroke="#333333" stroke-width="2.75" stroke-linecap="round" stroke-linejoin="round"/>
</g>
<defs>
<clipPath id="clip0_4681_503">
<rect width="32" height="32" fill="white"/>
</clipPath>
</defs>
</svg>
