<svg width="32" height="32" viewBox="0 0 32 32" fill="none" xmlns="http://www.w3.org/2000/svg">
<g clip-path="url(#clip0_3229_48)">
<path d="M11.9993 6.66699H9.33268C8.62544 6.66699 7.94716 6.94794 7.44706 7.44804C6.94697 7.94814 6.66602 8.62641 6.66602 9.33366V25.3337C6.66602 26.0409 6.94697 26.7192 7.44706 27.2193C7.94716 27.7194 8.62544 28.0003 9.33268 28.0003H22.666C23.3733 28.0003 24.0515 27.7194 24.5516 27.2193C25.0517 26.7192 25.3327 26.0409 25.3327 25.3337V9.33366C25.3327 8.62641 25.0517 7.94814 24.5516 7.44804C24.0515 6.94794 23.3733 6.66699 22.666 6.66699H19.9993" stroke="#333333" stroke-width="2.75" stroke-linecap="round" stroke-linejoin="round"/>
<path d="M12 6.66667C12 5.95942 12.281 5.28115 12.781 4.78105C13.2811 4.28095 13.9594 4 14.6667 4H17.3333C18.0406 4 18.7189 4.28095 19.219 4.78105C19.719 5.28115 20 5.95942 20 6.66667C20 7.37391 19.719 8.05219 19.219 8.55229C18.7189 9.05238 18.0406 9.33333 17.3333 9.33333H14.6667C13.9594 9.33333 13.2811 9.05238 12.781 8.55229C12.281 8.05219 12 7.37391 12 6.66667Z" stroke="#333333" stroke-width="2.75" stroke-linecap="round" stroke-linejoin="round"/>
<path d="M12 18.6667L14.6667 21.3333L20 16" stroke="#333333" stroke-width="2.75" stroke-linecap="round" stroke-linejoin="round"/>
</g>
<defs>
<clipPath id="clip0_3229_48">
<rect width="32" height="32" fill="white"/>
</clipPath>
</defs>
</svg>
