<svg width="32" height="32" viewBox="0 0 32 32" fill="none" xmlns="http://www.w3.org/2000/svg">
<g clip-path="url(#clip0_1172_1780)">
<path d="M2.66797 4H4.0013C4.70855 4 5.38682 4.28095 5.88692 4.78105C6.38702 5.28115 6.66797 5.95942 6.66797 6.66667V20C6.66797 20.7072 6.94892 21.3855 7.44902 21.8856C7.94911 22.3857 8.62739 22.6667 9.33464 22.6667H29.3346" stroke="white" stroke-width="2" stroke-linecap="round" stroke-linejoin="round"/>
<path d="M12 12C12 10.9391 12.4214 9.92172 13.1716 9.17157C13.9217 8.42143 14.9391 8 16 8H21.3333C22.3942 8 23.4116 8.42143 24.1618 9.17157C24.9119 9.92172 25.3333 10.9391 25.3333 12V14.6667C25.3333 15.7275 24.9119 16.7449 24.1618 17.4951C23.4116 18.2452 22.3942 18.6667 21.3333 18.6667H16C14.9391 18.6667 13.9217 18.2452 13.1716 17.4951C12.4214 16.7449 12 15.7275 12 14.6667V12Z" stroke="white" stroke-width="2" stroke-linecap="round" stroke-linejoin="round"/>
<path d="M9.33203 25.3332C9.33203 26.0404 9.61298 26.7187 10.1131 27.2188C10.6132 27.7189 11.2915 27.9998 11.9987 27.9998C12.7059 27.9998 13.3842 27.7189 13.8843 27.2188C14.3844 26.7187 14.6654 26.0404 14.6654 25.3332C14.6654 24.6259 14.3844 23.9477 13.8843 23.4476C13.3842 22.9475 12.7059 22.6665 11.9987 22.6665C11.2915 22.6665 10.6132 22.9475 10.1131 23.4476C9.61298 23.9477 9.33203 24.6259 9.33203 25.3332Z" stroke="white" stroke-width="2" stroke-linecap="round" stroke-linejoin="round"/>
<path d="M21.332 25.3332C21.332 26.0404 21.613 26.7187 22.1131 27.2188C22.6132 27.7189 23.2915 27.9998 23.9987 27.9998C24.7059 27.9998 25.3842 27.7189 25.8843 27.2188C26.3844 26.7187 26.6654 26.0404 26.6654 25.3332C26.6654 24.6259 26.3844 23.9477 25.8843 23.4476C25.3842 22.9475 24.7059 22.6665 23.9987 22.6665C23.2915 22.6665 22.6132 22.9475 22.1131 23.4476C21.613 23.9477 21.332 24.6259 21.332 25.3332Z" stroke="white" stroke-width="2" stroke-linecap="round" stroke-linejoin="round"/>
</g>
<defs>
<clipPath id="clip0_1172_1780">
<rect width="32" height="32" fill="white"/>
</clipPath>
</defs>
</svg>
