<svg width="26" height="26" viewBox="0 0 26 26" fill="none" xmlns="http://www.w3.org/2000/svg">
<path d="M2.33398 3.66634C2.33398 3.31272 2.47446 2.97358 2.72451 2.72353C2.97456 2.47348 3.3137 2.33301 3.66732 2.33301H22.334C22.6876 2.33301 23.0267 2.47348 23.2768 2.72353C23.5268 2.97358 23.6673 3.31272 23.6673 3.66634V22.333C23.6673 22.6866 23.5268 23.0258 23.2768 23.2758C23.0267 23.5259 22.6876 23.6663 22.334 23.6663H3.66732C3.3137 23.6663 2.97456 23.5259 2.72451 23.2758C2.47446 23.0258 2.33398 22.6866 2.33398 22.333V3.66634Z" stroke="white" stroke-width="2.75" stroke-linecap="round" stroke-linejoin="round"/>
<path d="M2.33398 7.66699H23.6673" stroke="white" stroke-width="2.75" stroke-linecap="round" stroke-linejoin="round"/>
<path d="M10.333 15.667H15.6663" stroke="white" stroke-width="2.75" stroke-linecap="round" stroke-linejoin="round"/>
<path d="M13 13V18.3333" stroke="white" stroke-width="2.75" stroke-linecap="round" stroke-linejoin="round"/>
</svg>
