<svg width="44" height="54" viewBox="0 0 44 54" fill="none" xmlns="http://www.w3.org/2000/svg">
<path d="M40.6171 8.32071H30.5055V5.07566C30.5055 2.27559 28.2277 0 25.4286 0H18.678C15.8772 0 13.6011 2.27559 13.6011 5.07566V8.32071H3.38462C1.51631 8.32071 0 9.83664 0 11.7045V50.6162C0 52.4858 1.51631 54 3.38462 54H40.6154C42.4854 54 44 52.4858 44 50.6162V11.7045C44 9.83664 42.4871 8.32071 40.6171 8.32071ZM16.9874 5.07566C16.9874 4.14174 17.7455 3.38378 18.6797 3.38378H25.4303C26.3645 3.38378 27.1226 4.14174 27.1226 5.07566V8.32071H16.9874V5.07566ZM40.6171 50.6162H3.38631V11.7045H13.6028V15.1864C13.6028 15.1864 13.5571 16.8766 15.2849 16.8766C17.1888 16.8766 16.9874 15.1864 16.9874 15.1864V11.7045H27.1226V15.1864C27.1226 15.1864 27.0092 16.885 28.8082 16.885C30.5005 16.885 30.5072 15.1864 30.5072 15.1864V11.7045H40.6171V50.6162Z" fill="black"/>
</svg>
