<svg width="31" height="31" viewBox="0 0 31 31" fill="none" xmlns="http://www.w3.org/2000/svg">
<path d="M9.13339 2.16567L2.73599 9.47699V28.1538H28.7241V9.47699L22.3267 2.16567H9.13339ZM8.64178 2.9186e-07H22.8183C22.9724 -0.000112852 23.1248 0.0326715 23.2652 0.0961619C23.4056 0.159652 23.5309 0.252386 23.6326 0.368165L30.6212 8.35734C30.794 8.5545 30.8895 8.80766 30.8898 9.06985V29.2366C30.8898 29.5238 30.7757 29.7992 30.5726 30.0023C30.3695 30.2054 30.0941 30.3194 29.8069 30.3194H1.65315C1.36596 30.3194 1.09054 30.2054 0.887469 30.0023C0.684397 29.7992 0.570313 29.5238 0.570313 29.2366V9.06985C0.570093 8.80692 0.665545 8.55289 0.838856 8.35517L7.82532 0.372496C7.92688 0.255653 8.05231 0.161943 8.19315 0.0976858C8.33399 0.0334287 8.48697 0.000118123 8.64178 2.9186e-07Z" fill="#333333"/>
<path d="M0.570312 8.66211H30.8898V10.8278H0.570312V8.66211Z" fill="#333333"/>
<path d="M13.5641 8.92908V19.4911H17.8955V8.92908L16.2062 2.16567H15.2533L13.5641 8.92908ZM13.5641 0H17.8955L20.0611 8.6627V20.5739C20.0611 20.8611 19.9471 21.1365 19.744 21.3396C19.5409 21.5427 19.2655 21.6567 18.9783 21.6567H12.4813C12.1941 21.6567 11.9187 21.5427 11.7156 21.3396C11.5125 21.1365 11.3984 20.8611 11.3984 20.5739V8.6627L13.5641 0Z" fill="#333333"/>
</svg>
