<svg width="27" height="37" viewBox="0 0 27 37" fill="none" xmlns="http://www.w3.org/2000/svg">
<path d="M19.125 0C23.4742 0 27 3.6237 27 8.09375V28.9062C27 33.3763 23.4742 37 19.125 37H7.875C3.52576 37 0 33.3763 0 28.9062V8.09375C0 3.6237 3.52576 0 7.875 0H19.125ZM24.75 19.6562H2.25V28.9062C2.25 32.0151 4.6376 34.5509 7.631 34.6822L7.875 34.6875H19.125C22.2316 34.6875 24.75 32.0991 24.75 28.9062V19.6562ZM6.75 23.125C7.37132 23.125 7.875 23.6427 7.875 24.2812V26.5938C7.875 27.2323 7.37132 27.75 6.75 27.75C6.12868 27.75 5.625 27.2323 5.625 26.5938V24.2812C5.625 23.6427 6.12868 23.125 6.75 23.125ZM19.125 2.3125H7.875C4.7684 2.3125 2.25 4.90085 2.25 8.09375V17.3438H24.75V8.09375C24.75 4.98488 22.3624 2.44915 19.369 2.31784L19.125 2.3125ZM6.75 9.25C7.37132 9.25 7.875 9.76767 7.875 10.4062V12.7188C7.875 13.3573 7.37132 13.875 6.75 13.875C6.12868 13.875 5.625 13.3573 5.625 12.7188V10.4062C5.625 9.76767 6.12868 9.25 6.75 9.25Z" fill="#333333"/>
</svg>
